<?xml version="1.0" encoding="UTF-8"?>
<svg id="Layer_1" data-name="Layer 1" xmlns="http://www.w3.org/2000/svg" viewBox="0 0 1139.88 984.54">
  <path d="M47.75,221.63c11.19,6.82,23.72,11.45,36.69,13.42,7.07,1.08,14.18,1.6,21.2,2.99s13.87,3.16,20.76,4.87c8.05,2,16.1,4,24.15,6,.59.15,1.42-.08,1.69-.69.76-1.7.56-3.56-.86-4.86s-3.55.81-2.12,2.12c.34.32.6.75.39,1.22l1.69-.69c-14-3.48-27.97-7.29-42.09-10.29-6.97-1.48-13.97-2.27-21.03-3.15-6.49-.81-12.9-2.23-19.11-4.29-6.95-2.31-13.6-5.43-19.86-9.24-1.65-1.01-3.16,1.59-1.51,2.59h0Z"/>
  <path d="M151.92,248.47c7.58,9.58,15.16,19.16,22.74,28.73,6.49,8.2,12.93,16.45,19.87,24.26s13.86,14.61,21.9,20.68,16.84,10.67,26.35,13.91,19.78,5.47,29.42,9c4.69,1.72,9.26,3.8,13.48,6.47,4.49,2.84,8.46,6.39,12.1,10.24,7.25,7.65,13.57,16.18,20.45,24.16s13.83,15.55,21.16,22.93c14.58,14.67,30.37,28.22,47.62,39.67,8.54,5.67,17.44,10.82,26.67,15.31s19.52,8.61,29.47,12.43c19.98,7.67,40.39,14.93,58.41,26.72,15.09,9.87,27.93,22.94,38.01,37.86s17.51,31.61,22.44,48.94,7.46,35.8,7.5,54.05c0,4.43-.13,8.86-.41,13.28-.12,1.93,2.88,1.92,3,0,1.15-18.33-.16-36.82-3.92-54.8-3.73-17.85-9.94-35.25-18.79-51.21s-20-29.91-33.75-41.4c-15.88-13.27-34.64-21.94-53.76-29.46s-40.2-14.86-58.92-25.45c-18.08-10.23-34.66-22.91-49.92-36.97-15.3-14.1-29.28-29.56-42.43-45.66-6.71-8.22-13.45-16.63-22.37-22.56s-18.49-8.77-28.28-11.57c-9.84-2.8-19.79-5.41-28.91-10.16-8.95-4.66-16.94-10.9-24.19-17.87s-13.92-14.77-20.3-22.65c-7.24-8.94-14.32-18.02-21.46-27.04l-11.06-13.98c-1.2-1.51-3.31.62-2.12,2.12h0Z"/>
  <path d="M570.02,658.35c-.83,4.19-1.74,9.13.71,12.98,1.91,3.01,5.78,5.19,9.32,3.72,3.81-1.59,5.04-6.23,6.32-9.76,1.61-4.43,3.05-8.92,4.32-13.46,5.13-18.35,7.51-37.5,7.03-56.54-.27-10.7-1.44-21.37-3.49-31.87-.15-.77-1.12-1.28-1.85-1.05-1.15.37-2.29.75-3.44,1.12-1.83.6-1.05,3.49.8,2.89,1.15-.37,2.29-.75,3.44-1.12l-1.85-1.05c3.33,17.11,4.23,34.67,2.75,52.04s-5.34,34.37-11.49,50.6c-.66,1.75-1.37,3.87-2.95,5.02-1.48,1.09-3.32.67-4.72-.35-3.89-2.82-2.81-8.36-2.01-12.38.37-1.89-2.52-2.69-2.89-.8h0Z"/>
  <path d="M615.13,605.6c3.67,26.29-4.63,52.37-13.27,76.87-2.25,6.38-4.54,12.75-6.82,19.13-1.14,3.18-2.27,6.36-3.41,9.54-.99,2.78-1.82,5.69-3.27,8.28-1.02,1.83-2.44,3.92-4.46,4.76-2.34.97-4.19-.82-5.2-2.77-1.22-2.35-1.96-5.05-2.6-7.61s-1.12-5.35-1.36-8.07c-1.08-12.41,2.06-25.02,9.06-35.34,1.09-1.6-1.51-3.11-2.59-1.51-6.66,9.83-10.01,21.8-9.65,33.66.17,5.85,1.22,11.71,3.22,17.22.91,2.53,2.04,5.25,4.43,6.73,2.08,1.29,4.64,1.21,6.73,0,4.94-2.83,6.63-9.11,8.41-14.08,2.44-6.83,4.88-13.66,7.31-20.48,4.8-13.44,9.65-26.9,13.03-40.78,3.69-15.16,5.49-30.8,3.32-46.33-.27-1.9-3.16-1.09-2.89.8h0Z"/>
  <path d="M629.2,623.38c1.57,4.29,2.17,8.8,2.57,13.32s.72,9.18.96,13.78c.47,9.13.63,18.28.47,27.42-.32,18.3-1.9,36.59-4.76,54.67-1.44,9.11-3.2,18.17-5.27,27.15-1.02,4.42-2.11,8.81-3.29,13.19-.91,3.41-1.9,6.77-3.5,9.93-2.55,5.05-7.19,10.76-13.56,8.71-5.85-1.89-7.94-9.42-8.95-14.76-1.68-8.88-2.37-18.07-2.89-27.08s-.63-18.82-.26-28.23c.09-2.37.22-4.74.37-7.11.12-1.93-2.88-1.92-3,0-1.25,19.67-.5,39.43,2.22,58.96.89,6.41,2.24,13.9,7.26,18.49,2.34,2.15,5.48,3.38,8.68,3.13s5.92-1.8,8.13-4.02c5.19-5.22,7.19-12.64,8.99-19.54,2.41-9.23,4.48-18.55,6.22-27.93,3.48-18.81,5.61-37.88,6.36-57,.38-9.61.4-19.24.08-28.85-.16-4.77-.41-9.53-.74-14.29s-.63-9.38-1.43-14c-.4-2.3-.97-4.56-1.77-6.75-.66-1.8-3.56-1.02-2.89.8h0Z"/>
  <path d="M668.95,630.48c2.08,19.22,2.98,38.56,2.7,57.89s-1.73,38.69-4.37,57.86c-2.64,19.15-6.45,38.14-11.41,56.82-2.23,8.39-4.17,17.61-9.47,24.69-4.39,5.87-12.64,10.33-19.87,6.97-5.96-2.77-8.55-9.42-9.91-15.44-.75-3.33-1.16-6.72-1.44-10.12-.41-5.04-.82-10.08-1.22-15.12-.2-2.48-.4-4.96-.6-7.44-.15-1.91-3.16-1.93-3,0,.43,5.29.86,10.58,1.28,15.87.34,4.26.61,8.54,1.21,12.78.95,6.66,2.8,13.95,7.69,18.87,5.51,5.54,13.7,5.9,20.38,2.3,7.83-4.22,11.84-12.46,14.45-20.59,3-9.36,5.31-19,7.48-28.58,2.21-9.73,4.11-19.54,5.7-29.39,3.19-19.76,5.16-39.73,5.86-59.73s.14-40.11-1.7-60.07c-.23-2.52-.49-5.05-.76-7.57-.21-1.9-3.21-1.92-3,0h0Z"/>
  <path d="M585.84,436.7c.23,18.22,3.85,36.31,10.38,53.31,3.36,8.76,7.45,17.24,12.16,25.35,1.18,2.02,2.39,4.02,3.64,6,.61.96,1.23,1.92,1.86,2.87s1.39,1.69,2.07,2.57c1.27,1.64,2.22,3.51,3.43,5.19s2.45,3.11,3.7,4.62c9.79,11.78,21.26,22.3,29.53,35.29,4.05,6.35,7.16,13.25,8.66,20.66.86,4.26,1.07,8.59,2.03,12.84,1.07,4.76,2.37,9.6,3.93,14.23,1.48,4.39,3.52,8.66,5.47,12.85s3.88,8.13,5.8,12.21c4.1,8.7,7.88,17.56,9.93,26.99,4.32,19.86,3.75,40.36.4,60.32-3.33,19.82-9.28,39.02-14.66,58.34-2.62,9.41-5.08,18.87-6.99,28.45-1.93,9.71-3.18,19.56-4.38,29.38-2.41,19.72-2.96,39.72-.82,59.5,1.06,9.84,2.77,19.61,5.2,29.2,2.29,9.03,4.83,18.37,9.64,26.42,2.15,3.6,4.69,6.96,7.42,10.14,1.4,1.63,2.86,3.22,4.36,4.78,1.4,1.46,2.78,3.07,4.42,4.26,3,2.18,7.39,2.94,10.6.74,1.73-1.19,2.2-2.76,2.78-4.69.69-2.29,2.38-4.28,3.64-6.29,9.76-15.55,17.33-32.37,23.12-49.77s9.68-34.65,12.98-52.32c3.35-17.92,6.01-35.95,9.02-53.92.39-2.31.87-4.63,1.1-6.97.24-2.51.53-5.02.85-7.52.64-5.1,1.38-10.19,2.03-15.29.33-2.58.64-5.17.89-7.76.23-2.29.14-4.6.14-6.89v-3.19c0-1.25.23-2.42.44-3.65.43-2.52.77-5.06,1.02-7.61.98-9.72.66-19.48.56-29.23-.05-5.11.53-10.18.7-15.29s.14-10.58-.04-15.87c-.35-10.44-1.27-20.85-2.25-31.25-.96-10.17-2.2-20.36-3.66-30.48-.73-5.06-1.6-10.1-2.75-15.08-1.08-4.68-2.73-9.15-4.24-13.71s-2.83-8.89-3.92-13.43-1.88-9.21-2.83-13.81c-3.55-17.22-7.84-34.32-13.62-50.93s-12.92-32.39-22.09-47.19c-4.49-7.24-9.45-14.17-14.82-20.78-1.22-1.5-3.33.64-2.12,2.12,10.93,13.44,19.93,28.37,27.14,44.11,7.18,15.67,12.57,32.12,16.91,48.79,2.22,8.52,4.16,17.1,5.92,25.73.93,4.56,1.72,9.15,2.83,13.66s2.46,8.81,3.9,13.15c1.53,4.58,3.13,9.08,4.2,13.8,1.12,4.98,1.97,10.02,2.69,15.08,1.4,9.94,2.6,19.96,3.54,29.95.98,10.4,1.87,20.81,2.19,31.25.16,5.12.17,10.25,0,15.38s-.73,10-.68,15.02c.1,9.75.41,19.52-.58,29.24-.26,2.53-.61,5.04-1.06,7.54-.41,2.24-.38,4.39-.38,6.67s.1,4.45-.11,6.65c-.24,2.51-.54,5.02-.85,7.52-.64,5.1-1.39,10.19-2.03,15.29s-1.15,9.75-1.97,14.61c-1.48,8.85-2.88,17.71-4.32,26.57-2.86,17.63-5.87,35.25-10.06,52.62-4.18,17.32-9.54,34.41-16.93,50.65-3.83,8.42-8.19,16.6-13.08,24.46-1.2,1.93-2.81,3.85-3.71,5.93-.76,1.75-.73,3.92-2.58,4.9-1.54.82-3.4.66-4.98.04-1.87-.74-3.17-2.21-4.54-3.61-5.93-6.06-11.42-12.58-15.08-20.29-2.02-4.25-3.38-8.82-4.72-13.31-1.41-4.74-2.64-9.53-3.69-14.36-4.16-19.13-5.46-38.8-4.63-58.34.43-9.92,1.39-19.81,2.81-29.64.7-4.84,1.23-9.71,2.03-14.54s1.76-9.6,2.84-14.36c4.28-18.9,10.37-37.33,15.11-56.11s8.37-39.34,7.8-59.41c-.29-10.03-1.59-20.03-3.99-29.77-2.21-8.98-6.27-17.55-10.23-25.88-3.94-8.29-8.36-16.55-10.95-25.38-1.35-4.6-2.73-9.2-3.64-13.91-.78-4.09-.96-8.24-1.94-12.3-3.55-14.7-13.1-26.75-22.96-37.8-5.12-5.73-10.4-11.32-15.33-17.22-1.23-1.47-2.51-2.94-3.61-4.51-1.17-1.69-2.16-3.5-3.41-5.14-.63-.83-1.37-1.56-1.96-2.42-.68-1-1.33-2.04-1.98-3.06-1.25-1.98-2.46-3.98-3.64-6-9.19-15.84-15.93-33.1-19.4-51.1-1.64-8.52-2.51-17.18-2.62-25.86-.02-1.93-3.02-1.93-3,0h0Z"/>
  <path d="M359.61,344.64c3.85,14.67,10.16,28.68,18.58,41.29,4.19,6.27,8.89,12.2,14.05,17.7,2.59,2.76,5.27,5.46,8.14,7.93s5.99,4.7,9.61,5.87c6.42,2.09,15.56-.61,16.73-8.17l-2.74.36c8.34,12.54,20.86,21.99,35.21,26.56.59.19,1.41-.12,1.69-.69,1.47-2.95,2.93-5.9,4.4-8.85l-2.36.3c7.34,7.14,14.96,14.52,24.39,18.84,7.88,3.6,17.08,4.74,25.37,1.78,4.54-1.62,8.45-4.41,11.27-8.33l-2.05.54c17.02,10.7,37.75,15.3,57.71,13,5.66-.65,11.24-1.82,16.67-3.55,1.83-.58,1.05-3.48-.8-2.89-18.64,5.94-39.09,5.2-57.35-1.77-5.14-1.96-10.06-4.45-14.71-7.38-.73-.46-1.59-.1-2.05.54-4.58,6.38-12.71,8.83-20.27,8.51-9.02-.38-17.15-4.95-24.05-10.48-4.22-3.38-8.11-7.15-11.99-10.92-.65-.63-1.92-.58-2.36.3-1.47,2.95-2.93,5.9-4.4,8.85l1.69-.69c-13.59-4.32-25.52-13.31-33.42-25.18-.64-.96-2.53-1.02-2.74.36-.42,2.71-2.27,4.68-4.73,5.79-2.81,1.27-5.83,1.15-8.7.15-3.35-1.18-6.24-3.45-8.85-5.8s-5.09-4.84-7.48-7.4c-9.61-10.3-17.54-22.14-23.49-34.9-3.37-7.23-6.06-14.76-8.08-22.47-.49-1.87-3.38-1.07-2.89.8h0Z"/>
  <path d="M304.61,359.95l-5.28-4.61c-1.44-1.26-3.47.71-2.12,2.12,3.61,3.78,7.22,7.57,10.83,11.35,3.25,3.41,6.36,7.2,10.04,10.16,3.25,2.61,7.12,4.13,11.3,3.1,3.95-.97,7.32-3.87,9.41-7.29,2.73-4.47,3.54-9.75,4.28-14.84l-2.2.9c5.5,2.79,10.99,5.58,16.49,8.37,1.18.6,2.5-.39,2.2-1.69-.77-3.45.39-7.16,3.02-9.52s6.78-2.97,10.17-1.7c1.81.68,2.59-2.22.8-2.89-4.41-1.66-9.59-.69-13.09,2.47s-4.79,7.99-3.79,12.44l2.2-1.69c-5.5-2.79-10.99-5.58-16.49-8.37-.76-.39-2.05-.13-2.2.9-1.06,7.26-2.56,16.85-10.53,19.71-3.8,1.37-7.32-.11-10.22-2.65-3.25-2.85-6.12-6.2-9.1-9.33-3.67-3.84-7.33-7.69-11-11.53l-2.12,2.12,5.28,4.61c1.45,1.27,3.58-.85,2.12-2.12h0Z"/>
  <path d="M164.05,212.86h-4.6c-.78,0-1.54.69-1.5,1.5s.66,1.5,1.5,1.5h4.6c.78,0,1.54-.69,1.5-1.5s-.66-1.5-1.5-1.5h0Z"/>
  <path d="M163.59,210.06c8.39-12.33,17.97-23.88,28.96-33.98s23.22-18.56,36.77-24.61,28.68-9.37,43.67-9.29,29.71,3.53,42.61,10.94c12.69,7.29,22.79,18.07,32.45,28.87s19.4,22.16,31.29,30.89c11.93,8.76,25.66,14.8,39.82,18.92s29.49,6.51,44.47,8.12c16.41,1.76,32.91,2.8,49.37,3.98,18.19,1.31,36.39,2.49,54.61,3.28,18.26.79,36.54,1.14,54.82.87,18.18-.27,36.35-1.07,54.5-2.04,18.17-.97,36.32-2.13,54.49-3.11s36.28-1.79,54.44-2.07c18.12-.28,36.25-.05,54.34,1.06s36.06,3.47,54.08,5.53c17.86,2.05,35.82,3.58,53.8,2.55s35.59-4.18,53.27-7.06c17.8-2.9,35.64-5.14,53.67-6,17.97-.86,36-.55,53.93.93,8.71.72,17.4,1.72,26.05,2.99,1.89.28,2.7-2.61.8-2.89-17.86-2.63-35.87-4.14-53.92-4.45-18.07-.31-36.17.57-54.12,2.62s-35.62,5.5-53.46,8.07c-8.86,1.28-17.76,2.31-26.7,2.8-9.05.5-18.12.37-27.16-.17-18.16-1.08-36.17-3.74-54.24-5.71s-36.29-3.01-54.5-3.31-36.44.11-54.64.85-36.48,1.83-54.72,2.9c-18.16,1.06-36.32,2.11-54.5,2.8-18.28.69-36.58.97-54.88.62s-36.77-1.25-55.13-2.4-35.95-2.45-53.91-3.84c-15.18-1.18-30.38-2.59-45.35-5.43s-29.17-6.92-42.51-13.7c-6.56-3.34-12.84-7.29-18.57-11.91s-10.95-9.83-15.96-15.21c-10.01-10.76-19.23-22.36-30.43-31.94s-24.6-16.48-39.27-19.45c-14.73-2.98-30.08-2.39-44.66,1.14s-28.21,10.1-40.46,18.63-23.05,18.85-32.58,30.24c-4.67,5.58-9.04,11.42-13.13,17.44-1.09,1.6,1.51,3.1,2.59,1.51h0Z"/>
  <path d="M1135.41,236.99c2.64,4.05,1.4,9.27-1.4,12.9-3.29,4.27-8.8,6.24-13.83,7.54-12.06,3.12-24.57,4.89-36.92,6.4-25.35,3.09-50.89,4.12-76.35,5.84-12.61.85-25.22,1.88-37.77,3.4s-25.26,3.75-37.79,6.3-24.91,5.25-37.51,7.03-25.04,2.36-37.63,1.43c-24.22-1.78-48.79-7.84-73.03-3.03-2.99.59-5.94,1.37-8.84,2.3-1.83.59-1.05,3.49.8,2.89,24.09-7.8,49.62-2.24,74.11.22,12.73,1.28,25.39,1.41,38.12,0s25.54-3.99,38.19-6.6,25.46-5.16,38.35-6.88,25.77-2.85,38.69-3.77c25.86-1.84,51.8-2.81,77.58-5.77,12.75-1.47,25.48-3.38,38-6.2,5.35-1.2,10.78-2.8,15.16-6.24,3.84-3.02,6.49-7.7,6.56-12.65.03-2.34-.6-4.66-1.88-6.62-1.05-1.61-3.65-.11-2.59,1.51h0Z"/>
  <path d="M1111.18,264.14c1.93,0,1.93-3,0-3s-1.93,3,0,3h0Z"/>
  <path d="M1110.96,260.52c-16.59,12.22-34.84,21.94-54.11,29.21s-38.42,12.02-58.18,15.72c-20.06,3.75-40.32,6.26-60.6,8.54-22.18,2.49-44.4,4.7-66.64,6.63-22.24,1.93-44.5,3.58-66.79,4.95-2.81.17-5.61.34-8.42.5-1.92.11-1.93,3.11,0,3,22.45-1.31,44.89-2.9,67.3-4.78s44.8-4.04,67.15-6.49c20.55-2.25,41.11-4.64,61.49-8.15s39.83-8,58.99-14.68c19.38-6.75,37.95-15.73,54.9-27.32,2.16-1.48,4.3-3,6.41-4.55,1.54-1.13.04-3.74-1.51-2.59h0Z"/>
  <path d="M1053.95,291.91c-8.92,17.39-24.86,29.26-41.99,37.87-8.89,4.47-18.16,8.14-27.52,11.52-10.87,3.92-21.84,7.62-32.86,11.08-12.15,3.82-24.49,7.17-37.08,9.2s-25.94,2.66-38.95,3.18-26.58,1.05-39.86,1.57-26.19,1.33-39.27.89c-6.44-.22-12.86-.81-19.21-1.91s-12.08-2.47-18.06-3.95c-11.83-2.93-23.64-6.15-35.78-7.47-3.05-.33-6.1-.53-9.17-.59-.61-.01-1.33.47-1.45,1.1-.34,1.84-.68,3.68-1.02,5.51s2.54,2.7,2.89.8.68-3.68,1.02-5.51l-1.45,1.1c25.16.46,48.7,11.2,73.65,13.41,13.09,1.16,26.26.47,39.36-.04s26.95-1.06,40.42-1.59,26.44-.89,39.57-2.47c12.77-1.53,25.3-4.41,37.63-8.03s23.29-7.39,34.82-11.4c9.52-3.31,18.97-6.85,28.13-11.07,17.51-8.05,34.45-19,45.15-35.43,1.32-2.02,2.52-4.11,3.62-6.25.88-1.71-1.71-3.23-2.59-1.51h0Z"/>
  <path d="M986.2,339.49c-4.45,10.32-11.13,19.58-19.54,27.04-9.12,8.08-20.14,13.47-31.6,17.41-11.38,3.91-23.16,6.8-34.97,9.09s-23.33,3.82-35.12,4.72c-23.59,1.81-47.38,1.01-70.82-2.17-23.57-3.19-46.81-8.77-69.33-16.42-22.57-7.67-44.4-17.45-65.16-29.15-2.59-1.46-5.16-2.95-7.71-4.46-1.4-.83-2.62.77-2.05,2.05.82,1.83,1.63,3.66,2.45,5.5s3.37.24,2.59-1.51-1.63-3.66-2.45-5.5l-2.05,2.05c20.83,12.36,42.8,22.79,65.56,31.09,22.62,8.25,46.02,14.39,69.81,18.14,23.65,3.73,47.68,5.14,71.59,3.87,24.08-1.28,48.11-5.2,71.23-12.1,11.92-3.56,23.76-8.17,33.91-15.5,9.19-6.64,16.93-15.24,22.52-25.11,1.38-2.44,2.62-4.95,3.73-7.53.76-1.75-1.83-3.28-2.59-1.51h0Z"/>
  <path d="M917.67,390.91c-7.24,17.53-22.97,29.61-39.81,37.28-8.88,4.05-18.24,6.94-27.75,9.07-11.32,2.54-22.86,4.06-34.46,4.58-23.18,1.03-46.5-1.93-68.66-8.81-11.55-3.58-22.64-8.37-33.52-13.61-11.38-5.49-22.65-11.21-33.96-16.84-22.91-11.4-45.81-22.8-68.72-34.2-2.83-1.41-5.65-2.81-8.48-4.22-1.72-.86-3.24,1.73-1.51,2.59,23.35,11.62,46.7,23.24,70.06,34.87,11.54,5.74,23.06,11.51,34.61,17.22s22.5,10.86,34.3,14.97c22.15,7.71,45.68,11.48,69.12,11.22,11.87-.13,23.73-1.3,35.39-3.5,10.09-1.9,20.06-4.55,29.6-8.39,17.54-7.05,34.43-18.24,43.73-35.18,1.11-2.02,2.08-4.12,2.96-6.25.74-1.78-2.16-2.56-2.89-.8h0Z"/>
  <path d="M761.64,433.43c-7.13,4.74-14.32,9.5-22.24,12.82-7.42,3.11-15.36,5.12-23.36,5.92s-16.31.47-24.29-1.11-16.01-4.61-23.45-8.36-14.77-8.34-21.91-12.9c-7.79-4.97-15.56-9.96-23.35-14.94-15.75-10.07-31.49-20.15-47.24-30.22-7.84-5.02-15.68-10.03-23.52-15.05-2.97-1.9-6.99-5.25-10.74-3.46-2.49,1.18-2.61,4.76-.69,6.54.96.89,2.33,1.01,3.42.28,1.59-1.08.09-3.68-1.51-2.59-.33.22-.09.02.04.09.38.24,0-.04-.05-.18-.12-.33-.34-.73-.2-1.1.51-1.32,3.13-.1,3.87.29,3.83,2.03,7.42,4.68,11.07,7.01,7.49,4.79,14.98,9.58,22.47,14.37,15.05,9.63,30.09,19.25,45.14,28.88,7.42,4.75,14.83,9.52,22.27,14.24,6.83,4.34,13.76,8.57,21.04,12.12s14.7,6.3,22.55,7.86c7.54,1.5,15.28,1.98,22.94,1.41s15.4-2.17,22.69-4.81,14.57-6.7,21.33-11.08c1.76-1.14,3.5-2.3,5.24-3.45,1.6-1.06.1-3.66-1.51-2.59h0Z"/>
  <path d="M11.18,203.67l-6.61-.25.4,2.95c5.12-.82,10.34-.22,15.4.7s10.16,2.04,15.25,2.98c10.2,1.88,20.45,3.46,30.74,4.75,20.64,2.58,41.43,3.94,62.23,4.06,11.7.07,23.4-.26,35.08-.96,1.92-.12,1.93-3.12,0-3-20.93,1.27-41.92,1.29-62.85.06-20.87-1.23-41.67-3.7-62.25-7.41-5.74-1.04-11.43-2.28-17.17-3.33s-11.46-1.66-17.24-.74c-1.73.28-1.22,2.88.4,2.95l6.61.25c1.93.07,1.93-2.93,0-3h0Z"/>
  <path d="M52.87,219.49l-14.68-3.07c-4.63-.97-9.3-1.83-13.86-3.06-8.26-2.23-15.73-6.46-21.76-12.54-1.36-1.37-3.48.75-2.12,2.12,6.14,6.19,13.78,10.66,22.16,13.06,4.7,1.34,9.53,2.22,14.3,3.22l15.17,3.17c1.88.39,2.69-2.5.8-2.89h0Z"/>
  <path d="M245.09,203.34c7.13-5.07,15.6-11.07,24.86-8.98,7.91,1.78,11.14,9.32,12.11,16.65.6,4.51.5,9.08.49,13.63,0,1.93,2.99,1.93,3,0,.03-8.26.36-17.38-3.82-24.82-2.02-3.6-5.19-6.39-9.09-7.79-4.39-1.58-9.4-1.26-13.8.13-5.63,1.79-10.51,5.21-15.28,8.6-1.56,1.11-.06,3.71,1.51,2.59h0Z"/>
  <path d="M242.46,201.4c2.47,2.59,3.8,5.96,5.23,9.19s2.93,6.03,5.28,8.49c4.34,4.56,10.49,7.24,16.74,7.65,3.51.23,7.09-.32,10.34-1.68.75-.31,1.27-.99,1.05-1.85-.19-.71-1.1-1.36-1.85-1.05-5.43,2.26-11.61,2.09-17-.24-2.63-1.14-5.05-2.77-7.04-4.83-2.23-2.3-3.64-5.1-4.93-8.01-1.54-3.49-3.03-7-5.7-9.8-1.34-1.4-3.46.72-2.12,2.12h0Z"/>
  <path d="M267.01,209.68c3.57-1.6,3.85-7.51.24-9.23-1.71-.81-3.85-.68-5.43.4-.88.6-1.52,1.38-1.92,2.37-.38.94-.37,2.06-.08,3.02.69,2.25,2.94,4.17,5.38,3.92.41-.04.76-.14,1.06-.44.26-.26.46-.69.44-1.06-.03-.74-.66-1.59-1.5-1.5-.17.02-.34.02-.51.02-.04,0-.08-.01-.13,0-.15,0,.19.03.19.03-.08-.03-.2-.04-.29-.06-.08-.02-.16-.04-.24-.07-.04-.01-.08-.03-.12-.04-.14-.04-.08-.11.13.06-.13-.11-.33-.17-.48-.26-.07-.05-.14-.1-.21-.14-.13-.08.14.11.14.11-.02-.03-.07-.06-.1-.08-.14-.12-.27-.25-.39-.39-.05-.06-.1-.14-.16-.2,0,0,.18.26.11.13-.02-.04-.05-.07-.07-.1-.1-.15-.19-.31-.28-.48-.02-.03-.03-.09-.05-.11,0,0,.11.31.07.16-.03-.09-.07-.18-.1-.28-.02-.08-.05-.16-.07-.24-.02-.07-.07-.4-.03-.13s0-.03,0-.09c0-.08,0-.17,0-.25s.01-.17.02-.25c0-.15-.03.2-.03.19.02-.04.02-.12.03-.17.04-.16.1-.3.14-.46,0-.01-.15.31-.08.19.02-.03.03-.07.05-.1.04-.08.08-.15.13-.22.04-.06.08-.12.12-.18.1-.15-.22.26-.1.13.03-.03.05-.06.07-.08.11-.12.22-.23.34-.33.03-.02.06-.04.08-.07.01-.01-.29.2-.16.12.06-.04.12-.09.18-.13.13-.09.28-.17.42-.24.03-.02.07-.03.1-.05.13-.07-.21.08-.19.08.07-.02.14-.05.21-.08.15-.05.31-.1.47-.13.08-.02.18-.02.26-.05.02,0-.37.04-.21.03.04,0,.07,0,.11-.01.16-.01.32-.02.48-.01.07,0,.15,0,.22.01.04,0,.07.01.11.01.02,0-.37-.07-.22-.03s.31.06.46.11c.07.02.14.05.21.07.23.08-.31-.15-.09-.04.14.08.28.15.41.24.26.17-.22-.2-.04-.03.05.05.11.1.16.15s.1.11.15.16c.16.16-.2-.3-.03-.04.08.12.16.25.22.38.03.06.14.3.03.05s0,.03.03.1c.05.14.08.28.11.43,0,.04.01.07.02.11.04.15-.03-.24-.03-.22,0,.09.02.17.02.26.01.19,0,.37,0,.56,0,.04,0,.07-.01.11,0,.18.06-.35.02-.18-.02.08-.03.17-.05.26-.04.17-.08.34-.14.5-.01.03-.03.07-.04.1-.05.17.15-.31.07-.15-.04.08-.07.16-.11.23-.08.15-.17.29-.27.44-.03.04-.12.16.03-.03.16-.21.02-.03-.02.02-.06.06-.12.13-.18.19s-.13.11-.19.17c-.17.15.3-.2.04-.04-.16.1-.32.19-.49.27-.72.32-.94,1.42-.54,2.05.48.74,1.28.88,2.05.54h0Z"/>
  <path d="M248.47,193.01c7.9-3.12,17.01-6.68,25.53-3.94,7.53,2.42,12.31,9.64,14.08,17.03,1.19,4.96,1.18,10.1.71,15.15-.18,1.92,2.82,1.91,3,0,.84-9.12-.03-18.99-5.63-26.59-2.36-3.21-5.4-5.96-9.06-7.59-4.32-1.93-9.03-2.27-13.67-1.63-5.46.74-10.65,2.68-15.75,4.69-1.78.7-1,3.6.8,2.89h0Z"/>
  <path d="M368.65,200.92c1.93,0,1.93-3,0-3s-1.93,3,0,3h0Z"/>
  <path d="M367.42,200.56c13.15.82,26.39-.11,39.29-2.77,12.49-2.58,24.51-6.9,36.18-11.99s23.55-11.21,35.19-17.09c12.26-6.19,24.52-12.38,36.78-18.57,24.52-12.38,49.04-24.76,73.56-37.14s48.61-24.59,72.95-36.81c23.58-11.84,47.32-23.45,71.78-33.39,23.59-9.59,47.85-17.39,72.62-23.33,24.4-5.85,49.2-9.95,74.15-12.59s50.28-3.84,75.49-3.89c25.37-.06,50.73,1.02,76.03,2.94,25.31,1.91,50.56,4.66,75.72,7.95,6.1.8,12.19,1.63,18.27,2.49l-1.1-1.45c-.63,9.25-9.78,14.28-17.63,16.87-5.08,1.67-10.32,2.52-15.59,3.32-6.79,1.03-13.6,1.9-20.43,2.64-27.55,2.96-55.28,3.75-82.97,4.05-27.34.31-54.69.13-82.02,1.16-25.49.96-50.99,2.97-76.16,7.22-25.11,4.25-49.87,10.83-73.34,20.8-2.91,1.23-5.79,2.52-8.65,3.86-1.75.82-.23,3.4,1.51,2.59,23.41-10.94,48.36-18.23,73.72-23.01,25.41-4.79,51.22-7.08,77.03-8.22,27.32-1.21,54.68-1.09,82.03-1.34,28.03-.25,56.09-.87,84-3.61,6.86-.67,13.7-1.48,20.52-2.43,5.78-.81,11.63-1.54,17.28-3,8.37-2.16,18.3-6.22,22.14-14.62.92-2,1.42-4.08,1.56-6.27.04-.58-.49-1.36-1.1-1.45-25.16-3.55-50.38-6.63-75.69-8.95-25.36-2.32-50.8-3.88-76.26-4.37s-50.52.08-75.7,2.03-49.9,5.22-74.48,10.18c-24.71,4.98-49.09,11.67-72.8,20.25s-48.74,19.94-72.38,31.51c-24.18,11.84-48.14,24.13-72.17,36.26-24.52,12.38-49.04,24.76-73.56,37.14s-48.76,24.81-73.27,36.95c-11.41,5.65-22.98,11.04-35.04,15.17s-25.3,7-38.4,7.87c-6.35.42-12.71.42-19.06.02-1.93-.12-1.92,2.88,0,3h0Z"/>
  <path d="M1086.36,36.7c-19.47,15.82-42.08,27-66.22,33.66-12.76,3.52-25.8,5.97-38.87,8.03s-26.88,3.75-40.37,5.17c-26.95,2.84-53.99,4.84-80.9,8.04-24.64,2.93-49.21,6.91-73.19,13.38-23.39,6.31-46.26,15.02-67.23,27.24-2.53,1.47-5.03,3-7.5,4.57-1.62,1.03-.12,3.63,1.51,2.59,20.58-13.1,43.23-22.56,66.59-29.42,23.69-6.95,48.06-11.33,72.52-14.46,26.89-3.44,53.92-5.49,80.88-8.19,26.63-2.67,53.46-5.74,79.52-12.04,12.57-3.04,24.9-7.02,36.67-12.39,11.13-5.07,21.73-11.3,31.58-18.55,2.42-1.78,4.79-3.62,7.12-5.51,1.5-1.22-.63-3.33-2.12-2.12h0Z"/>
  <path d="M1034.27,67.83c-4.09,17.17-21.07,26.52-36.36,32.3-9.96,3.76-20.3,6.62-30.54,9.49-11.53,3.23-23.14,6.18-34.82,8.84-23.38,5.34-46.99,9.38-70.75,12.62-11.81,1.61-23.64,3.2-35.33,5.57s-23.38,5.77-34.75,9.76c-11.27,3.95-22.36,8.39-33.48,12.75s-23.08,9.06-34.61,13.59c-2.77,1.09-5.54,2.17-8.31,3.26-1.78.7-1,3.6.8,2.89,11.61-4.56,23.23-9.12,34.84-13.68s22.8-9.06,34.31-13.31c11.29-4.17,22.73-7.96,34.45-10.72s23.73-4.58,35.69-6.23c11.96-1.65,23.93-3.26,35.84-5.26s23.89-4.32,35.74-6.92c11.86-2.6,23.65-5.49,35.36-8.66,10.84-2.94,21.73-5.96,32.35-9.64,15.64-5.43,33.48-13.76,40.47-29.9.83-1.92,1.5-3.9,1.99-5.94.45-1.88-2.44-2.68-2.89-.8h0Z"/>
  <path d="M987.88,109.31l-3.72-6.12c-.74-1.22-2.87-.78-2.8.76.45,8.97-6.64,15.79-13.51,20.44-8.1,5.48-17.25,9.71-26.27,13.42-18.79,7.74-38.57,12.74-58.45,16.71-20.09,4.02-40.37,7.01-60.52,10.71-21.33,3.92-42.39,9-63.11,15.42-21.29,6.6-42.18,14.46-62.71,23.16-2.54,1.08-5.08,2.17-7.61,3.27-1.77.77-.24,3.36,1.51,2.59,20.7-9.03,41.79-17.2,63.28-24.13s42.53-12.31,64.29-16.46c20.41-3.89,40.98-6.9,61.38-10.84s40.07-8.65,59.14-16.11c9.42-3.69,18.71-7.94,27.39-13.15,7.27-4.36,14.97-10.41,17.45-18.89.58-1.99.81-4.08.71-6.15l-2.8.76,3.72,6.12c1,1.65,3.6.14,2.59-1.51h0Z"/>
  <path d="M916.43,149.69c-9.41,11.48-24.11,16.23-37.95,19.94-15.44,4.13-31.03,7.7-46.59,11.31s-31.26,7.29-46.74,11.52c-15.32,4.19-30.5,8.95-45.26,14.81-14.66,5.82-28.91,12.72-42.28,21.12-1.68,1.06-3.35,2.14-5.01,3.24s-.1,3.66,1.51,2.59c13.23-8.81,27.4-16.14,42.07-22.23,14.72-6.11,29.9-11.06,45.23-15.38s31.04-8.07,46.66-11.71,31.39-7.23,46.98-11.28c14.02-3.64,29-7.68,39.83-17.87,1.31-1.23,2.54-2.56,3.68-3.95,1.21-1.48-.9-3.62-2.12-2.12h0Z"/>
  <path d="M825.9,182.54c-6.07,14.38-22.99,19.38-36.38,24.34-18.67,6.93-37.17,14.29-55.5,22.07-10.3,4.37-20.54,8.88-30.72,13.51-1.75.8-.23,3.39,1.51,2.59,18.4-8.38,37-16.33,55.77-23.83,9.34-3.73,18.71-7.35,28.13-10.86,7.63-2.84,15.43-5.44,22.62-9.3,7.22-3.88,13.88-9.3,17.14-17.02.32-.75.22-1.6-.54-2.05-.63-.37-1.74-.21-2.05.54h0Z"/>
</svg>