<?xml version="1.0" encoding="UTF-8"?>
<svg id="Layer_2" data-name="Layer 2" xmlns="http://www.w3.org/2000/svg" viewBox="0 0 1100.51 1024">
  <path d="M121.25,327.35c1.77-.4,3.55-.71,5.35-.95l-1.99.27c6.11-.78,12.28-.77,18.43-.63,2.96.07,5.92.16,8.87.21,3.24.05,6.38.43,9.6.87l-1.99-.27c20.58,2.78,40.94,7.08,61.62,9.05,10.12.96,20.31,1.32,30.46.61,4.96-.35,9.97-1.77,14.53-3.7,2.19-.92,4.28-1.98,6.21-3.37,2.11-1.51,3.97-3.33,5.97-4.98.45-.37.89-.73,1.35-1.09.15-.12.3-.24.45-.36.71-.56-1.45,1.1-.46.35.91-.69,1.84-1.37,2.77-2.03,1.86-1.31,3.76-2.55,5.71-3.73,3.85-2.32,7.86-4.35,12-6.1l-1.79.76c7.74-3.24,15.87-5.44,24.18-6.56l-1.99.27c8.44-1.1,16.98-1.09,25.42.03l-1.99-.27c8.58,1.17,16.96,3.47,24.95,6.83l-1.79-.76c2.3.98,4.56,2.03,6.78,3.17,1.09.56,2.17,1.14,3.24,1.74.51.29,1.01.58,1.52.87.53.31,1.25.94,1.84,1.11-.84-.24-1.24-1.02-.64-.44.22.21.45.41.69.61.8.68,1.66,1.33,2.49,1.96.98.74,2,1.41,3.03,2.07,1.15.74,2.33,1.44,3.45,2.22l.2.13c.64.49.52.39-.37-.29.01.08.75.59.74.59.66.53,1.31,1.06,1.96,1.61,2.14,1.82,4.19,3.74,6.19,5.71s3.6,3.84,5.31,5.9c3.45,4.18,7.01,8.25,10.7,12.22,14.51,15.57,31.01,29.39,49.05,40.71,9.92,6.22,20.34,11.65,31.11,16.25,1.93.83,3.66,1.34,5.78.76,1.74-.48,3.63-1.82,4.48-3.45.92-1.74,1.38-3.85.76-5.78-.56-1.72-1.7-3.74-3.45-4.48-17.12-7.32-33.3-16.74-48.11-28.03-.21-.16-.43-.33-.64-.49-.79-.61,1.55,1.21.4.31-.42-.33-.85-.66-1.27-.99-.95-.75-1.89-1.51-2.83-2.27-1.78-1.45-3.53-2.92-5.27-4.42-3.59-3.1-7.09-6.31-10.5-9.62-6.83-6.63-13.28-13.66-19.35-20.99-1.52-1.84-2.99-3.67-4.68-5.35s-3.55-3.47-5.4-5.13c-2.36-2.11-4.83-4.21-7.45-5.98-1.88-1.27-3.83-2.45-5.71-3.73-.93-.63.64.5.66.53-.13-.16-.39-.31-.56-.45-.43-.36-.82-.74-1.23-1.12-1.19-1.11-2.6-1.9-4-2.72-1.95-1.14-3.94-2.21-5.97-3.21-4.39-2.18-8.94-4.09-13.58-5.68-17.29-5.93-36.06-6.98-53.96-3.43-8.93,1.78-17.6,4.89-25.73,8.98-3.82,1.92-7.5,4.1-11.02,6.52-2.26,1.55-4.44,3.22-6.59,4.92-.86.68-1.7,1.37-2.53,2.08-.22.18-2.49,2.38-2.62,2.31-.01,0,1.62-1.15.55-.42-.23.15-.45.31-.68.46-.45.3-.9.58-1.36.85-1,.58-2.04,1.1-3.11,1.56l1.79-.76c-3.43,1.44-7.05,2.25-10.68,2.98l1.99-.27c-14.44,1.09-28.9,0-43.22-1.9l1.99.27c-12.01-1.62-23.94-3.77-35.91-5.66-6.54-1.03-13.09-1.97-19.66-2.75-2.82-.33-5.75-.17-8.59-.24s-5.84-.16-8.76-.18c-7.08-.04-14.22.36-21.15,1.92-3.83.86-6.44,5.5-5.24,9.23,1.3,4.02,5.12,6.16,9.23,5.24h0Z"/>
  <path d="M119.32,330c9.94-.29,19.88.22,29.74,1.54l-1.99-.27c16.58,2.25,32.76,6.81,48.19,13.28l-1.79-.76c14.58,6.15,28.72,13.82,41.47,23.21.69.5,1.37,1.01,2.04,1.53.22.17.45.34.67.51.07.05-1.32-1.03-.68-.53.39.3.77.6,1.16.91,1.47,1.16,2.92,2.35,4.35,3.56,2.83,2.39,5.59,4.87,8.29,7.41,5.5,5.18,10.73,10.64,15.86,16.18,11.79,12.75,22.81,26.25,33.82,39.67,11,13.41,21.87,26.92,32.98,40.24,5.59,6.71,11.24,13.36,16.99,19.94,1.47,1.68,2.96,3.34,4.43,5.03.63.73,1.23,1.49,1.83,2.24.32.4.63.8.95,1.19.2.25,1.24,1.6.48.61s.27.35.47.62c.26.35.52.69.78,1.04.6.82,1.19,1.64,1.77,2.47,1.11,1.61,2.17,3.26,3.14,4.96s1.85,3.49,2.63,5.31l-.76-1.79c.11.27.23.55.34.82.76,1.88,1.63,3.42,3.45,4.48,1.61.94,3.98,1.34,5.78.76s3.57-1.71,4.48-3.45,1.49-3.95.76-5.78c-2.23-5.53-5.09-10.56-8.63-15.36s-7.47-9.42-11.45-13.97c-7.81-8.94-15.45-18.04-23-27.2-14.95-18.13-29.59-36.51-44.82-54.4-13.79-16.22-28-32.4-44.81-45.6-17.49-13.74-37.35-24.37-58.24-31.97s-41.45-11.26-62.82-11.53c-2.62-.03-5.24,0-7.85.07-3.92.11-7.69,3.37-7.5,7.5s3.3,7.62,7.5,7.5h0Z"/>
  <path d="M459.89,459.33c3.92,0,7.68-3.45,7.5-7.5s-3.3-7.5-7.5-7.5c-3.92,0-7.68,3.45-7.5,7.5s3.3,7.5,7.5,7.5h0Z"/>
  <path d="M452.14,448.48c-6.12,25.6-10.23,51.61-13.56,77.7-3.27,25.56-5.72,51.22-8.46,76.84-1.55,14.45-3.19,28.89-5.13,43.29l.27-1.99c-2.3,17.06-5.06,34.04-8.41,50.93s-7.3,34.02-11.46,50.91-8.58,33.73-13,50.57-8.97,34.2-13.46,51.3c-4.49,17.1-8.97,34.2-13.46,51.3l-1.71,6.5c-.83,3.17.54,6.84,3.45,8.47,11.28,6.34,25.29,4.29,35.79-2.7,5.42-3.61,9.85-8.17,13.36-13.66s6.09-12.07,7.86-18.52c1.67-6.09,2.7-12.34,3.63-18.59,1.06-7.09,2.08-14.19,3.11-21.28,2.16-14.75,4.31-29.51,6.47-44.26,2.42-16.57,4.84-33.14,7.26-49.7.3-2.08.35-3.89-.76-5.78-.91-1.56-2.69-3.04-4.48-3.45-1.92-.44-4.07-.34-5.78.76-1.52.98-3.17,2.6-3.45,4.48-2.84,19.45-5.69,38.91-8.53,58.36s-5.53,38.35-8.41,57.51c-1.38,9.17-3.02,18.41-6.63,27l.76-1.79c-1.08,2.53-2.33,5-3.79,7.33-.37.59-.75,1.17-1.14,1.74s-1.86,2.33-.19.35c-.77.91-1.51,1.82-2.33,2.68s-1.7,1.68-2.61,2.45c-.51.43-2.22,1.62-.17.17-.44.31-.87.64-1.31.94-2.02,1.38-4.17,2.55-6.42,3.5l1.79-.76c-2.49,1.02-5.06,1.75-7.73,2.12l1.99-.27c-2.26.29-4.53.3-6.79,0l1.99.27c-1.92-.28-3.77-.79-5.56-1.54l1.79.76c-.75-.33-1.47-.69-2.18-1.09l3.45,8.47c6.7-25.53,13.4-51.05,20.1-76.58s13.36-50.41,19.7-75.7c6.29-25.11,12.11-50.35,16.59-75.86s7.6-51.54,10.38-77.44,5.13-50.64,8.32-75.89c.39-3.1.79-6.2,1.21-9.3l-.27,1.99c2.42-17.94,5.28-35.82,8.99-53.54,1.05-5.02,2.17-10.03,3.37-15.02.91-3.81-1.2-8.31-5.24-9.23s-8.25,1.16-9.23,5.24h0Z"/>
  <path d="M424.93,887.14c.25-.44.52-.86.81-1.28.35-.52.98-.99-.48.59.15-.16.28-.34.42-.51.65-.75,1.35-1.45,2.1-2.1.27-.23,1.71-1.38.53-.47s.35-.24.6-.41c.84-.58,1.7-1.13,2.57-1.67,3.53-2.16,7.23-4.06,10.52-6.59,4.53-3.47,8.09-7.67,10.35-12.97s3.51-10.58,4.74-16.08c5.09-22.78,9.4-45.73,12.93-68.8,2.07-13.57,3.89-27.18,5.45-40.82.2-1.78-.98-4.09-2.2-5.3-1.3-1.3-3.44-2.28-5.3-2.2s-3.95.72-5.3,2.2c-1.43,1.56-1.96,3.21-2.2,5.3-.78,6.81-1.62,13.61-2.54,20.41l.27-1.99c-3.67,27.26-8.42,54.36-14.26,81.24-1.47,6.77-2.65,13.83-5.3,20.27l.76-1.79c-.74,1.74-1.59,3.42-2.65,4.99-.22.33-.49.64-.7.98,1.15-1.86.44-.59.01-.11-.5.56-1.03,1.08-1.58,1.59-.29.27-.59.53-.9.78-1.25,1.04,1.39-1.01.31-.23-.6.44-1.2.87-1.82,1.28-1.3.86-2.64,1.66-3.98,2.44-6.16,3.59-12.41,7.32-16.1,13.68-1.97,3.39-.9,8.37,2.69,10.26s8.16.93,10.26-2.69h0Z"/>
  <path d="M456.68,836.24c7.7-3.68,15.66-7.71,21.45-14.16,3.63-4.05,6.07-8.6,7.93-13.69,1.63-4.47,2.74-9.14,3.91-13.75,4.93-19.25,8.84-38.76,11.71-58.42,1.68-11.54,3.06-23.11,4.06-34.73.16-1.82-.95-4.06-2.2-5.3s-3.44-2.28-5.3-2.2c-4.35.2-7.14,3.3-7.5,7.5-.77,8.85-1.74,17.69-2.92,26.49l.27-1.99c-2.89,21.46-7,42.74-12.34,63.72-1.43,5.62-2.73,11.38-4.96,16.75l.76-1.79c-.58,1.35-1.22,2.68-1.97,3.94-.39.66-.81,1.31-1.26,1.94-.34.47-1.04,1.04.35-.42-.22.23-.41.51-.62.75-.84.99-1.75,1.92-2.71,2.8-.53.48-1.07.95-1.63,1.4-.2.16-.41.32-.61.49,1.79-1.47.67-.52.26-.23-4.41,3.2-9.34,5.59-14.24,7.94-3.55,1.7-4.76,7.05-2.69,10.26,2.35,3.64,6.47,4.51,10.26,2.69h0Z"/>
  <path d="M493.38,783.88c15.62-6.71,26.51-21.02,32.87-36.34,7.3-17.59,8.16-37.33,8.15-56.14,0-11.21-.51-22.41-1.5-33.57-.18-2.02-.72-3.82-2.2-5.3-1.3-1.3-3.44-2.28-5.3-2.2-3.77.17-7.87,3.31-7.5,7.5,1.46,16.49,2,33.15,1.13,49.69-.23,4.46-.61,8.92-1.2,13.35l.27-1.99c-1.15,8.5-3.09,16.91-6.39,24.85l.76-1.79c-1.43,3.39-3.1,6.69-5.04,9.82-.93,1.51-1.93,2.99-2.98,4.42-.33.45-1.55,1.92.02,0-.24.29-.47.6-.71.89-.6.73-1.21,1.45-1.84,2.16-1.22,1.36-2.5,2.66-3.84,3.89-.65.59-1.31,1.17-1.98,1.73-.29.24-.58.47-.87.71-1,.81,1.6-1.19.03-.03-2.93,2.16-6.09,3.97-9.44,5.41-1.6.69-3.01,2.88-3.45,4.48-.49,1.8-.27,4.19.76,5.78s2.57,3.01,4.48,3.45c2.1.48,3.82.09,5.78-.76h0Z"/>
  <path d="M532.34,706.53c-4.91.22-9.16,2.62-11.77,6.82-1.59,2.56-1.2,6.02.59,8.33,1.97,2.55,4.81,3.19,7.88,2.69,14.57-2.4,27.01-13.64,32.93-26.86,6.86-15.32,7.43-32.74,3.21-48.88-2.19-8.36-5.5-16.43-6.68-25.03l.27,1.99c-.25-1.94-.39-3.89-.38-5.85,0-3.92-3.46-7.68-7.5-7.5s-7.49,3.3-7.5,7.5c-.03,14.48,7.1,27.51,9.09,41.65l-.27-1.99c.84,6.26.9,12.59.08,18.86l.27-1.99c-.69,4.98-1.93,9.84-3.87,14.48l.76-1.79c-1.07,2.49-2.31,4.91-3.78,7.19-.36.56-.74,1.12-1.13,1.67-.19.26-.38.52-.57.78-.5.69,1.25-1.55.34-.45-.78.95-1.58,1.88-2.43,2.76s-1.74,1.73-2.67,2.53c-.44.38-.89.74-1.34,1.11-.7.57,1.46-1.07.44-.35-.26.19-.52.38-.78.56-2.05,1.44-4.24,2.65-6.54,3.65l1.79-.76c-2.49,1.05-5.06,1.81-7.73,2.25l8.47,11.02c.55-.89-.51.51-.52.6.03-.22,1.24-1.07.06-.19-.99.75-.23.19.01.05.27-.16.55-.29.84-.42l-1.79.76c.48-.18.95-.3,1.45-.39l-1.99.27c.25-.04.5-.05.75-.06,3.91-.18,7.69-3.32,7.5-7.5-.18-3.91-3.3-7.69-7.5-7.5h0Z"/>
  <path d="M558.03,663.69c4.5,2.45,9.81,2.11,13.87-1.03,3.85-2.97,4.84-7.41,5.32-11.98.7-6.65,1.3-13.31,1.81-19.97,1.05-13.51,1.59-27.12.49-40.65-.66-8.1-1.83-16.18-3.74-24.08-.74-3.07-4.04-5.65-7.23-5.51-1.33.06-2.61.4-3.79,1.02-1.44.76-3.2,2.82-3.45,4.48-.23,1.54-.46,3.08-.7,4.62-.31,2.07-.34,3.9.76,5.78.91,1.56,2.69,3.04,4.48,3.45,1.92.44,4.07.34,5.78-.76,1.53-.99,3.16-2.6,3.45-4.48.23-1.54.46-3.08.7-4.62h-14.46c1.12,4.64,1.98,9.32,2.61,14.05l-.27-1.99c2.38,18.15,1.46,36.5-.13,54.68-.44,5.03-.79,10.11-1.45,15.12l.27-1.99c-.15,1-.36,1.97-.74,2.91l.76-1.79c-.1.22-.22.43-.33.65-.52,1.06,1.03-1.04.41-.49s1.44-.85.71-.5c-.26.12-.5.28-.77.4l1.79-.76c-.44.16-.87.28-1.34.35l1.99-.27c-.47.04-.92.03-1.39-.03l1.99.27c-.35-.07-.66-.16-1-.28l1.79.76c-.22-.09-.42-.19-.62-.31-3.44-1.88-8.33-.96-10.26,2.69s-.99,8.26,2.69,10.26h0Z"/>
  <path d="M372.04,519.37l.39-.06-1.99.27c.24-.02.48-.02.72.01l-1.99-.27c.32.06.6.13.91.24l-1.79-.76c.26.12.49.27.74.4.71.37-1.72-1.43-1.14-.87l-1.93-3.31c4.33,13.49,10.15,26.61,17.84,38.53s16.84,22.44,27.51,31.49c3.35,2.85,6.83,5.55,10.4,8.13.86.62,1.72,1.23,2.59,1.83.16.11.33.23.49.34.59.4-.95-1.03-.52-.32.18.31,1.5,1.79.73.8s.22.36.39.63c.29.46.57.92.83,1.4.51.92.95,1.87,1.39,2.82.74,1.61,2.84,2.99,4.48,3.45,1.8.49,4.19.27,5.78-.76s3.01-2.57,3.45-4.48c.47-2.07.13-3.85-.76-5.78-1.65-3.58-3.78-7.35-6.94-9.8-1.4-1.08-2.89-2.06-4.33-3.1-.53-.38-1.06-.77-1.59-1.16-.31-.23-.63-.47-.94-.71-.21-.16-1.61-1.23-.48-.36s.02.02-.16-.13c-.31-.24-.61-.48-.91-.72-.6-.48-1.2-.97-1.8-1.46-1.18-.98-2.35-1.97-3.5-2.99-2.18-1.92-4.3-3.91-6.35-5.97s-3.99-4.12-5.89-6.28c-.9-1.02-1.79-2.06-2.66-3.11-.39-.48-.79-.96-1.17-1.44-.41-.51-2.27-2.98-.66-.82-3.4-4.57-6.63-9.23-9.52-14.15-3.3-5.63-6.2-11.49-8.74-17.5l.76,1.79c-1.47-3.5-2.82-7.05-4.05-10.64-.83-2.41-1.38-5.16-3.27-6.99-1.2-1.16-2.68-1.96-4.26-2.48-2.06-.69-3.9-.5-6-.2-1.73.25-3.65,2.02-4.48,3.45-.94,1.61-1.34,3.98-.76,5.78s1.71,3.57,3.45,4.48c1.91,1.01,3.67,1.06,5.78.76h0Z"/>
  <path d="M486.71,403.21c.48.34.96.69,1.43,1.04.42.32,1.96,1.7.24.16.76.68,1.61,1.28,2.4,1.93,1.69,1.39,3.34,2.84,4.96,4.31,3.3,3,6.47,6.15,9.61,9.31s6.24,6.34,9.41,9.46c1.61,1.58,3.24,3.15,4.9,4.68.79.73,1.54,1.58,2.36,2.25-.78-1.04-.95-1.24-.53-.61.13.21.25.42.36.64.23.43.42.88.62,1.32l-.76-1.79c.72,1.72,1.33,3.5,2.2,5.15.99,1.88,2.5,3.42,3.91,5,2.24,2.51,4.48,5.03,6.7,7.55,4.56,5.16,9.1,10.34,13.6,15.57,8.77,10.19,17.37,20.53,25.66,31.12.5.64,1.01,1.29,1.51,1.93.27.35.55.7.82,1.06-.08-.1-1.11-1.45-.36-.46,1.09,1.41,2.17,2.83,3.25,4.25,2.02,2.67,4.02,5.35,5.99,8.06,4,5.49,7.91,11.04,11.7,16.68s7.45,11.34,10.98,17.13c.79,1.3,1.58,2.6,2.36,3.9,1.2,2.01,3,3.85,4.76,5.42,1.19,1.07-.67-1.4-.07-.07.15.32.34.63.51.94.38.69.76,1.38,1.13,2.07.83,1.51,1.66,3.01,2.49,4.51,6.93,12.52,13.99,25.01,19.59,38.2l-.76-1.79c4.39,10.41,7.8,21.23,9.33,32.44l-.27-1.99c.53,4.03.84,8.08.87,12.15.02,2.09-.14,4.19.04,6.27.22,2.6.64,5.2,1.38,7.71,2.72,9.23,8.54,17.18,13.48,25.31,9.51,15.65,18.66,31.52,27.56,47.54s17.24,31.6,25.63,47.53c8.4,15.95,16.7,31.95,25.05,47.93,4.25,8.13,8.51,16.25,12.79,24.35s7.69,15.91,11.26,23.96c.86,1.93,1.7,3.86,2.52,5.81l-.76-1.79c3.55,8.43,6.64,17.02,9.01,25.86,2.3,8.59,4.57,17.21,5.77,26.04l-.27-1.99c.84,6.4,1.1,12.87.24,19.29l.27-1.99c-.56,3.92-1.53,7.75-2.98,11.43l7.23-5.51h-5.08l5.3,2.2c-2.94-2.95-5.77-6.01-8.47-9.18-1.29-1.52-2.55-3.06-3.79-4.63-.17-.22-.36-.44-.53-.67.06.08,1.13,1.48.39.51-.26-.34-.52-.68-.77-1.02-.64-.85-1.27-1.7-1.89-2.57-4.76-6.59-9.01-13.54-12.77-20.74-2.16-4.15-4.16-8.39-6-12.69-.69-1.6-2.88-3.01-4.48-3.45-1.8-.49-4.19-.27-5.78.76s-3.01,2.57-3.45,4.48c-.48,2.1-.08,3.82.76,5.78,7.58,17.67,17.9,34.11,30.82,48.39,1.73,1.91,3.46,3.89,5.36,5.63,1.66,1.53,3.59,2.2,5.83,2.2h4.55c1.67,0,3.24-.6,4.54-1.61,1.38-1.07,2.04-2.26,2.69-3.9,8.04-20.4,1.8-43.05-3.7-63.25-2.94-10.78-7.26-21.18-11.8-31.37-2.16-4.85-4.41-9.66-6.65-14.47s-4.8-9.77-7.34-14.6c-10.25-19.44-20.34-38.96-30.55-58.42s-20.48-38.78-31.16-57.93-22.35-38.67-33.98-57.76c-1.4-2.3-2.65-4.71-3.7-7.19l.76,1.79c-1.13-2.73-1.99-5.54-2.41-8.46l.27,1.99c-.52-4.05-.1-8.21-.33-12.29-.26-4.54-.84-9.08-1.63-13.56-1.38-7.81-3.66-15.44-6.49-22.85-5.96-15.57-14.06-30.12-22.12-44.67-2.21-3.99-4.11-8.52-7.35-11.77l-1.21-1.21c-.22-.22-1.47-1.63-.74-.65s-.28-.58-.41-.79c-.27-.46-.55-.91-.82-1.37-1.14-1.88-2.29-3.75-3.45-5.62-4.53-7.26-9.27-14.39-14.18-21.39-10.02-14.3-20.74-28.1-31.85-41.56s-22.31-26.24-33.78-39.09c-.31-.34-.61-.69-.92-1.03-.18-.19-1.34-1.56-.45-.45s-.03-.18-.19-.48c-.23-.43-.42-.88-.62-1.32l.76,1.79c-.81-1.94-1.46-4-2.56-5.79-1.23-1.98-2.83-3.43-4.51-4.99-2.85-2.65-5.62-5.4-8.37-8.16-5.27-5.31-10.46-10.72-16.03-15.72-3.58-3.22-7.34-6.24-11.25-9.06-1.49-1.07-4.08-1.22-5.78-.76s-3.63,1.82-4.48,3.45c-.92,1.74-1.38,3.85-.76,5.78s1.78,3.28,3.45,4.48h0Z"/>
  <path d="M550.89,692.6c5.49,21.9,9.72,44.09,13.14,66.4.97,6.32,1.87,12.65,2.72,18.99l-.27-1.99c2.53,18.85,4.59,37.76,6.5,56.68.96,9.48,1.87,18.97,2.78,28.46.46,4.76.92,9.53,1.38,14.29.23,2.41.54,4.83.58,7.25s.16,4.61.36,6.9c.47,5.23,1.27,10.45,2.47,15.56.26,1.12.54,2.23.84,3.33s.56,2.3,1.15,3.22c1.2,1.86,2.76,2.8,4.81,3.58,1.92.73,4.13,1.08,6.18.93,9.37-.68,15.5-8.42,18.33-16.77,1.46-4.32,1.65-9.11,2.03-13.63.41-4.79.65-9.59.75-14.4.21-9.46-.1-18.91-.51-28.36-.4-9.34-.9-18.67-1.06-28.02-.04-2.37.08-4.77-.15-7.13s-.5-4.79-.79-7.18c-.63-5.11-1.36-10.22-2.09-15.32-.32-2.25-.64-4.51-.94-6.76l.27,1.99c-.68-5.08-.93-10.28-1.87-15.31-.85-4.58-1.84-9.14-2.96-13.67-2.18-8.77-4.88-17.41-8.27-25.78-.76-1.88-1.63-3.42-3.45-4.48-1.61-.94-3.98-1.34-5.78-.76s-3.57,1.71-4.48,3.45-1.5,3.95-.76,5.78c5.26,12.99,8.89,26.61,11.41,40.38l-.27-1.99c.93,10.12,2.56,20.16,3.92,30.23l-.27-1.99c.42,3.16.82,6.32,1.15,9.48s.29,6.34.35,9.53c.12,6.17.38,12.33.65,18.5.57,12.62,1.2,25.26.9,37.89-.17,7.37-.67,14.73-1.62,22.05l.27-1.99c-.32,1.82-.86,3.57-1.57,5.27l.76-1.79c-.39.88-.81,1.75-1.3,2.58-.27.46-.55.91-.86,1.35-.03.05-.38.49-.37.51-.05-.08,1.38-1.65.49-.66-.62.69-1.27,1.3-1.95,1.93-.57.52,1.48-1.01.81-.64-.21.12-.41.28-.61.4-.41.25-.85.46-1.29.66l1.79-.76c-.72.29-1.45.49-2.22.61l1.99-.27c-.8.1-1.59.09-2.39-.01l1.99.27c-.89-.14-1.73-.39-2.56-.74l5.24,5.24c-1.33-4.69-2.33-9.45-2.99-14.28l.27,1.99c-.43-3.32-.7-6.65-.79-10s-.46-6.76-.79-10.14c-.65-6.69-1.29-13.39-1.94-20.08-1.3-13.39-2.61-26.79-4.07-40.17-2.92-26.91-6.35-53.8-11.16-80.45-2.67-14.82-5.78-29.57-9.44-44.18-.95-3.81-5.43-6.47-9.23-5.24s-6.26,5.15-5.24,9.23h0Z"/>
  <path d="M615.31,768.54c2.1,20.78,3.25,41.65,3.44,62.53s-.57,41.61-2.27,62.34c-.96,11.74-2.23,23.46-3.8,35.13l.27-1.99c-1.15,8.51-2.45,17-3.91,25.47l13.71-1.79c-2.91-4.77-5.45-9.74-7.62-14.88l.76,1.79c-3.74-8.95-6.31-18.35-7.63-27.96l.27,1.99c-.27-2.04-.49-4.08-.65-6.13s-.73-3.83-2.2-5.3c-1.3-1.3-3.44-2.28-5.3-2.2-3.8.17-7.83,3.31-7.5,7.5,1.49,18.64,7.18,36.77,16.93,52.75,1.58,2.59,4.48,3.98,7.47,3.58,2.7-.36,5.74-2.48,6.24-5.37,4.22-24.46,7.19-49.14,8.81-73.91,1.58-24.2,1.88-48.49.89-72.72-.56-13.64-1.53-27.26-2.9-40.84-.21-2.04-.7-3.81-2.2-5.3-1.3-1.3-3.44-2.28-5.3-2.2-3.73.17-7.92,3.32-7.5,7.5h0Z"/>
  <path d="M641.25,773.5c3.98,17.27,7.05,34.73,9.42,52.29l-.27-1.99c2.34,17.44,3.99,34.96,5.14,52.51,1.15,17.48,1.8,34.98,2.18,52.49.21,9.84.33,19.69.39,29.53l13.98-3.79s-.04-.06-.05-.1l.76,1.79c-.07-.2-.1-.4-.13-.6l.27,1.99c-.21-1.81-.16-3.77.08-5.58l-.27,1.99c.01-.08.02-.16.05-.23l-.76,1.79-1.15,1.49-9.09,1.17h0c-.9-.89-1.79-1.79-2.69-2.69v.02c-.24-.6-.5-1.19-.75-1.79.01.04.02.08.02.12l-.27-1.99c.24,2.1.04,4.3,0,6.4l13.98-3.79c-2.23-3.39-4.34-6.98-5.94-10.71l.76,1.79c-.36-.86-.71-1.74-.86-2.66l.27,1.99c-.03-.23-.04-.45-.02-.68l-.27,1.99c.02-.09.04-.17.07-.26l-.76,1.79c-.26.54-1.86,2.09-2.39,2.37l-1.79.76s.1-.04.15-.05l-1.99.27c.1-.01.19-.01.29,0l-1.99-.27c.23.03.44.08.66.16l-1.79-.76c1.21.52.04.19-.53-.54.09.12.23.25.35.35.7.56-1.13-1.66-.64-.86s.9,1.52,1.25,2.36l-.76-1.79c1.05,2.6,1.66,5.37,2.03,8.14l-.27-1.99c.1.79.19,1.58.2,2.38l13.98-3.79c-8.13-13.66-15.51-27.78-21.7-42.43l.76,1.79c-6.13-14.58-11.08-29.67-14.29-45.16-.97-4.69-1.78-9.41-2.42-14.15l.27,1.99c-.19-1.45-.37-2.9-.54-4.35-.23-2.05-.68-3.79-2.2-5.3-1.3-1.3-3.44-2.28-5.3-2.2s-3.95.72-5.3,2.2c-1.26,1.37-2.42,3.37-2.2,5.3,1.79,15.7,5.17,31.12,10.15,46.12,4.78,14.4,10.83,28.4,17.72,41.91,3.78,7.42,7.84,14.69,12.1,21.85,1.64,2.75,5.32,4.47,8.47,3.45s5.55-3.83,5.51-7.23-.69-6.68-1.58-9.82c-1.19-4.2-3.25-8.95-7.32-11.1-3.41-1.8-7.68-1.73-10.53,1.12-2.36,2.37-2.73,5.65-2.04,8.77s2.37,6.03,3.88,8.76c1.14,2.06,2.33,4.09,3.62,6.06,1.77,2.69,5.22,4.5,8.47,3.45s5.43-3.82,5.51-7.23c.04-1.83.1-3.67.05-5.5,0-.3-.02-.6-.05-.9-.11-1.21-.23-1.95-.67-3.01-.59-1.4-1.64-2.98-3.09-3.61-1.6-.69-2.99-1.13-4.78-.89s-2.89.96-4.31,2.06c-2.37,1.84-2.36,5.49-2.42,8.22-.06,2.5,0,5.17,1.29,7.4,1.59,2.77,5.35,4.45,8.47,3.45s5.53-3.83,5.51-7.23c-.16-24.39-.65-48.78-2.03-73.14-1.41-25.05-3.8-50.05-7.6-74.85-2.1-13.7-4.66-27.32-7.77-40.82-.88-3.83-5.49-6.45-9.23-5.24-4,1.3-6.18,5.13-5.24,9.23h0Z"/>
  <path d="M596.25,675.76c9.67,16.85,19.31,33.72,28.97,50.59,9.65,16.86,19.32,33.72,29.03,50.55,9.58,16.6,19.19,33.18,29.49,49.34,10.15,15.93,21.24,31.23,31.8,46.89,10.02,14.85,19.58,30.1,27.1,46.39.92,2,1.81,4.02,2.67,6.05l-.76-1.79c1.18,2.8,2.29,5.64,3.33,8.49.68,1.87,1.68,3.45,3.45,4.48,1.61.94,3.98,1.34,5.78.76,3.61-1.17,6.68-5.28,5.24-9.23-6.49-17.79-15.56-34.43-25.72-50.37-10.46-16.4-21.97-32.09-32.77-48.26s-20.99-33.3-30.87-50.32c-10.1-17.41-20.11-34.88-30.11-52.34-9.99-17.44-19.96-34.88-29.95-52.32-1.24-2.16-2.48-4.32-3.72-6.48-1.95-3.4-6.88-4.87-10.26-2.69s-4.78,6.62-2.69,10.26h0Z"/>
  <path d="M377.6,548.48v1.15c-.04,1.03.18,2,.65,2.89.3.93.82,1.73,1.55,2.41.68.73,1.48,1.25,2.41,1.55.89.47,1.86.68,2.89.65l1.99-.27c1.27-.36,2.37-1,3.31-1.93l1.17-1.52c.68-1.17,1.02-2.43,1.02-3.79v-1.15c.04-1.03-.18-2-.65-2.89-.3-.93-.82-1.73-1.55-2.41-.68-.73-1.48-1.25-2.41-1.55-.89-.47-1.86-.68-2.89-.65l-1.99.27c-1.27.36-2.37,1-3.31,1.93l-1.17,1.52c-.68,1.17-1.02,2.43-1.02,3.79h0Z"/>
  <path d="M382.58,555.67c5.15,1.73,10.05-2.68,10.2-7.73.13-4.28-3.07-8.09-7.28-8.66-4.69-.63-8.4,2.6-9.86,6.83-.62,1.79-.74,3.82-1.05,5.69-1.46,8.6-3.16,17.16-5.06,25.67-3.82,17.11-8.42,34.03-13.38,50.84s-10.27,33.45-15.55,50.12-10.59,33.52-15.43,50.41c-4.81,16.79-9.2,33.71-12.74,50.81-.44,2.12-.86,4.24-1.28,6.37-.52,2.69-.07,5.3,1.93,7.3s4.57,2.36,7.3,1.93c17.02-2.66,32.62-15.15,39.63-30.8,1.13-2.53,2.18-5.1,2.94-7.76s1.18-5.45,1.55-8.23l-7.5,7.5c7.68-1,15.05-3.53,21.3-8.22s11.43-10.39,14.56-17.46c.98-2.21,1.84-4.43,2.54-6.74.61-2.02,1.19-4.05,2.01-6l-.76,1.79c.46-1.05,1.02-2.56,1.88-3.36-.04.03-1.29,1.43-.44.62.24-.22.45-.47.69-.7.22-.2.47-.51.73-.64l-.9.7c.21-.15.42-.3.64-.44,2.14-1.42,4.52-2.41,6.71-3.75,5.49-3.39,9.51-8.49,12.83-13.94,6.34-10.43,11.33-21.82,15.03-33.44,2.03-6.39,3.63-12.9,4.8-19.5.36-2.03.32-3.94-.76-5.78-.91-1.56-2.69-3.04-4.48-3.45-3.66-.83-8.49,1.11-9.23,5.24-1.98,11.13-5.19,22-9.57,32.42l.76-1.79c-1.76,4.16-3.7,8.24-5.82,12.23-1.07,2.02-2.19,4.01-3.36,5.97-.49.82-1,1.64-1.52,2.44-.26.4-.53.8-.8,1.19-.16.22-.31.45-.47.67-.17.24-.94,1.24-.15.23s-.22.26-.44.52c-.31.36-.62.72-.94,1.07-.73.79-1.51,1.55-2.34,2.24-1.33,1.12,1.12-.76.08-.05-.44.3-.88.6-1.34.88-.85.51-1.72.97-2.6,1.43-4.48,2.34-8.57,5.14-11.08,9.68s-3.23,9.26-5.11,13.82l.76-1.79c-.94,2.22-2.09,4.34-3.44,6.33-.3.45-.63.88-.94,1.32-.52.72,1.17-1.45.4-.52-.19.23-.38.47-.57.7-.77.92-1.59,1.81-2.45,2.66s-1.67,1.57-2.55,2.3c-.18.15-1.19.93-.09.09s.14-.11-.11.07c-.49.36-.98.7-1.48,1.04-2.01,1.34-4.14,2.47-6.36,3.42l1.79-.76c-2.9,1.2-5.92,2.04-9.03,2.48l1.99-.27-.36.05c-1.98.26-3.87.64-5.3,2.2s-1.92,3.21-2.2,5.3l-.05.35.27-1.99c-.53,3.75-1.54,7.39-3,10.88l.76-1.79c-1.18,2.77-2.61,5.42-4.28,7.92-.43.64-.87,1.26-1.33,1.88-.33.44-1.23,1.4.31-.39-.23.27-.44.55-.67.83-.98,1.19-2.01,2.33-3.1,3.41s-2.13,2.05-3.27,2.99c-.32.27-.64.52-.96.78-.99.8,1.49-1.11.39-.31-.57.42-1.14.83-1.73,1.23-2.54,1.72-5.24,3.19-8.06,4.39l1.79-.76c-3.27,1.36-6.68,2.34-10.18,2.89,3.08,3.08,6.15,6.15,9.23,9.23,3.1-15.93,6.96-31.7,11.26-47.35s9.06-31.21,13.92-46.72,9.86-30.99,14.65-46.54,9.37-31.08,13.44-46.8,7.6-31.52,10.29-47.51c.28-1.69.38-3.53.99-5.15l-.76,1.79c.08-.18.17-.36.27-.53-2.36,1.9-2.98,2.57-1.86,1.99l-1.79.76.28-.07-1.99.27h.2c-.66-.1-1.33-.19-1.99-.28l.17.04-1.79-.76c-2.08-2.58-2.82-3.3-2.21-2.18l-.76-1.79c.05.12.09.24.11.37l-.27-1.99c.02.12.03.25.01.37l.27-1.99c0,.11-.03.21-.08.32l.76-1.79,1-1.31,3.31-1.93-.13.04,1.99-.27h-.15c.66.09,1.33.17,1.99.26l-.18-.06c-3.72-1.25-8.36,1.44-9.23,5.24-.94,4.15,1.25,7.89,5.24,9.23h0Z"/>
  <path d="M653.86,854.8c-.39,2.68-.79,5.37-1.18,8.05-.31,1-.36,1.99-.13,2.99.05,1,.34,1.93.89,2.79.47.87,1.12,1.58,1.93,2.1.72.66,1.57,1.11,2.55,1.34l1.99.27c1.35,0,2.62-.35,3.79-1.02l1.52-1.17c.93-.94,1.57-2.04,1.93-3.31.39-2.68.79-5.37,1.18-8.05.31-1,.36-1.99.13-2.99-.05-1-.34-1.93-.89-2.79-.47-.87-1.12-1.58-1.93-2.1-.72-.66-1.57-1.11-2.55-1.34l-1.99-.27c-1.35,0-2.62.35-3.79,1.02l-1.52,1.17c-.93.94-1.57,2.04-1.93,3.31h0Z"/>
  <path d="M667.94,880.07c8.65-6.93,10.51-18.71,10.89-29.11.19-5.12.21-10.25.38-15.38.22-6.58.49-13.15.72-19.73.25-7.4.43-14.81.38-22.22-.03-3.92-3.43-7.68-7.5-7.5s-7.53,3.3-7.5,7.5c.12,17.87-1.07,35.72-1.38,53.58-.06,3.68-.19,7.36-.67,11.02l.27-1.99c-.41,2.93-1.07,5.81-2.19,8.55l.76-1.79c-.64,1.49-1.41,2.85-2.31,4.2s1.13-1.31.26-.33c-.26.29-.51.59-.79.87-.59.62-1.23,1.19-1.91,1.73-1.4,1.12-2.2,3.59-2.2,5.3,0,1.84.82,4.04,2.2,5.3s3.31,2.29,5.3,2.2c2.11-.09,3.67-.89,5.3-2.2h0Z"/>
  <path d="M332.66,358.02c-.41.12-.79.22-1.21.29l1.99-.27c-.68.08-1.34.08-2.03.02l1.99.27c-1.12-.16-2.17-.48-3.21-.91l1.79.76c-2.4-1.06-4.52-2.58-6.66-4.09-.82-.58.24.25.48.38-.24-.14-.46-.37-.67-.55-.5-.42-.97-.86-1.42-1.33-.23-.24-.56-.51-.72-.81.11.2.92,1.4.44.52-.34-.61-.69-1.18-.96-1.83l.76,1.79c-.24-.65-.42-1.29-.54-1.97l.27,1.99c-.08-.69-.09-1.34-.01-2.03l-.27,1.99c.11-.63.28-1.22.52-1.81l-.76,1.79c.13-.29.27-.57.43-.84.15-.25.7-.99-.06-.03-.82,1.03-.06.1.14-.12.22-.23.47-.43.69-.67.57-.62-1.33.9-.62.46.29-.18.57-.39.87-.57.61-.36,1.24-.67,1.89-.96l-1.79.76c2.86-1.2,5.95-2.04,9.01-2.49l-1.99.27c1.53-.2,3.05-.26,4.58-.08l-1.99-.27c.96.14,1.86.37,2.76.71l-1.79-.76c.51.22,1,.45,1.47.73.23.14.45.28.66.44l-.89-.69c.4.16.86.78,1.15,1.09.18.19,1.3,1.57.44.47s.19.33.34.56c.25.39.5.8.73,1.2.54.94,1.03,1.9,1.45,2.89l-.76-1.79c.38.96.66,1.92.82,2.94l-.27-1.99c.08.75.09,1.48.01,2.24l.27-1.99c-.14,1-.39,1.94-.78,2.87l.76-1.79c-.26.57-.55,1.13-.89,1.66-.1.16-.21.31-.32.47-.34.47-.14.21.59-.77-.24.17-.43.49-.64.69-.07.07-.7.63-.69.64-.04-.09,1.69-1.19.46-.38-.61.4-1.26.74-1.92,1.03l1.79-.76c-1.12.46-2.26.77-3.46.96l1.99-.27c-1.48.19-2.94.19-4.42,0l1.99.27c-.67-.1-1.32-.23-1.97-.39-3.8-.95-8.31,1.22-9.23,5.24s1.17,8.21,5.24,9.23c8.96,2.23,19.22-.58,23.92-9.03,2.35-4.23,3.09-9.39,1.51-14.02-1.39-4.09-3.78-8.34-6.92-11.33-3.66-3.48-8.43-5.26-13.47-5.21-4.01.04-8.16,1.01-11.94,2.34-4.68,1.64-8.93,4.16-11.58,8.48-2.94,4.79-2.62,10.68.04,15.5,2.42,4.39,6.79,7.45,10.92,10.09,4.62,2.96,10.2,4.88,15.66,3.23,3.75-1.13,6.51-5.31,5.24-9.23s-5.2-6.45-9.23-5.24h0Z"/>
  <path d="M342.85,340.03c-1.16-1.84-2.44-3.06-4.23-4.29-3.09-2.11-7.54-.83-9.68,1.93s-2.16,7.28.59,9.85c.41.38.8.77,1.17,1.18.13.14.5.45.54.63-.07-.36-1.04-1.44-.3-.35.67.98,1.22,2.02,1.69,3.1l-.76-1.79c.11.26.21.52.3.78l13.71-5.78-1.79-3.77-10.26,10.26,1.59.99c4.96,3.08,11.15-.95,11.29-6.48l.05-1.93-13.98,3.79c.65.89,1.18,1.83,1.62,2.85l-.76-1.79c.4,1.03.68,2.07.85,3.17l-.27-1.99c.13,1.1.14,2.18.02,3.28h15l.02-3.81-13.98,3.79.17.4-.76-1.79c.32.83.53,1.66.66,2.54l-.27-1.99c.04.29.06.58.07.87l14.73-1.99-.09-.27.27,1.99c-.04-.19-.04-.38,0-.57l-.27,1.99.08-.28-.76,1.79c.58-1.13-.06-.5-1.93,1.87l-9.09-1.17c-1.31-1.55-.6-.8-.31-.21l-.76-1.79c.2.5.34.98.42,1.51l-.27-1.99c.03.26.04.52.03.79l14.73-1.99c-.17-.44-.34-.89-.51-1.33-.71-1.87-1.66-3.44-3.45-4.48-1.61-.94-3.98-1.34-5.78-.76-4.11,1.33-6.04,5.09-5.24,9.23l.08.41-.27-1.99c.09.7.1,1.36.03,2.06l.27-1.99c-.11.7-.29,1.34-.55,1.99l.76-1.79c-.18.38-.37.73-.6,1.09l13.98,3.79-.11-1.93c-.22-3.91-3.29-7.69-7.5-7.5s-7.35,3.29-7.5,7.5l-.16,4.47,14.73-1.99c-.11-.45-.19-.88-.26-1.33l.27,1.99c-.09-.91-.08-1.8.03-2.71.22-1.69-.98-4.19-2.2-5.3s-2.63-1.84-4.31-2.06c-3.63-.49-7.26,1.74-8.23,5.37l-.09.33.76-1.79c-.59,1.12,0,.55,1.79-1.71l1.79-.76-.32.12,9.49,7.23c0-.46.02-.9.07-1.36l-.27,1.99c.12-.76.31-1.47.58-2.19l-.76,1.79.18-.42-13.98-3.79c.12,1.23.11,2.43-.02,3.66l.27-1.99c-.11.76-.26,1.5-.45,2.24l12.54-3.31c-.87-1.01.84,1.53.28.32-.15-.34-.36-.66-.51-1l.76,1.79c-.28-.71-.48-1.41-.6-2.16l.27,1.99c-.09-.75-.09-1.48,0-2.24l-.27,1.99c.03-.25.08-.49.14-.74l-11.02,4.48c-.6-.33-1.09-.77-1.46-1.32-.43-.62-.53-.71-.29-.25l-.76-1.79c.07.19.12.38.15.58l-.27-1.99c.03.2.03.4.02.6l.27-1.99c-.02.2-.06.39-.12.58l.76-1.79c-.31.66-.08.41.71-.76h10.61c-.81-.88.77,1.31.4.53-.13-.27-.28-.53-.4-.8l.76,1.79c-.17-.46-.29-.91-.37-1.39l.27,1.99c-.05-.49-.06-.95-.03-1.44l-.27,1.99c.07-.48.18-.93.34-1.39l-.76,1.79.14-.33-13.71-1.79c.19.56.33,1.11.42,1.69l-.27-1.99c.06.59.07,1.15.02,1.74l.27-1.99c-.02.21-.07.42-.14.62l.76-1.79,2.09-2.05,3.79-1.02-.3.03,1.99.27-.28-.09,1.79.76c1.83,2.24,2.46,2.8,1.88,1.67l.76,1.79c-.19-.53-.32-1.04-.41-1.6l.27,1.99c-.06-.56-.07-1.09-.03-1.65l-.27,1.99c.02-.21.06-.42.14-.61l-.76,1.79.17-.25-2.69,2.69.22-.15-1.79.76.25-.06-1.99.27h.27c-.66-.08-1.33-.17-1.99-.25l.26.08-1.79-.76-2.09-2.12-.76-1.79.12.36-.27-1.99c.05.26.05.51.01.77l.27-1.99c-.09.49-.22.95-.41,1.42l.76-1.79c-.27.49-.19.43.24-.17.37-.53.83-.95,1.39-1.28l1.79-.76-.31.1,1.99-.27h-.24c.66.1,1.33.18,1.99.27l-.22-.06,1.79.76c1.97,2.46,2.65,3.13,2.05,2.01l.76,1.79-.06-.22.27,1.99v-.21c-.1.66-.19,1.33-.28,1.99l.05-.19-.76,1.79.12-.16-2.69,2.69.19-.12-1.79.76.35-.05h-3.99l.35.07-1.79-.76c.68.32.42.09-.77-.69-.81-1.17-1.04-1.42-.69-.76l-.76-1.79c.16.42.25.82.32,1.26l-.27-1.99c.06.55.08,1.09.06,1.64l.27-1.99-.05.31.76-1.79,2.14-2.14,3.79-1.02-.26.03,1.99.27c-.18,0-.36-.05-.52-.14l1.79.76,2.09,2.02.76,1.79c-.1-.23-.16-.47-.18-.73l.27,1.99c-.03-.45-.05-.89,0-1.34l-.27,1.99.1-.27-1.93,3.31-1.13.82-1.79.76.25-.06-1.99.27h.28c-.66-.09-1.33-.18-1.99-.27.2.03.39.08.57.17l-1.79-.76c1.08.63.5.02-1.73-1.84.14.2.26.42.36.65l-.76-1.79c.1.23.17.46.22.7l-.27-1.99c.05.39.05.7,0,1.09l.27-1.99-.09.35.76-1.79c-.32.67-.1.45.65-.68,1.13-.76,1.36-.97.71-.61l1.79-.76c-.2.08-.41.14-.63.16l1.99-.27h-.32c.66.09,1.33.18,1.99.27-.2-.02-.39-.07-.57-.16l1.79.76c.62.35,1.12.81,1.51,1.38.43.64.54.73.32.28l.76,1.79-.07-.26.27,1.99c-.04-.18-.04-.35-.02-.53l-.27,1.99.06-.26-.76,1.79c.52-1.11-.1-.48-1.86,1.88l-3.79,1.02.32-.03-1.99-.27.31.09-3.31-1.93-.76-1.03-.76-1.79c.09.21.15.43.19.66l-.27-1.99c.05.38.06.7.03,1.09l.27-1.99c-.03.24-.09.47-.17.69l.76-1.79c-.26.49-.18.43.22-.16.36-.54.83-.99,1.4-1.33l1.79-.76c-.18.08-.37.13-.57.16l1.99-.27c-.2.02-.39.02-.59,0l1.99.27c-.19-.03-.37-.09-.54-.18l1.79.76,2.09,2.1.76,1.79-.1-.27.27,1.99-.02-.28-.27,1.99c.01-.19.06-.38.14-.55l-.76,1.79c-.5.77-1.12,1.42-1.89,1.93l-1.79.76.26-.06-1.99.27h.26c-.66-.08-1.33-.16-1.99-.25l.26.1-1.79-.76-2.04-1.94-.76-1.79c.08.18.14.36.17.56l-.27-1.99c.03.19.03.39.02.58l.27-1.99c-.05.31-.12.55-.23.84l.76-1.79c-.4.67-.1.4.91-.79,1.2-1,1.46-1.3.8-.9l1.79-.76c-.19.08-.38.13-.58.14l1.99-.27h-.31c.66.08,1.33.17,1.99.26-.21-.03-.4-.09-.59-.18l1.79.76c.58.34,1.04.78,1.39,1.34.42.62.5.7.25.24l.76,1.79-.09-.29.27,1.99c-.05-.2-.05-.4-.02-.6l-.27,1.99.08-.3-.76,1.79c-.38.63-.87,1.14-1.47,1.54-.66.44-.77.55-.34.34l-1.79.76c.16-.06.32-.09.49-.11l-1.99.27c.17-.02.34,0,.5.02l-1.99-.27c.16.03.32.07.47.14l-1.79-.76c1.11.62.44-.06-2-2.05l-.76-1.79.09.23c1.05,2.87,3.1,4.95,6.24,5.37s5.88-.99,7.47-3.58l-2.09,2.15-1.79.76.27-.06-1.99.27h.27c-.66-.08-1.33-.17-1.99-.26l.26.09-1.79-.76.22.16-2.69-2.69.17.22-.76-1.79c.09.16.14.34.14.53l-.27-1.99-.03.27,1.02-3.79c-.21.43-.12.35.28-.24.47-.56.52-.65.15-.26l.99-.77c-.19.12-.38.23-.59.32l1.79-.76c-.42.17-.83.28-1.28.34l1.99-.27c-.34.02-.65.01-.99-.03l1.99.27c-.34-.07-.63-.16-.95-.29l1.79.76c-1.46-.76.68.63.32.29-.39-.43-.17-.15.67.86-.12-.19-.22-.39-.3-.59l.76,1.79c-.12-.32-.2-.62-.26-.96l.27,1.99c-.03-.34-.04-.65,0-.99l-.27,1.99c.02-.19.07-.36.15-.53l-.76,1.79.16-.22-2.69,2.69.26-.16-1.79.76.31-.05-1.99.27.32.04-1.99-.27.31.1-1.79-.76c.69.41.47.14-.68-.82-.96-1.14-1.23-1.36-.81-.68l-.76-1.79c.1.21.16.43.19.66l-.27-1.99c.03.23.02.46-.02.68l.27-1.99-.1.33.76-1.79c-.4.7-.13.47.81-.69,1.15-.94,1.37-1.22.66-.85l1.79-.76-.33.09,1.99-.27c-.23.04-.45.04-.68-.01l1.99.27-.28-.09,1.79.76c-.65-.34-.38-.11.83.7.82,1.18,1.05,1.45.7.79l.76,1.79c-.16-.39-.25-.77-.32-1.19l.27,1.99c-.04-.42-.04-.83,0-1.25l-.27,1.99c.02-.22.07-.44.16-.64l-.76,1.79.18-.27-2.69,2.69.22-.16-1.79.76.26-.08-1.99.27h.28c-.66-.09-1.33-.18-1.99-.27l.27.07-1.79-.76-2.06-2.14-.76-1.79.11.31-.27-1.99c.04.22.04.43,0,.65l.27-1.99-.09.32.76-1.79c-.34.67-.14.44.62-.68,1.11-.76,1.33-.97.67-.62l1.79-.76c-.21.09-.43.15-.65.19l1.99-.27c-.36.04-.65.04-1.01-.01l1.99.27c-.22-.04-.44-.12-.64-.22l1.79.76c.72.46,1.28,1.05,1.69,1.8-.13-.19-.23-.39-.31-.6l.76,1.79c-.08-.21-.14-.43-.17-.66l.27,1.99c-.03-.23-.03-.45,0-.68l-.27,1.99c.03-.23.09-.45.18-.67l-.76,1.79-2.02,1.9-1.79.76.32-.12-1.99.27h.29c-.66-.1-1.33-.19-1.99-.28l.28.08-1.79-.76-2.13-2.08-1.02-3.79v.28c.09-.66.18-1.33.27-1.99l-.09.24,1.93-3.31,1.14-.84,1.79-.76c-.17.08-.35.13-.53.15l1.99-.27c-.19.02-.38.02-.57,0l1.99.27c-.37-.06-.68-.14-1.03-.26l1.79.76c-.68-.34-.47-.13.62.63.73,1.11.92,1.34.58.71l.76,1.79c-.08-.2-.12-.4-.13-.62l.27,1.99v-.32c-.08.66-.17,1.33-.26,1.99.02-.21.07-.41.16-.6l-.76,1.79-2.08,2.03-1.79.76.26-.1-1.99.27c.18-.04.37-.04.55,0l-1.99-.27.27.09-1.79-.76c-.78-.52-1.43-1.16-1.96-1.93l-.76-1.79.04.26-.27-1.99-.04.27,1.02-3.79c2.41-1.87,3.05-2.5,1.91-1.91l1.79-.76c-.19.07-.39.12-.59.14l1.99-.27c-.2.02-.41.02-.61,0l1.99.27c-.37-.06-.7-.14-1.05-.26l1.79.76c-.72-.31-1.64-1.27,0,.21-.52-.55-.36-.32.47.69-.13-.2-.25-.41-.35-.64l.76,1.79-.13-.34-1.93,7.3-1.07.85-1.79.76c.17-.08.34-.14.52-.17l-1.99.27c.3-.03.53-.03.83,0l-1.99-.27c.18.03.36.09.53.17l-1.79-.76c.44.25.34.15-.3-.28-.58-.37-1.06-.86-1.42-1.47l-.76-1.79c.08.18.13.37.15.57l-.27-1.99v.3c.09-.66.18-1.33.27-1.99-.01.2-.06.39-.12.58l.76-1.79c-.32.66-.08.41.71-.75,1.18-.79,1.45-1.01.8-.65l1.79-.76c-.18.08-.38.13-.57.14l1.99-.27h-.32c.66.08,1.33.17,1.99.26-.21-.03-.42-.09-.61-.18l1.79.76c.57.33,1.02.77,1.37,1.31.42.61.49.68.24.22l.76,1.79c-.08-.2-.14-.41-.16-.62l.27,1.99v-.32c-.09.66-.18,1.33-.27,1.99.02-.21.08-.41.17-.6l-.76,1.79-2.05,2.11-3.79,1.02.35-.03-1.99-.27c.37.06.69.16,1.04.28l-1.79-.76c.34.15.65.31.98.49,1.04.58-1.04-1.02-.52-.38.09.08.17.17.25.26.38.43.18.17-.61-.8.06.3.38.68.5.97l-.76-1.79c.11.26.18.54.2.82l-.27-1.99-.04.42.27-1.99-.09.24.76-1.79c2.45-1.92,3.09-2.61,1.93-2.08l1.79-.76-.25.06,1.99-.27c-.18.03-.35.04-.53.02l1.99.27c-.18-.02-.36-.05-.53-.12l1.79.76c-.89-.4.95.89,1.17,1.17.78,1.01.2.16.06-.15l.76,1.79c-.17-.45-.3-.9-.42-1.37l-.76,5.78c-2.35,1.81-2.95,2.45-1.8,1.93l-1.79.76.3-.06-1.99.27h.3c-.66-.09-1.33-.18-1.99-.27l.29.06-1.79-.76c-.72-.52-1.34-1.14-1.86-1.87l-.76-1.79.08.29-.27-1.99c.03.2.03.4-.02.6l.27-1.99-.1.28.76-1.79,2.03-2.06,1.79-.76c-.19.09-.4.14-.61.16l1.99-.27h-.32c.66.09,1.33.18,1.99.27-.22-.02-.43-.06-.63-.14l1.79.76c-.64-.33-.42-.13.65.59.76,1.07.92,1.29.5.65-.24-.48-.49-.94-.7-1.43l.76,1.79c-.41-1.07-.69-2.16-.85-3.29l.27,1.99-.04-.42-9.49,7.23c.21.05.42.11.63.18l-1.79-.76c.35.15,1.14.71.12-.11-.38-.24-.67-.55-.89-.94-.41-.63-.51-.73-.29-.3l-.76-1.79.04.25-.27-1.99-.03.26,1.02-3.79,2.11-2.03,1.79-.76-.3.09,1.99-.27-.32.02,1.99.27c-.22-.01-.43-.07-.62-.18l1.79.76c1.77,2.13,2.34,2.64,1.73,1.53l.76,1.79c-.21-.53-.35-1.03-.43-1.59l.27,1.99c-.03-.44-.02-.82.04-1.25l-.27,1.99c.05-.27.14-.54.25-.79l-.76,1.79c.37-.65.17-.42-.59.69-1.11.77-1.35.96-.69.6l-1.79.76c.2-.09.41-.16.63-.19l-1.99.27c.22-.03.44-.03.66,0l-5.3-12.8,1.12-.82,1.79-.76-.25.09,1.99-.27c-.18.04-.36.04-.54,0l1.99.27-.26-.08,1.79.76,2.12,2.14.76,1.79-.07-.3.27,1.99.02-.3-.27,1.99.1-.29-.76,1.79-2.06,2.04-1.79.76.29-.1-1.99.27h.31c-.66-.1-1.33-.19-1.99-.28l.27.07-1.79-.76c-.78-.51-1.43-1.16-1.95-1.92l-.76-1.79.08.26-.27-1.99c.04.18.03.36,0,.54l.27-1.99-.1.26h14.46l-.11-.32.27,1.99-.03-.33-.27,1.99c0-.23.06-.44.17-.64l-.76,1.79.19-.27-10.26,2.69c.67.34.44.13-.68-.62-.76-1.11-.97-1.34-.61-.68l-.76-1.79c.09.21.15.43.19.65l-.27-1.99c.03.22.04.45.01.67l.27-1.99-.07.33,13.71-1.79c-.14-.21-.27-.43-.37-.66l.76,1.79c-.2-.48-.32-.95-.4-1.46l.27,1.99c-.03-.39-.03-.75,0-1.14l-.27,1.99c.06-.39.14-.73.27-1.11l-.76,1.79c.09-.24.2-.47.33-.69l-11.78,1.52c.84.74-.98-1.61-.48-.62l-.76-1.79c.1.29.16.53.2.84l-.27-1.99c.02.19.01.39-.01.58l.27-1.99c-.05.3-.12.55-.24.83l.76-1.79c-.53.97,1.32-1.35.45-.65h10.61l.81.99.76,1.79-.07-.31.27,1.99v-.32c-3.15,2.41-6.32,4.82-9.48,7.23.46.08.87.21,1.3.38l-1.79-.76c.09.05.52.35.6.33-.04,0-1.7-1.26-.6-.42.52.4-.81-1.32-.54-.72.11.26.27.5.39.75l-.76-1.79c.12.35.21.67.27,1.03l-.27-1.99c.05.49.05.95,0,1.45l.27-1.99c-.07.37-.16.7-.28,1.05l.76-1.79c-.12.28-.29.54-.4.81-.27.64,1.26-1.42.38-.54l12.54,3.31c-.3-.71-.55-1.39-.67-2.15l.27,1.99c-.03-.3-.02-.59.03-.89l-.27,1.99.09-.31-.76,1.79c.24-.47.16-.4-.26.21-.36.54-.83.98-1.41,1.31l-1.79.76c.18-.09.37-.15.57-.17l-1.99.27h.3c-.66-.08-1.33-.17-1.99-.26l.29.08-1.79-.76c-.79-.52-1.46-1.18-1.98-1.98l-.76-1.79c.07.16.11.33.13.51l-.27-1.99c.02.19.02.37,0,.56l.27-1.99c-.05.3-.12.56-.22.85l.76-1.79c-.13.28-.26.5-.44.75l13.98,3.79-.03-.31-.27,1.99.1-.29-.76,1.79.19-.26-2.69,2.69.26-.2-1.79.76.3-.12-1.99.27c.27-.06.53-.06.8,0l-1.99-.27c.49.12.97.27,1.44.45l-1.79-.76c.22.08.42.18.62.3-1.77-2.25-2.37-2.81-1.8-1.67l-.76-1.79.08.34-.27-1.99v.34c.09-.66.18-1.33.27-1.99l-.09.32.76-1.79-.18.28,2.69-2.69-.2.15,1.79-.76-.24.08,1.99-.27h-.25c.66.1,1.33.19,1.99.28l-.25-.05,1.79.76,2.18,2.22,1.02,3.79-.02-.24-2.2,5.3c.56-.54.37-.4-.58.41l-1.79.76c.23-.13.48-.2.75-.22l-1.99.27.33.03-1.99-.27.32.11-1.79-.76-2.07-1.97-1.02-3.79v.32c.1-.66.19-1.33.28-1.99l-.08.22.76-1.79,2.15-2.27,1.79-.76-.24.05,1.99-.27h-.25c.66.09,1.33.18,1.99.27l-.24-.05,1.79.76,2.11,2.18.76,1.79-.1-.29.27,1.99c-.04-.21-.04-.42,0-.62l-.27,1.99.1-.31-.76,1.79c-.47.69-1.05,1.28-1.73,1.76l-1.79.76c.23-.1.47-.16.71-.19l-1.99.27c.25-.03.5-.04.75-.02l-6.48-3.71c.14.18.25.38.32.59l-.76-1.79.08.33-.27-1.99c.04.22.05.45.02.68l.27-1.99c-.03.23-.09.44-.18.65l.76-1.79.8-.96,11.78,1.52-.13-.27.76,1.79-.06-.29.27,1.99v-.3c-.09.66-.18,1.33-.27,1.99.02-.2.08-.39.17-.57l-.76,1.79-2.06,2.08-1.79.76.29-.08-1.99.27h.3c-.66-.1-1.33-.19-1.99-.28.2.02.39.07.57.16l-1.79-.76-2.06-2.08-.76-1.79.1.28-.27-1.99.03.4.27-1.99-.12.38,1.93-3.31,1.13-.83,1.79-.76-.25.07,1.99-.27h-.27c.66.1,1.33.18,1.99.27-.19-.02-.37-.07-.55-.16l1.79.76,2.08,2.1.76,1.79c-.12-.25-.19-.52-.21-.81l.27,1.99c-.01-.29,0-.57.05-.85l-.27,1.99c.56-2.8,1.41-5.58,2.12-8.35.76-2.94-.29-6.03-2.69-7.88s-5.78-2.2-8.33-.59c-.47.3-.95.6-1.42.9l11.02,4.48-.11-.28.27,1.99c-.04-.2-.05-.39,0-.59l-.27,1.99.09-.29-.76,1.79c-.5.74-1.12,1.36-1.87,1.85l-1.79.76.28-.08-1.99.27h.3c-2.5-2.51-5-5.01-7.5-7.51.21,1.79.41,3.59.62,5.38.18,1.54.58,3.21.41,4.76l.27-1.99-.08.31.76-1.79c-.57,1.16.06.54,1.89-1.84l1.79-.76-.26.07,1.99-.27c-.19.02-.37.02-.55-.02l1.99.27-.28-.08,1.79.76s-.56-.27-.55-.28c.19-.24,1.81,1.8,1.77,1.81-.11.03-.67-1.36-.7-1.43-.59-1.38-1.46-2.78-2.65-3.71-2.18-1.71-4.47-2.71-7.3-1.93-2.26.62-4.9,2.75-5.24,5.24-.18,1.34-.36,2.68-.54,4.02-.28,2.09-.36,3.87.76,5.78.91,1.56,2.69,3.04,4.48,3.45,1.92.44,4.07.34,5.78-.76,1.51-.98,3.19-2.61,3.45-4.48.18-1.34.36-2.68.54-4.02l-12.54,3.31c.2.13.37.29.52.47-.78-1.08-.98-1.29-.6-.63.15.4.35.79.52,1.17.55,1.25,1.37,2.38,2.38,3.31,3.53,3.25,9.13,3.84,12.76.38,2.59-2.47,3.03-5.76,2.65-9.14-.28-2.45-.56-4.89-.84-7.34-.23-1.96-.66-3.89-2.2-5.3-1.44-1.32-3.3-2.27-5.3-2.2-2.93.11-5.36,1.32-7.15,3.63-1.64,2.12-2.47,5.35-1.47,7.96.87,2.26,2.06,3.9,4.34,4.86,2.13.9,4.66.9,6.67-.38.47-.3.95-.6,1.42-.9l-11.02-8.47c-.87,3.39-2.06,6.85-2.39,10.34-.29,3.08,1.05,6.11,3.48,7.99,2.68,2.07,6.64,2.65,9.65.82,3.29-2,4.88-5.86,3.93-9.6-.77-3.05-3.4-5.49-6.4-6.27-3.79-.98-7.54.69-9.67,3.87-1.89,2.83-1.58,6.33-.14,9.25,1.98,4.01,8.87,5.18,11.78,1.52,1.38-1.73,2.32-3.31,2.62-5.52s-.06-4.23-1.13-6.1c-2.93-5.12-9.7-4.92-13.75-1.42-3.14,2.73-3.89,7.81-1.64,11.32,2.89,4.5,9.21,5.3,13.13,1.67,1.64-1.52,2.6-3.78,2.59-6.01-.01-2.99-1.64-5.54-4.06-7.17-3.78-2.54-8.7-1.19-11.71,1.83-2.45,2.47-2.82,6.46-1.1,9.43,1.32,2.27,3.63,3.66,6.19,4,5.52.74,10.06-4.09,9.33-9.54-.58-4.33-3.95-7.15-8.01-8.24-2.47-.67-5.02-.42-7.28.79-2.51,1.34-4.49,4.64-4.24,7.54.28,3.2,2.12,6.46,5.51,7.23,1.32.3,2.67.3,3.99,0,1.98-.45,3.34-1.9,4.48-3.45,4.21-5.69.3-14.6-6.93-14.75-3.31-.07-6.64,1.82-8.24,4.75s-1.61,6.37-.33,9.41c1.05,2.5,2.46,4.47,5.24,5.24,2.58.71,5.41-.03,7.3-1.93,3.15-3.17,4.63-8.13,3.2-12.45-1.34-4.05-4.8-7.65-9.13-8.42-2.44-.44-4.54-.2-6.54,1.34s-2.87,3.48-2.96,5.89.99,4.64,2.61,6.46c1.18,1.33,3.54,2.28,5.3,2.2,2.1-.09,3.68-.88,5.3-2.2,4.28-3.47,4.13-11.06.08-14.62-1.84-1.61-3.85-2.39-6.3-2.06-2.23.3-4.39,1.52-5.48,3.58-2.09,3.96-2.24,8.75.18,12.62,1.61,2.58,4.45,3.99,7.47,3.58,2.76-.37,5.65-2.48,6.24-5.37.89-4.38-.63-9.49-4.98-11.51-1.79-.83-3.81-1.39-5.78-.76s-3.29,1.78-4.48,3.45c-1.42,1.98-1.77,5.07-.98,7.34,1.05,3.02,3.81,5.66,7.23,5.51s6.02-2.27,7.23-5.51c1.37-3.64-.6-8.3-3.92-10.18-4.1-2.31-9.35-1.06-11.83,3s-1.22,9.39,2.82,11.83c3.26,1.97,8.24,1.63,10.78-1.41,1.98-2.37,2.81-5.21,1.55-8.19s-3.8-4.37-6.85-4.61c-4.57-.36-8.87,3.22-10.08,7.49-1.27,4.5.32,10.11,4.39,12.66,5.49,3.44,13.26-.04,13.42-6.84.1-4.62-3.49-8.19-7.78-9.27-2.35-.59-4.64-.13-6.54,1.34-1.71,1.32-3.19,3.6-2.96,5.89.42,4.05,1.47,8.34,4.46,11.32,4.9,4.88,13.33,3.29,15.63-3.38s-4.36-13.12-10.91-11.22c-3.61,1.04-6.23,4.23-6.4,8-.12,2.6,1.4,5.74,3.13,7.59,3.99,4.27,11.5,4.06,14.67-1.14s0-11.07-4.35-14.26c-1.28-.94-2.86-1.63-4.41-1.95-4.42-.92-8.88,1.42-10.21,5.84-1.75,5.78,2.64,12.42,8.91,12.38s11.02-6.19,9.28-12.37c-.89-3.17-3.65-5.47-6.74-6.34-3.32-.93-6.55.29-9.1,2.41-1.85,1.54-2.81,5.04-1.93,7.3.74,1.89,1.44,3.36,2.85,4.86s3.18,2.49,5.09,3.15c4.21,1.47,8.98-.07,11.39-3.84,3.04-4.75-.12-11.33-5.37-12.65s-11.11,2.86-11.07,8.59c.03,4.56,3,8.2,7.29,9.58,4.78,1.53,10.04-.74,11.62-5.63,1.97-6.1-4.52-12.16-10.48-10.23-4.98,1.61-7.55,6.95-6.14,11.92,1.23,4.33,5.26,7.37,9.75,7.43s8.48-2.93,9.8-7.12c1.72-5.5-2.42-11.23-8.16-11.39-5.27-.15-8.77,4.66-8.62,9.59.11,3.67,1.88,7.42,5.22,9.18,4.53,2.39,10.32.7,12.77-3.84s.75-10.33-3.66-12.97c-4.94-2.96-11.22-.54-12.81,4.99-1.2,4.19.75,8.99,4.1,11.57,2.96,2.29,7,3.23,10.6,1.85,4.75-1.82,8.66-6.37,6.98-11.77-1.08-3.47-4.26-5.86-7.88-5.98-3.16-.1-5.99,1.68-7.62,4.31l13.71,1.79c-1.05-2.87-2.97-5.25-6.01-6.11-2.43-.69-5-.51-7.25.71-4.97,2.7-6.03,9.16-2.64,13.54s10.12,4.97,14.07.88,3.55-11.6-1.52-14.78c-5.49-3.45-12.34.37-13.16,6.52s5.52,11.13,11.49,9.49c5.4-1.48,8.1-7.44,6.65-12.65-.82-2.94-3.06-5.36-6.07-6.13-3.66-.94-7.63.81-9.51,4.05-2.95,5.06-.06,11.86,5.53,13.43s11.3-2.49,12.05-8.08c.67-4.97-2.15-10.23-7.2-11.63-2.96-.82-6.44-.08-8.51,2.28-2.2,2.5-2.75,5.72-2.03,8.9,1.44,6.36,9.51,9.52,14.42,4.63,3.17-3.15,3.23-9.21.94-12.95-1.31-2.13-3.43-3.97-5.94-4.48-4.24-.87-8.63,1.22-9.88,5.57-1.79,6.24,4.3,12.25,10.5,10.53s8.92-9.55,5.97-14.86c-1.86-3.35-5.92-5.01-9.6-4.11-3.9.95-6.02,4.54-6.29,8.32-.39,5.43,3.06,12.25,9.33,11.84,3.97-.26,6.92-2.82,7.94-6.61.64-2.38.37-5.28-.42-7.58-1-2.87-3.14-4.96-6.24-5.37-1.37-.18-2.61-.03-3.89.51-1.35.57-2.98,1.66-3.59,3.07-.52,1.2-1.03,2.25-1.24,3.52-.32,2.02-.36,3.4.03,5.42.47,2.48,1.77,4.66,3.48,6.49,2.57,2.77,8.08,3.05,10.61,0,2.02-2.44,3.06-5.03,2.63-8.24s-2.1-5.45-4.68-7.18c-3.88-2.61-10.04-.08-11.02,4.48-1.16,5.42.2,10.44,3.8,14.64s11.16,1.85,12.54-3.31c.68-2.55,1.01-5.26.74-7.89-.17-1.71-.53-3.15-1.61-4.54-.96-1.24-2.33-2.33-3.9-2.69-1.32-.3-2.67-.3-3.99,0-1.59.36-3.81,1.91-4.48,3.45-1.13,2.57-1.85,4.9-1.86,7.75,0,4.55,4.85,8.92,9.49,7.23,3.17-1.15,5.65-3.32,6.54-6.66l-14.73-1.99c-.26,2,.02,4.08.5,6.04.89,3.63,4.67,5.85,8.23,5.37,3.75-.5,6.37-3.6,6.5-7.37l.16-4.47h-15l.11,1.93c.18,3.19,2.19,6.48,5.51,7.23s6.64-.53,8.47-3.45c2.17-3.45,2.55-7.41,1.79-11.33l-14.46,3.99c.17.44.34.89.51,1.33,1.34,3.53,4.31,5.9,8.23,5.37,3.67-.49,6.47-3.6,6.5-7.37.03-3.44-1.31-6.33-3.5-8.91s-6.36-2.71-9.09-1.17c-3.49,1.96-5.52,6.52-4.18,10.4,1.23,3.56,4.4,5.89,8.23,5.37,3.5-.47,6.71-3.63,6.5-7.37-.16-2.87-.79-4.99-1.93-7.6-.62-1.43-2.24-2.5-3.59-3.07-1.49-.63-3.3-.89-4.88-.38-3.17,1.02-5.49,3.82-5.51,7.23l-.02,3.81c-.02,3.92,3.47,7.68,7.5,7.5,1.94-.09,3.95-.72,5.3-2.2,1.43-1.55,1.97-3.22,2.2-5.3.48-4.46-.86-9.45-3.51-13.08-.99-1.36-2-2.4-3.59-3.07-1.49-.63-3.3-.89-4.88-.38-3.21,1.04-5.42,3.82-5.51,7.23l-.05,1.93,11.29-6.48-1.59-.99c-2.72-1.69-6.9-1.22-9.09,1.17-2.4,2.61-2.66,5.95-1.17,9.09l1.79,3.77c.73,1.55,2.84,3.07,4.48,3.45s3.29.29,4.88-.38c3.18-1.34,5.65-5.33,4.34-8.85-1.44-3.86-3.47-7.33-6.5-10.17l-9.09,11.78c-.99-.83-1.21-.99-.65-.47-.75-1.06-.92-1.27-.5-.63,2.1,3.31,6.77,4.94,10.26,2.69s4.93-6.71,2.69-10.26h0Z"/>
  <path d="M320.21,344.37c.15-.19.32-.36.48-.55.78-.88-1.26.78-.52.4.49-.26.96-.53,1.48-.76l-1.79.76c4.16-1.71,8.58-3.22,13.04-3.87l-1.99.27c1.99-.26,3.98-.31,5.97-.07l-1.99-.27c1.81.25,3.55.73,5.25,1.41l-1.79-.76c1.23.52,2.42,1.13,3.54,1.86.31.2.6.41.9.62,1,.69-1.18-.98-.51-.4.51.43,1.02.86,1.5,1.33.43.42.85.86,1.25,1.32s.93,1.45-.26-.39c.2.3.43.59.63.89.77,1.14,1.4,2.34,1.93,3.6l-.76-1.79c1.14,2.86,1.74,5.88,2.16,8.92l-.27-1.99c.39,2.97.56,5.95.52,8.94-.06,3.92,3.49,7.68,7.5,7.5s7.44-3.29,7.5-7.5c.16-10.48-1.61-21.94-9.22-29.72-3.4-3.48-7.73-6.04-12.36-7.51-5.27-1.67-10.9-1.42-16.24-.21-2.74.62-5.4,1.55-8.04,2.51-3.05,1.11-6.4,2.24-8.52,4.86-1.29,1.6-2.2,3.17-2.2,5.3,0,1.84.82,4.04,2.2,5.3,2.74,2.51,7.97,3.26,10.61,0h0Z"/>
</svg>