<?xml version="1.0" encoding="UTF-8"?>
<svg id="Layer_2" data-name="Layer 2" xmlns="http://www.w3.org/2000/svg" viewBox="0 0 1119.22 1011.55">
  <path d="M120.22,328.7c4.86-1.14,9.76-2.03,14.7-2.71l-1.99.27c22.85-3.06,45.95-1.34,68.76,1.12,5.74.62,11.48,1.29,17.21,1.94,2.91.33,5.82.66,8.74.98,2.75.3,5.54.81,8.31.55,10.72-.98,21.1-3.58,31.2-7.27,11.21-4.1,22.02-9.2,33-13.84l-1.79.76c9.66-4.07,19.43-7.92,29.87-9.38l-1.99.27c7.82-1.04,15.73-.93,23.55.11l-1.99-.27c7.64,1.05,15.13,2.97,22.41,5.5l-1.79-.76c2.85,1.43,5.77,2.73,8.79,3.76l-1.79-.76c5.31,2.42,10.5,5.12,15.5,8.15,2.53,1.53,5.01,3.14,7.43,4.83,1.11.77,2.22,1.56,3.31,2.37.61.45,1.22.91,1.83,1.37,1.27.96-1.07-.84-.24-.19.43.34.86.66,1.28,1.01,4.65,3.83,8.79,8.49,12.86,12.93s8.17,9.17,12.2,13.8c2.25,2.58,4.5,5.16,6.79,7.7,1.16,1.29,2.27,2.65,3.51,3.86,1.8,1.76,3.99,2.38,6.25,3.27l-1.79-.76c.13.06.41.25.57.29-.92-.21-1.4-1.22-.75-.5.37.41.77.8,1.17,1.2.88.88,1.77,1.74,2.69,2.57,2.09,1.9,4.29,3.64,6.53,5.35,3.63,2.77,7.48,5.24,11.48,7.45,8.36,4.62,17.31,8.17,26.31,11.36,4.85,1.72,9.85,3.11,14.63,4.99l-1.79-.76c1.3.56,2.5,1.29,3.72,2.01,1.67.99,3.44,1.8,5.28,2.45l-1.79-.76c1.85.83,3.27,1.33,5.3,1.48.66.05,1.31.02,1.97.08l-1.99-.27c.39.06.73.15,1.1.28l-1.79-.76c1.57.7,3.18,1.34,4.77,2l-1.79-.76c20.08,8.5,38.78,19.77,57.48,30.9,5.31,3.16,10.63,6.31,15.99,9.39,3.4,1.95,8.36.91,10.26-2.69s.94-8.18-2.69-10.26c-19.58-11.24-38.6-23.5-58.84-33.55-6.22-3.09-12.55-5.93-18.98-8.55l1.79.76c-1.85-.83-3.27-1.33-5.3-1.48-.66-.05-1.31-.02-1.97-.08l1.99.27c-.39-.06-.73-.15-1.1-.28l1.79.76c-.99-.44-1.99-.84-3-1.24l1.79.76c-1.43-.61-2.72-1.43-4.06-2.21-1.74-1.01-3.6-1.8-5.5-2.44-2.84-.95-5.69-1.89-8.53-2.86-5.71-1.95-11.39-3.99-16.95-6.33l1.79.76c-6.72-2.85-13.27-6.13-19.35-10.19-1.51-1.01-2.95-2.12-4.44-3.17,1.83,1.3.66.51.24.17s-.85-.68-1.26-1.03c-.68-.57-1.35-1.15-2.02-1.74-1.39-1.24-2.73-2.53-4.03-3.88-.93-.96-1.94-1.85-3.15-2.44s-2.44-.95-3.68-1.44l1.79.76c-1.23-.56.3-.22.46.51-.03-.14-.59-.65-.65-.7-.54-.58-1.07-1.17-1.6-1.76-1.05-1.16-2.1-2.33-3.14-3.51-2.06-2.32-4.09-4.66-6.13-6.99-4.03-4.63-8.06-9.26-12.24-13.76s-8.53-9.2-13.44-13-10.38-7.68-15.95-10.98c-2.76-1.63-5.57-3.17-8.43-4.62-3.5-1.77-7.07-3.22-10.69-4.71l1.79.76c-1.26-.53-2.49-1.14-3.73-1.74-2.12-1.02-4.39-1.71-6.63-2.41-3.46-1.07-6.97-1.99-10.51-2.73-7.46-1.57-15.14-2.48-22.77-2.39s-15.32,1.13-22.65,3.19c-6.48,1.82-12.76,4.42-18.96,7.03-7.29,3.06-14.49,6.31-21.77,9.39l1.79-.76c-11.89,5.01-24.09,9.42-36.93,11.18l1.99-.27c-1.72.23-3.48.49-5.21.55-2.06.07-4.22-.36-6.26-.59-4.05-.44-8.09-.9-12.13-1.37-8.07-.93-16.14-1.86-24.23-2.63-15.82-1.5-31.76-2.39-47.64-1.29-9.46.66-18.9,1.97-28.14,4.13-3.82.9-6.45,5.47-5.24,9.23,1.29,3.99,5.13,6.2,9.23,5.24h0Z"/>
  <path d="M469.97,382.1c25.93-.05,51.85-1.32,77.65-3.84,26.3-2.56,52.44-6.45,78.4-11.36,14.29-2.71,28.56-5.52,42.97-7.47l-1.99.27c30.52-4.1,61.36-4.63,92.11-4.86,30.75-.23,61.52-.6,92.27-.57,16.53.01,33.1.43,49.51,2.63l-1.99-.27c10.05,1.37,19.99,3.41,29.68,6.41-1.49-3.67-2.99-7.34-4.48-11.02-.36.68-.74,1.35-1.17,2-.18.27-.37.53-.55.8-.74,1.08,1.24-1.48.39-.5-.9,1.04-1.84,2.04-2.9,2.93-.45.38-1.46,1.01.53-.38-.26.18-.51.38-.77.56-.61.43-1.24.83-1.88,1.2-1.22.71-2.48,1.33-3.78,1.88l1.79-.76c-4.22,1.75-8.7,2.73-13.21,3.35l1.99-.27c-6.43.85-12.91.91-19.39,1.04-8.41.18-16.81.35-25.22.53-4.83.1-9.65.2-14.48.3-3.92.08-7.68,3.39-7.5,7.5s3.3,7.59,7.5,7.5c14.81-.31,29.63-.62,44.44-.93,11.37-.24,23.05-1.06,33.43-6.13,5.72-2.8,10.75-7.39,13.72-13.06,2.29-4.37.29-9.54-4.48-11.02-21.87-6.78-44.96-8.73-67.75-9.19-23.17-.46-46.37.06-69.54.21-23.52.15-47.05.1-70.56.79s-47.74,2.47-71.35,6.33c-11.61,1.9-23.15,4.2-34.71,6.37s-22.91,4.09-34.43,5.77c-2.92.43-5.85.84-8.77,1.23l1.99-.27c-27.81,3.74-55.81,6.05-83.85,6.91-7.87.24-15.75.37-23.62.38-3.92,0-7.68,3.44-7.5,7.5s3.3,7.51,7.5,7.5h0Z"/>
  <path d="M891.27,365.89c-.92,1.15-1.9,2.24-2.95,3.27-.48.47-.97.92-1.47,1.35-.3.26-.61.52-.92.77-.97.81,1.15-.84.41-.31-2.35,1.68-4.79,3.13-7.46,4.25l1.79-.76c-3.17,1.3-6.48,2.1-9.87,2.58l1.99-.27c-5.38.71-10.82.69-16.24.74-5.72.06-11.45.12-17.17.14-11.28.05-22.56,0-33.83-.37-6.46-.21-12.92-.52-19.37-.97-3.92-.27-7.67,3.64-7.5,7.5.19,4.29,3.3,7.21,7.5,7.5,15.88,1.1,31.81,1.38,47.73,1.36,7.96,0,15.92-.09,23.89-.17s16.13-.1,23.79-2.46,15.14-7.13,20.29-13.54c1.29-1.61,2.2-3.16,2.2-5.3,0-1.84-.82-4.04-2.2-5.3-2.72-2.5-7.99-3.27-10.61,0h0Z"/>
  <path d="M851.53,380.51c-1.23,1.24-2.51,2.42-3.87,3.52-.21.17-.42.34-.63.5l.88-.68c-.36.3-.75.56-1.13.84-.7.51-1.42,1-2.15,1.47-2.93,1.9-6.04,3.5-9.25,4.86l1.79-.76c-6.01,2.5-12.34,4.1-18.79,4.98l1.99-.27c-11.62,1.54-23.39.8-35-.48s-23.85-2.9-35.77-4.38c-6.77-.84-13.54-1.68-20.31-2.51-1.77-.22-4.1,1-5.3,2.2-1.3,1.3-2.28,3.44-2.2,5.3s.72,3.95,2.2,5.3c1.56,1.44,3.21,1.94,5.3,2.2,18.61,2.3,37.2,4.81,55.84,6.87,17.49,1.93,35.79,2.55,52.63-3.43,9.08-3.23,17.54-8.05,24.36-14.93,2.77-2.79,2.99-7.86,0-10.61s-7.66-2.98-10.61,0h0Z"/>
  <path d="M791.33,400.23c-6.62,4.61-13.72,8.47-21.15,11.62l1.79-.76c-12,5.06-24.7,8.26-37.59,10.02l1.99-.27c-17.42,2.33-35.09,1.98-52.55.29-5.06-.49-10.11-1.09-15.14-1.77l1.99.27c-2.84-.38-5.68-.79-8.52-1.22-1.38-.21-2.75-.42-4.13-.64-1.19-.19-2.46-.27-3.59-.71l1.79.76c-.69-.38-.43-.07.78.94.96,1.23,1.28,1.51.94.83l.76,1.79-.05-.27.27,1.99.02-.18-1.02,3.79-2.35,2.37-1.79.76.17-.04-1.99.27c.12-.01.24-.01.36,0l-1.99-.27.17.04-1.79-.76c.1.03.19.08.27.14l-2.69-2.69.07.1-.76-1.79.02.11v-3.99l-.04.12,1.93-3.31-.12.13c-2.66,2.88-3.07,7.79,0,10.61,2.9,2.66,7.76,3.08,10.61,0,2.34-2.53,3.25-6.5,1.24-9.54-1.65-2.49-4.26-3.97-7.27-3.91-3.28.06-6.1,1.97-7.36,4.97-1.33,3.14-.45,6.95,2.05,9.28,2.69,2.5,6.15,2.73,9.58,3.26,2.92.45,5.84.88,8.76,1.28,12.02,1.66,24.09,3.01,36.23,3.46,22,.83,44.49-1.2,65.45-8.25,11.38-3.83,22.37-9.03,32.23-15.9,1.63-1.13,2.9-2.52,3.45-4.48.49-1.8.27-4.19-.76-5.78-2.06-3.19-6.82-5.09-10.26-2.69h0Z"/>
  <path d="M764.37,406.94l-1.18,1.18c-.73.68-1.25,1.48-1.55,2.41-.47.89-.68,1.86-.65,2.89-.04,1.03.18,2,.65,2.89.3.93.82,1.73,1.55,2.41l1.52,1.17c1.17.68,2.43,1.02,3.79,1.02l1.99-.27c1.27-.36,2.37-1,3.31-1.93l1.18-1.18c.73-.68,1.25-1.48,1.55-2.41.47-.89.68-1.86.65-2.89.04-1.03-.18-2-.65-2.89-.3-.93-.82-1.73-1.55-2.41l-1.52-1.17c-1.17-.68-2.43-1.02-3.79-1.02l-1.99.27c-1.27.36-2.37,1-3.31,1.93h0Z"/>
  <path d="M707.22,423.71c-8.52,2.86-17.33,4.69-26.23,5.89l1.99-.27c-13.7,1.81-27.52,2.4-41.25.58l1.99.27c-14.15-1.92-27.9-5.84-41.6-9.76-3.07-.88-6.94.55-8.47,3.45-1.61,3.04-1.17,6.55,1.17,9.09.77.84,1.55,1.68,2.32,2.52,2.66,2.89,7.94,2.9,10.61,0,2.84-3.1,2.84-7.52,0-10.61-.77-.84-1.55-1.68-2.32-2.52-2.43,4.18-4.86,8.36-7.3,12.54,14.52,4.16,29.05,8.15,44.07,10.09s30.48.95,45.58-1.31c7.94-1.19,15.8-2.94,23.42-5.49,3.71-1.25,6.53-5.22,5.24-9.23-1.2-3.69-5.24-6.57-9.23-5.24h0Z"/>
  <path d="M651.27,430.79h-1.18c-1.03-.04-2,.18-2.89.65-.93.3-1.73.82-2.41,1.55-.73.68-1.25,1.48-1.55,2.41-.47.89-.68,1.86-.65,2.89l.27,1.99c.36,1.27,1,2.37,1.93,3.31l1.52,1.17c1.17.68,2.43,1.02,3.79,1.02h1.18c1.03.04,2-.18,2.89-.65.93-.3,1.73-.82,2.41-1.55.73-.68,1.25-1.48,1.55-2.41.47-.89.68-1.86.65-2.89l-.27-1.99c-.36-1.27-1-2.37-1.93-3.31l-1.52-1.17c-1.17-.68-2.43-1.02-3.79-1.02h0Z"/>
  <path d="M646.54,431.97c-.77.02-1.53,0-2.3-.09l1.99.27c-.45-.08-.86-.19-1.28-.36l1.79.76c-.66-.36-.41-.14.75.66l2.2,5.3v-2c0-3.75-3.45-7.91-7.5-7.5-10.01,1.02-19.95,2.97-30.05,2.79-3.92-.07-7.68,3.5-7.5,7.5s3.29,7.43,7.5,7.5c10.1.18,20.04-1.77,30.05-2.79l-7.5-7.5c0,1.02,0,1.98.13,3,.36,2.68,2.03,4.71,4.34,5.99s4.86,1.53,7.36,1.47c3.92-.1,7.68-3.38,7.5-7.5s-3.3-7.6-7.5-7.5h0Z"/>
  <path d="M588.58,441.11c18.99,8.95,37.98,17.9,56.97,26.85s36.44,17.15,54.76,25.5c18.76,8.55,37.64,16.85,56.69,24.74,18.58,7.69,37.33,14.95,56.32,21.55,9.44,3.28,18.93,6.4,28.48,9.33,8.18,2.51,16.4,4.94,24.42,7.94,1.95.73,3.88,1.5,5.8,2.31l-1.79-.76c4.95,2.1,9.78,4.48,14.34,7.33,1.12.7,2.21,1.42,3.29,2.17.54.38,1.07.76,1.6,1.15.22.16.64.38.79.59-.23-.33-1.41-1.11-.43-.32,2.13,1.69,4.14,3.51,6.04,5.45l1.52-11.78c-3.45,2.46-7.13,4.53-11.03,6.2l1.79-.76c-4.78,2-9.77,3.35-14.9,4.04l1.99-.27c-5.88.74-11.8.62-17.67-.16l1.99.27c-10.61-1.47-20.79-4.96-30.62-9.1l1.79.76c-5.9-2.5-11.69-5.24-17.47-8.02-1.84-.89-3.75-1.32-5.78-.76-1.74.48-3.63,1.82-4.48,3.45-1.77,3.36-1.08,8.44,2.69,10.26,24.31,11.72,51.52,23.94,79.01,16.56,7.2-1.93,14.18-5.18,20.25-9.52,1.98-1.41,3.25-3.02,3.58-5.48s-.38-4.58-2.06-6.3c-14.47-14.77-34.45-21.66-53.75-27.6-21.6-6.64-42.96-13.84-64.06-21.94-12.17-4.67-24.25-9.58-36.26-14.65l1.79.76c-20.53-8.67-40.85-17.82-61.07-27.17-20.48-9.47-40.88-19.14-61.29-28.76-11.9-5.61-23.79-11.21-35.69-16.82-1.86-.88-3.73-1.32-5.78-.76-1.74.48-3.63,1.82-4.48,3.45-1.76,3.33-1.1,8.48,2.69,10.26h0Z"/>
  <path d="M831.57,569.71c-1.35.89-2.76,1.65-4.25,2.28l1.79-.76c-2.37.97-4.83,1.61-7.36,1.97l1.99-.27c-3.39.44-6.79.39-10.17-.06l1.99.27c-4.95-.7-9.7-2.25-14.29-4.19l1.79.76c-7.93-3.39-15.45-7.73-23.12-11.66s-15.96-8.04-24.03-11.89c-4.62-2.2-9.26-4.37-13.91-6.5-2.26-1.03-4.33-1.37-6.67-.38-2.06.87-3.82,2.6-4.34,4.86-.68,2.9-.15,5.68,1.67,8.03,1.7,2.2,4.47,3.69,7.31,3.53,3.91-.22,7.69-3.3,7.5-7.5-.17-3.88-3.3-7.73-7.5-7.5l-.32.02,1.99.27-.31-.06,1.79.76c-.7-.35-.47-.05.71.88.94,1.18,1.23,1.42.87.71l.76,1.79-.07-.31.27,1.99v-.32c-.09.66-.18,1.33-.27,1.99l.07-.31c-3.67,1.49-7.34,2.99-11.02,4.48,13.59,6.22,27.04,12.76,40.32,19.62s26.19,14.76,41.26,15.91c7.94.61,16.42-1.06,23.13-5.48,3.27-2.16,4.97-6.73,2.69-10.26-2.1-3.26-6.76-5-10.26-2.69h0Z"/>
  <path d="M794.45,567.8c-11.34,1.31-22.81,2.59-34.21,1.11l1.99.27c-6.73-.92-13.2-2.9-19.45-5.53l1.79.76c-15.23-6.49-28.7-16.37-43.76-23.2-4.74-2.14-9.57-4.08-14.58-5.5-3.77-1.07-8.33,1.31-9.23,5.24s1.2,8.08,5.24,9.23c3.43.97,6.78,2.18,10.07,3.55l-1.79-.76c12.27,5.19,23.4,12.58,35.11,18.86,6.12,3.28,12.45,6.27,19.02,8.54,7.33,2.53,15.03,3.84,22.77,4.15,9.04.35,18.06-.68,27.02-1.72,2.05-.24,3.79-.68,5.3-2.2,1.3-1.3,2.28-3.44,2.2-5.3s-.72-3.95-2.2-5.3c-1.37-1.26-3.37-2.42-5.3-2.2h0Z"/>
  <path d="M730.37,560.48c-6.55,2.65-13.2,5.26-20.24,6.24l1.99-.27c-2.91.37-5.83.44-8.75.09l1.99.27c-2.97-.4-5.8-1.26-8.57-2.4l1.79.76c-3.87-1.65-7.5-3.78-11.14-5.87-3.97-2.28-7.94-4.56-11.92-6.84-8.09-4.64-16.18-9.29-24.27-13.93-4.55-2.61-9.1-5.22-13.65-7.84-3.4-1.95-8.36-.91-10.26,2.69s-.94,8.17,2.69,10.26c13,7.46,26,14.93,39,22.39,6.21,3.57,12.35,7.39,18.76,10.6,6.9,3.45,14.23,5.64,22.02,5.07,8.62-.63,16.59-3.53,24.53-6.75,1.88-.76,3.42-1.62,4.48-3.45.94-1.61,1.34-3.98.76-5.78s-1.71-3.57-3.45-4.48-3.95-1.5-5.78-.76h0Z"/>
  <path d="M669.5,554.15c-2.1,1.43-4.33,2.64-6.66,3.65l1.79-.76c-3.26,1.37-6.65,2.31-10.15,2.81l1.99-.27c-3.5.46-7.02.48-10.53.02l1.99.27c-4.04-.57-7.94-1.74-11.7-3.31l1.79.76c-8.54-3.63-16.11-9.08-23.77-14.23-8.38-5.64-17.01-10.89-25.87-15.73-5.02-2.74-10.12-5.35-15.28-7.83-1.84-.89-3.75-1.32-5.78-.76-1.74.48-3.63,1.82-4.48,3.45-1.77,3.35-1.08,8.45,2.69,10.26,14.65,7.04,28.75,15.16,42.21,24.27,12.97,8.78,26.55,17.96,42.82,18.19,9.28.13,18.81-2.64,26.49-7.84,3.24-2.2,4.99-6.7,2.69-10.26-2.08-3.23-6.79-5.04-10.26-2.69h0Z"/>
  <path d="M646.08,566.93c-2.5-3.49-5.01-6.97-7.51-10.46-1.89-2.63-5.12-4.53-8.47-3.45-3.01.97-5.72,3.87-5.51,7.23.44,6.97,3.78,12.61,7.92,18.01,3.83,5,7.06,10.13,9.54,15.93l-.76-1.79c3.31,7.86,5.68,16.13,8.11,24.3,2.55,8.6,4.94,17.24,7.17,25.93,4.41,17.22,8.18,34.61,11.29,52.11,1.76,9.92,3.31,19.88,4.66,29.87l-.27-1.99c2.53,18.88,4.32,37.86,5.34,56.88,1.01,18.94,1.27,37.92.76,56.88-.29,10.82-.75,21.66-2.16,32.4l.27-1.99c-.64,4.77-1.48,9.52-2.58,14.21l14.73,1.99c-2.67-23.49-5.35-47.02-9.81-70.26-2.17-11.32-4.78-22.56-8.03-33.61-3.25-11.07-7.37-21.78-11.64-32.49-2.35-5.9-4.66-11.83-6.54-17.9s-3.31-12.74-4.2-19.28l.27,1.99c-2.06-15.44-2.06-31.12-5.13-46.43-2.67-13.31-8.03-26.24-15.47-37.58-4.33-6.59-9.35-12.78-14.98-18.3-2.8-2.75-7.85-3-10.61,0s-2.99,7.67,0,10.61c2.35,2.3,4.59,4.71,6.7,7.23.53.63,1.05,1.26,1.56,1.91.26.32.5.65.76.97-1.43-1.71-.5-.64-.17-.21,1.03,1.37,2.02,2.76,2.98,4.18,3.73,5.5,6.9,11.37,9.5,17.48l-.76-1.79c3.77,8.96,6.1,18.32,7.4,27.94l-.27-1.99c1.54,11.65,1.85,23.41,3.35,35.06.81,6.29,1.85,12.53,3.55,18.65,1.55,5.6,3.52,11.07,5.62,16.48,4.16,10.74,8.59,21.33,12.04,32.33,3.45,10.99,6.23,22.19,8.54,33.47,2.62,12.78,4.64,25.68,6.38,38.61l-.27-1.99c1.56,11.63,2.89,23.28,4.22,34.93.22,1.96.66,3.89,2.2,5.3,1.24,1.14,2.63,1.84,4.31,2.06,3.54.48,7.37-1.72,8.23-5.37,2.61-11.13,3.82-22.57,4.45-33.97.6-10.9.81-21.82.82-32.73.03-21.59-.94-43.17-2.88-64.67-1.99-22.08-4.98-44.09-8.95-65.91s-8.7-42.3-14.49-63.1c-2.83-10.18-5.72-20.43-9.28-30.38-1.86-5.19-3.97-10.37-6.73-15.16-2.34-4.07-5.37-7.6-8.08-11.41-1.27-1.79-2.43-3.66-3.31-5.68l.76,1.79c-.59-1.41-1.01-2.85-1.23-4.36l.27,1.99c-.05-.38-.08-.77-.1-1.15l-13.98,3.79c2.5,3.49,5.01,6.97,7.51,10.46,1.17,1.63,2.49,2.9,4.48,3.45,1.8.49,4.19.27,5.78-.76,3.15-2.03,5.14-6.85,2.69-10.26h0Z"/>
  <path d="M643.71,743.22c4.4,17.91,8.79,35.87,11.28,54.17l-.27-1.99c2.13,15.89,2.76,32,.62,47.92l.27-1.99c-1.45,10.6-4.09,21.03-8.22,30.91l.76-1.79c-2.53,5.98-5.58,11.72-9.23,17.09-.9,1.32-1.83,2.6-2.79,3.87-.46.61,1.19-1.51.16-.22-.22.27-.43.53-.65.8-.53.63-1.07,1.25-1.64,1.85s-1.14,1.18-1.75,1.74c-.3.28-.61.55-.92.81-.58.49-1.35.67.24-.16-1.44.75-2.67,1.77-4.18,2.44l1.79-.76c-1.39.58-2.83.96-4.32,1.17l1.99-.27c-1.24.14-2.47.15-3.71,0l1.99.27c-1.09-.15-2.15-.42-3.18-.82l1.79.76c-.67-.29-1.3-.63-1.92-1.02-1.03-.64,1.13,1,.5.4-.25-.24-.52-.47-.76-.72-.19-.2-.36-.44-.56-.63,1.36,1.29.83,1.12.4.46-.35-.55-.63-1.12-.89-1.71l.76,1.79c-.44-1.12-.72-2.26-.89-3.45l.27,1.99c-.2-1.72-.14-3.43.07-5.14l-.27,1.99c.52-3.87,1.74-7.6,3.17-11.21,1.82-4.61,3.65-9.2,5.32-13.86,3.39-9.46,6.35-19.08,8.88-28.81,5.15-19.87,8.47-40.25,10.01-60.72.42-5.59.7-11.2.83-16.81.15-6.26-.03-12.69-4.69-17.47-2.74-2.82-7.89-2.96-10.61,0s-2.92,7.6,0,10.61c.17.17.34.34.49.53-.75-1.02-.97-1.28-.65-.8.19.37.4.72.57,1.1l-.76-1.79c.41,1.02.65,2.07.8,3.16l-.27-1.99c.38,3.28.12,6.65.01,9.93-.12,3.66-.31,7.32-.55,10.97-.49,7.31-1.23,14.6-2.2,21.86l.27-1.99c-2.87,21.32-7.77,42.35-14.67,62.72-1.7,5.02-3.52,10-5.46,14.93-1.64,4.16-3.41,8.27-4.41,12.64-1.09,4.81-1.63,10.25.04,15,2.06,5.85,6.42,10.29,12.41,12.12,5.78,1.76,12.16.63,17.4-2.17s8.86-6.99,12.3-11.46c6.15-7.99,10.77-16.93,14.38-26.32,7.13-18.55,9.33-38.97,8.4-58.72-1.07-22.75-5.99-45.12-11.35-67.18-.65-2.67-1.31-5.35-1.96-8.02-.94-3.81-5.45-6.46-9.23-5.24s-6.24,5.14-5.24,9.23h0Z"/>
  <path d="M610.46,870.7c-7.36,17.4-16.24,34.16-26.54,50-2.94,4.52-5.99,8.96-9.15,13.32l13.71,1.79c-.1-.63-.19-1.27-.28-1.9l.27,1.99c-1.37-10.28-.96-20.67.4-30.93l-.27,1.99c1.73-12.79,4.86-25.32,7.91-37.84s5.89-25.32,8.34-38.09c4.97-25.91,8.59-52.11,10.86-78.39.53-6.16,1.2-12.4.6-18.58-.32-3.29-.79-6.63-1.92-9.76-1.37-3.79-3.21-7-5.84-10.05s-8.01-2.83-10.61,0c-2.92,3.18-2.74,7.42,0,10.61.04.05.47.59.49.58-.06.02-1.1-1.51-.49-.62.32.46.63.92.92,1.4.54.9,1,1.85,1.41,2.82l-.76-1.79c.95,2.34,1.53,4.78,1.88,7.27l-.27-1.99c1.11,8.57-.14,17.41-.95,25.95-.93,9.89-2.06,19.75-3.39,29.6l.27-1.99c-2.69,19.93-6.17,39.74-10.46,59.39-4.34,19.9-10.11,39.52-12.77,59.75-1.52,11.56-1.61,23.05.18,34.58.18,1.13,1.14,2.52,1.93,3.31,1.17,1.17,2.68,1.84,4.31,2.06,3.16.42,5.66-1.07,7.47-3.58,11.08-15.31,20.81-31.58,29.03-48.6,2.34-4.85,4.56-9.76,6.66-14.72.82-1.94,1.34-3.65.76-5.78-.48-1.74-1.82-3.63-3.45-4.48-1.74-.92-3.85-1.38-5.78-.76-1.72.56-3.74,1.7-4.48,3.45h0Z"/>
  <path d="M114.93,327.34c9.3.66,18.57,1.62,27.8,2.86l-1.99-.27c22.69,3.07,45.21,7.8,67.14,14.39,5.71,1.72,11.36,3.62,16.86,5.93l-1.79-.76c3.71,1.57,7.34,3.32,10.83,5.33,1.71.99,3.39,2.04,5.02,3.15.79.54,1.58,1.1,2.35,1.67.18.13.36.27.54.4,1,.74-.36-.29-.46-.36.43.29.82.65,1.22.97,6.31,5.13,11.85,11.12,17.33,17.1,12.16,13.27,24.31,26.55,36.46,39.83,11.65,12.73,23.28,25.47,34.67,38.42s22.63,26.22,33.34,39.84c.64.81,1.27,1.62,1.9,2.43.34.44.68.87,1.02,1.31.15.19.29.38.44.56.61.78-.9-1.17-.3-.39,1.3,1.69,2.6,3.39,3.89,5.09,2.35,3.11,4.66,6.24,6.95,9.38,4.16,5.71,8.25,11.47,12.32,17.24,8.23,11.66,16.4,23.37,24.98,34.77s17.84,23,27.83,33.57c9.85,10.42,20.61,19.99,32.38,28.21,5.65,3.95,11.56,7.55,17.69,10.72,5.62,2.9,11.43,5.4,17.16,8.07s11.21,5.35,16.47,8.66c1.3.82,2.58,1.67,3.83,2.57.26.19.53.38.79.57.13.1.26.19.39.29.88.65-.77-.57-.75-.58.18-.08,1.56,1.26,1.74,1.41,2.19,1.85,4.14,3.9,5.96,6.1.3.37-1.19-1.62-.44-.55.2.29.41.58.62.87.37.54.73,1.1,1.06,1.66.7,1.18,1.32,2.4,1.87,3.66l-.76-1.79c.94,2.24,1.6,4.56,2,6.95l1.93-7.3c-12.95,10.18-22.3,24.32-27.98,39.68-5.7,15.4-7.11,32.14-4.61,48.33,1.41,9.08,4.39,17.87,8.6,26.03,2.16,4.19,8.62,4.96,11.78,1.52,7.16-7.79,14.31-15.59,21.47-23.38-3.93-3.03-7.85-6.06-11.78-9.09-15.11,23.87-23.96,51.42-26.14,79.55-.59,7.64-.64,15.31-.16,22.95.19,3.04,1.73,5.64,4.61,6.85s5.91.51,8.19-1.55c14.05-12.67,25.8-28.15,34.18-45.12,2.56-5.19,4.83-10.53,6.83-15.96.61-1.66.19-4.31-.76-5.78s-2.05-2.42-3.59-3.07c-3.55-1.5-7.27-.08-9.37,3.07-15.83,23.79-26.85,51.01-32,79.12-1.54,8.4-2.61,16.9-3.18,25.42-.17,2.59,1.55,5.21,3.71,6.48,2.42,1.42,5.14,1.23,7.57,0,13.27-6.73,25.27-16.28,34.97-27.57,10.16-11.83,18.02-25.36,23.13-40.11,2.86-8.24,4.6-16.74,5.55-25.4.17-1.59-.69-3.35-1.61-4.54s-2.33-2.33-3.9-2.69c-3.32-.76-6.65.53-8.47,3.45-9.78,15.7-19.38,31.47-26.41,48.63-6.62,16.16-10.5,33.93-9.07,51.45.86,10.5,3.43,20.57,8.14,30.02,2.07,4.15,8.73,5.01,11.78,1.52,11.17-12.79,19.83-27.3,25.86-43.17.65-1.72.14-4.25-.76-5.78s-2.69-3.04-4.48-3.45c-1.92-.44-4.07-.34-5.78.76s-2.72,2.56-3.45,4.48c-.57,1.5-1.16,2.98-1.78,4.46l.76-1.79c-2.7,6.37-5.88,12.53-9.54,18.4-1.81,2.9-3.73,5.74-5.77,8.49-.52.7-1.04,1.41-1.58,2.09l.64-.83c-.18.23-.36.46-.54.69-.27.34-.54.68-.82,1.02-1.1,1.36-2.23,2.69-3.38,4.01l11.78,1.52c-.63-1.27-1.23-2.56-1.78-3.87l.76,1.79c-2.46-5.88-4.05-12.05-4.9-18.35l.27,1.99c-1.03-7.94-.88-15.96.17-23.89l-.27,1.99c1.48-10.8,4.67-21.23,8.9-31.27l-.76,1.79c6.74-15.88,15.85-30.56,24.95-45.16l-13.98-3.79c-.1.87-.2,1.73-.31,2.59l.27-1.99c-1.29,9.5-3.87,18.77-7.58,27.6l.76-1.79c-1.99,4.7-4.28,9.26-6.88,13.65-1.27,2.14-2.6,4.24-4.01,6.3-.7,1.03-1.42,2.04-2.15,3.05-.33.45-.66.9-1,1.35-.19.25-.38.49-.56.74,1.38-1.88.6-.77.26-.34-3.16,4.01-6.58,7.8-10.24,11.35-1.79,1.73-3.63,3.4-5.53,5-.95.8-1.91,1.59-2.89,2.36-.2.15-.39.31-.59.46,1.75-1.39.91-.7.48-.38-.54.41-1.09.82-1.64,1.22-4.62,3.37-9.51,6.37-14.61,8.95,3.76,2.16,7.52,4.32,11.29,6.48.31-4.66.78-9.3,1.4-13.92l-.27,1.99c2.46-18.07,7.31-35.77,14.37-52.59l-.76,1.79c5.05-11.96,11.2-23.43,18.39-34.24-4.57-1.93-9.14-3.85-13.71-5.78-.82,2.22-1.68,4.41-2.6,6.59l.76-1.79c-3.21,7.54-7.04,14.82-11.47,21.72-2.18,3.39-4.5,6.68-6.94,9.89-.73.97.35-.45.41-.53-.16.22-.34.44-.51.66-.26.33-.52.65-.78.98-.7.87-1.4,1.73-2.12,2.58-1.3,1.54-2.63,3.06-3.98,4.54-3.14,3.43-6.45,6.71-9.91,9.83l12.8,5.3c-.67-10.68-.29-21.39,1.11-32l-.27,1.99c1.99-14.76,5.93-29.22,11.71-42.94l-.76,1.79c3.5-8.25,7.66-16.2,12.45-23.77,2-3.16.91-7.48-1.93-9.68s-7.31-2.18-9.85.59c-7.16,7.79-14.31,15.59-21.47,23.38l11.78,1.52c-.9-1.75-1.74-3.53-2.51-5.34l.76,1.79c-2.77-6.59-4.62-13.52-5.58-20.61l.27,1.99c-1.01-7.68-.98-15.46.02-23.13l-.27,1.99c1.08-8.03,3.21-15.89,6.36-23.36l-.76,1.79c2.67-6.26,6.03-12.21,10.09-17.67.34-.46,1.49-1.86-.13.14.22-.27.43-.54.64-.81.57-.72,1.16-1.43,1.76-2.13,1.05-1.22,2.13-2.42,3.26-3.57,2.41-2.49,5-4.8,7.72-6.95,2.19-1.72,2.33-4.84,1.93-7.3-2.73-16.57-17.04-27.3-31-34.56-6.87-3.57-14-6.6-20.99-9.91-7.75-3.67-15.18-7.99-22.22-12.89-1.76-1.22-3.49-2.48-5.2-3.77-.4-.3-.8-.61-1.2-.91s-1.06-.87.62.48c-.2-.16-.4-.31-.59-.46-.89-.7-1.78-1.41-2.65-2.12-3.27-2.67-6.46-5.45-9.56-8.32-6.34-5.88-12.33-12.13-18.04-18.63-2.89-3.28-5.7-6.62-8.46-10.01-1.39-1.7-2.76-3.42-4.12-5.14-.64-.81-1.28-1.63-1.92-2.45-.16-.21-1.35-1.75-.49-.62s.02.02-.13-.17c-.2-.26-.39-.51-.59-.77-5.34-6.98-10.51-14.09-15.61-21.25-10.45-14.65-20.62-29.51-31.46-43.87-13.26-17.55-27.33-34.46-41.84-50.98s-28.82-32.07-43.38-47.97c-7.58-8.28-15.16-16.57-22.75-24.85-6.99-7.64-13.82-15.57-21.74-22.29-4.15-3.51-8.55-6.73-13.27-9.44s-9.78-4.96-14.88-6.98c-9.59-3.8-19.59-6.56-29.56-9.14-21.65-5.6-43.72-9.51-65.95-11.9-5.27-.56-10.55-1.03-15.84-1.41-3.92-.28-7.67,3.65-7.5,7.5.19,4.3,3.3,7.2,7.5,7.5h0Z"/>
  <path d="M345.01,351.6c-1.29.73-2.59,1.44-3.96,2.03l1.79-.76c-1.24.5-2.48.88-3.81,1.06l1.99-.27c-1.31.12-2.59.05-3.89-.12l1.99.27c-2.78-.41-5.64-.88-8.25-1.97l1.79.76c-.45-.2-.89-.41-1.31-.66-.21-.12-.41-.25-.61-.39,1.02.82,1.25.99.67.5-.18-.16-.35-.33-.52-.51-.49-.57-.33-.36.46.62-.08-.42-.57-.99-.75-1.4l.76,1.79c-.4-1.01-.64-2.04-.8-3.11l.27,1.99c-.28-2.28-.38-4.68-.08-6.96l-.27,1.99c.11-.67.27-1.3.51-1.94l-.76,1.79c.16-.36.42-.71.56-1.06-.81.99-1.03,1.27-.64.85.11-.13.23-.25.36-.36.85-.85-1.59.92-.44.38.31-.14.6-.32.91-.46l-1.79.76c1.1-.45,2.24-.72,3.42-.89l-1.99.27c3.03-.4,6.2-.5,9.23-.1l-1.99-.27c1.24.19,2.43.49,3.6.95l-1.79-.76c.8.35,1.51.76,2.25,1.23.47.33.21.13-.77-.61.19.16.38.32.56.49.27.26.54.52.79.8.54.6.58,1.21-.22-.35.17.33.44.63.63.94.47.76.87,1.55,1.22,2.37l-.76-1.79c.57,1.38,1,2.8,1.2,4.28l-.27-1.99c.05.6.06,1.17,0,1.77l.27-1.99c-.09.5-.21.95-.39,1.41l.76-1.79c-.09.21-.19.41-.3.6-.41.63-.21.4.59-.69-.29.25-.56.58-.84.85-.44.38-.17.16.83-.64-.19.13-.39.26-.59.38-.41.24-.84.44-1.28.63l1.79-.76c-.78.3-1.56.53-2.38.69l9.23,9.23c.07-.38.15-.71.29-1.08l-.76,1.79c.33-.71.87-1.07-.39.26.88-.93-1.53.96-.36.25l-5.78.76.22.06-1.79-.76-2.24-2.26-.76-1.79c.07.13.11.27.13.42l-.27-1.99c.02.15.02.31,0,.46l.27-1.99c-.02.15-.07.3-.14.44l.76-1.79,2.24-2.2,1.79-.76c-.17.09-.34.13-.53.14l1.99-.27-.31-.03,1.99.27-.3-.1,1.79.76c.72.46,1.31,1.05,1.78,1.77l.76,1.79c-.1-.2-.16-.42-.18-.64l.27,1.99v-.33c-.08.66-.17,1.33-.26,1.99.03-.22.09-.43.18-.63l-.76,1.79c.52-.96-.8.88-1.09,1.1-1.01.78-.21.22.11.08l-1.79.76c.19-.08.39-.13.6-.16l-1.99.27.28.04-3.79-1.02.2.13-2.69-2.69.09.19-1.02-3.79v.22c.09-.66.18-1.33.27-1.99l-.07.24.76-1.79c-.38.67-.08.4.9-.8,1.23-1.02,1.44-1.3.64-.84l1.79-.76c-.26.13-.54.2-.83.21h3.99l-.42-.06,1.79.76c1.9,2.45,2.56,3.11,1.98,1.97l.76,1.79-.07-.26.27,1.99c-.03-.18-.04-.36-.01-.54l-.27,1.99c.02-.18.08-.36.16-.52l-.76,1.79c-2.3,1.85-2.87,2.48-1.73,1.89l-1.79.76c.21-.08.43-.14.66-.16l-1.99.27c.23-.03.46-.03.69-.01l-1.99-.27c.23.02.44.06.66.13l-1.79-.76.28.16-2.69-2.69.19.25-1.02-3.79.03.32.27-1.99-.12.32.76-1.79c.29-.58.7-1.04,1.23-1.39.6-.42.66-.51.19-.25l1.79-.76c-.33.12-.61.19-.96.24l1.99-.27c-.22.02-.44.01-.65-.02l1.99.27c-.22-.03-.42-.09-.62-.18l1.79.76c-.67-.37-.42-.16.76.63.79,1.16,1.03,1.4.71.73l.76,1.79c-.07-.19-.11-.39-.14-.59l.27,1.99c-.02-.2-.02-.4.01-.6l-.27,1.99c.03-.2.09-.39.17-.56l-.76,1.79c-.5.78-1.14,1.41-1.93,1.9l-1.79.76c.16-.08.32-.13.49-.16l-1.99.27c.17-.03.35-.04.52-.02l-1.99-.27c.28.04.49.1.75.2l-1.79-.76c.65.39.37.08-.86-.95-1-1.24-1.33-1.52-.98-.85l-.76-1.79.07.25-.27-1.99.02.26.27-1.99c0,.17-.05.33-.12.48l.76-1.79c.36-.63.85-1.14,1.45-1.53.65-.44.76-.54.33-.3l1.79-.76c-.16.07-.32.12-.49.14l1.99-.27c-.16.02-.33.02-.49-.02l1.99.27-.23-.07,1.79.76,2.14,2.17.76,1.79c-.08-.16-.14-.33-.15-.51l.27,1.99v-.27c-.09.66-.18,1.33-.27,1.99.01-.19.06-.36.13-.54l-.76,1.79c.24-.45.14-.36-.29.28-.38.57-.87,1.03-1.48,1.37l-1.79.76c.2-.1.41-.16.63-.18l-1.99.27c.25-.03.49-.01.73.04l-1.99-.27.36.1-1.79-.76c.31.13,1.24.75.21,0-.35-.19-.62-.46-.82-.81-.4-.58-.46-.62-.18-.13l-.76-1.79c.1.22.16.46.18.7l-.27-1.99-.02.36.27-1.99-.11.37.76-1.79c.84-.96,1-1.16.47-.59-.44.39-.4.37.13-.07,1.05-.82-.35.1-.64.23l1.79-.76c-.39.14-.75.23-1.16.29l1.99-.27c-.27.03-.53.03-.8,0l1.99.27c-.36-.05-.66-.13-1-.26l1.79.76c-1.04-.52,1.08,1.13.52.51-.5-.56,1.06,1.68.49.56l.76,1.79c-.09-.21-.15-.42-.18-.64l.27,1.99c-.03-.21-.03-.42,0-.63l-.27,1.99c.03-.19.09-.38.18-.55l-.76,1.79c.38-.63.16-.36-.64.81-1.17.81-1.43,1.04-.78.7l-1.79.76c.18-.07.36-.12.55-.15l-1.99.27c.19-.02.37-.02.56.02l-1.99-.27.27.08-1.79-.76c.66.36.42.08-.75-.87-.97-1.16-1.25-1.39-.85-.7l-.76-1.79c.09.2.15.41.19.62l-.27-1.99c.04.34.04.62,0,.96l.27-1.99c-.03.21-.09.42-.17.62l.76-1.79c-.37.85-.68.62.49-.43l1.03-.76c-.18.12-.37.22-.57.3l1.79-.76c-.2.07-.41.12-.63.15l1.99-.27c-.21.02-.43.03-.64,0l1.99.27c-.34-.05-.62-.12-.94-.24l1.79.76c-.31-.15-1.14-.73-.05.07.38.21.68.51.9.88.42.61.51.68.24.22l-2.69,10.26.27-.18-1.79.76c.18-.09.37-.15.57-.16l-1.99.27h.3c-.66-.08-1.33-.17-1.99-.26.21.03.42.08.61.17l-1.79-.76c.21.09.41.2.6.33-.97-.8-1.25-1-.83-.6.41.42.21.14-.6-.85.15.2.27.41.37.64l-.76-1.79.11.34-.27-1.99.03.35.27-1.99-.08.34.76-1.79c1.67-2.56,2.93-2.43,1.42-1.74l1.79-.76c-.36.13-.68.21-1.06.28l1.99-.27c-.5.05-.96.05-1.46-.01l1.99.27c-.37-.08-.7-.17-1.05-.3l1.79.76c-1.41-.67-.34-.82,1.24,1.52l.76,1.79-.12-.35.27,1.99v-.37c-.09.66-.18,1.33-.27,1.99l.07-.22-.76,1.79-2.23,2.27-1.79.76.21-.06-1.99.27c.15-.03.31-.04.46-.02l-1.99-.27c.16.02.31.06.45.13l-1.79-.76-2.19-2.24-.76-1.79.09.22-.27-1.99c.05.2.05.4,0,.59l.27-1.99-.1.28.76-1.79c.47-.75,1.07-1.37,1.81-1.86l1.79-.76c-.19.09-.39.14-.6.16l1.99-.27h-.31c.66.08,1.33.17,1.99.26-.23-.03-.44-.1-.65-.21l1.79.76c.72.44,1.28,1.03,1.7,1.75-.13-.2-.23-.41-.31-.63l.76,1.79c-.08-.22-.14-.45-.17-.69l.27,1.99c-.03-.24-.03-.48-.01-.73l-.27,1.99c.02-.24.08-.47.16-.7l-.76,1.79c.38-.72.1-.5-.86.66-1.16.93-1.41,1.22-.75.86l-1.79.76c.18-.07.37-.11.57-.12l-1.99.27h.29c-.66-.08-1.33-.17-1.99-.26.19.02.37.06.54.14l-1.79-.76-2.08-2.14-.76-1.79c.1.18.16.38.17.59l-.27-1.99-.02.3.27-1.99c-.03.21-.1.41-.2.59l.76-1.79c.9-1.04,1.09-1.28.57-.74,1.13-.79,1.35-1,.65-.62l1.79-.76c-.36.14-.68.23-1.06.3l1.99-.27c-.38.03-.72.03-1.1,0l1.99.27c-.38-.07-.69-.16-1.05-.3l1.79.76c-1-.53.77.76,1,1.08.79,1.08.17.18.04-.09l.76,1.79c-.12-.33-.2-.63-.26-.98l.27,1.99c-.03-.22-.03-.45,0-.67l-.27,1.99c.06-.35.13-.63.27-.97l-.76,1.79c.38-.64.17-.39-.62.76-1.14.8-1.39,1.01-.74.64l-1.79.76c.31-.13.57-.21.9-.27l-1.99.27c.21-.03.41-.03.62-.01l-1.99-.27c.21.02.41.06.6.13l-1.79-.76.29.13c-.6-.34-1.08-.8-1.44-1.37-.8-1.07-.28-.34-.13-.02l-.76-1.79c.07.18.12.37.15.57l-.27-1.99c.03.31.03.56,0,.87l.27-1.99c-.03.19-.09.37-.17.54l.76-1.79c-.39.65-.11.39.85-.76,1.16-.98,1.38-1.26.68-.84l1.79-.76c-.35.13-.65.22-1.02.28l1.99-.27c-.36.02-.67.02-1.02-.03l1.99.27c-.34-.07-.64-.16-.97-.29l1.79.76c-.67-.33-1.07-.9.41.43-.89-.8.99,1.58.41.46l.76,1.79c-.09-.2-.15-.41-.2-.62l.27,1.99c-.04-.21-.06-.43-.04-.64l-.27,1.99c.04-.33.11-.59.24-.9l-.76,1.79c.54-.99-1.14,1.23-.53.64.5-.48-1.67,1.08-.62.58l-1.79.76c.19-.08.38-.13.58-.16l-1.99.27c.2-.03.4-.03.59,0l-1.99-.27c.2.03.4.09.58.18l-1.79-.76c-.59-.35-1.06-.8-1.41-1.37-.43-.63-.51-.72-.25-.27l-.76-1.79c.12.3.2.56.26.87l-.27-1.99c.03.32.03.61,0,.93l.27-1.99c-.03.21-.08.41-.16.6l.76-1.79c-.35.81-.67.6.45-.42l.98-.73c-.2.13-.4.25-.61.35l1.79-.76c-.45.19-.89.32-1.37.41l1.99-.27c-.63.08-1.22.08-1.85,0l1.99.27c-.39-.08-.74-.17-1.12-.31l1.79.76c-.67-.36-.49-.18.55.55.75,1.11.94,1.34.57.68l.76,1.79c-.1-.21-.17-.43-.21-.66l.27,1.99c-.04-.22-.05-.45-.02-.67l-.27,1.99c.03-.23.09-.44.2-.64l-.76,1.79c-.3.53-.7.97-1.19,1.31-.57.4-.62.48-.16.24l-1.79.76c.2-.08.41-.13.62-.17l-1.99.27c.34-.04.63-.04.97,0l-1.99-.27c.33.06.62.14.94.26l-1.79-.76c.31.15,1.13.73.06-.07-.38-.21-.68-.51-.9-.89-.43-.61-.5-.68-.23-.22l-.76-1.79.12.36-.27-1.99-.04.36,2.2-5.3-.22.22,3.31-1.93-.31.11,1.99-.27c-.88.1-1.76.1-2.64.03l1.99.27c-.43-.06-.83-.15-1.24-.28l1.79.76c-.33-.14-1.18-.73-.18.06.5.43.61.51.34.25-.41-.42-.19-.15.65.81l.76,1.79c-.1-.19-.17-.4-.21-.61l.27,1.99c-.03-.19-.04-.39-.02-.59l-.27,1.99c.02-.2.06-.39.13-.57l-.76,1.79c.23-.46.13-.37-.3.26-.38.57-.88,1.02-1.48,1.37l-1.79.76c.17-.09.36-.13.56-.14l-1.99.27.28.02-1.99-.27.28.08-1.79-.76c.68.38.42.08-.79-.91-.96-1.21-1.27-1.47-.94-.78l-.76-1.79.05.27-.27-1.99v.27c.08-.66.17-1.33.25-1.99l-.09.27,5.24-5.24c-.44.15-.84.24-1.31.3l1.99-.27c-.47.03-.88.01-1.34-.04l1.99.27c-.39-.08-.71-.17-1.07-.32l1.79.76c-.3-.15-1.17-.76-.09.04.38.21.67.5.89.87.42.61.5.68.24.22l.76,1.79c-.09-.2-.14-.4-.17-.61l.27,1.99v-.33c-.1.66-.19,1.33-.28,1.99,0-.18.05-.34.12-.51l-.76,1.79c.35-.63.12-.34-.71.89-1.21.82-1.49,1.08-.84.77l-1.79.76.25-.07-1.99.27c.16-.03.32-.04.49-.03l-1.99-.27.23.05-1.79-.76c.64.3.33.05-.94-.74l10.61-10.61c1.47,1.65.46.63.15-.06l.76,1.79c-.14-.36-.24-.71-.32-1.09l.27,1.99-.05-.37-5.51,7.23.28-.06-1.99.27h.29c-.66-.09-1.33-.17-1.99-.26l.28.07-1.79-.76c1.14.56.52-.08-1.87-1.92,1.82,3.48,6.97,4.81,10.26,2.69,3.58-2.31,4.59-6.51,2.69-10.26-.25-.48-.49-.97-.74-1.45v7.57l-2.18,2.21-1.79.76c.15-.07.3-.1.46-.12l-1.99.27h.24c-.66-.09-1.33-.18-1.99-.27.17.01.33.05.48.11l-1.79-.76c1.14.57.48-.12-1.97-2.08l-.76-1.79.09.23-.27-1.99c.05.21.05.42,0,.62l.27-1.99-.11.29.76-1.79c2.29-1.84,2.87-2.45,1.76-1.84l1.79-.76-.31.09,1.99-.27-.32.03,1.99.27c-.21,0-.41-.06-.59-.15l1.79.76c.77.48,1.4,1.11,1.89,1.87l.76,1.79c-.09-.18-.15-.36-.19-.56l.27,1.99c-.04-.2-.05-.39-.03-.59l-.27,1.99c.02-.2.07-.39.15-.57l-.76,1.79c-.47.72-1.06,1.31-1.77,1.79l-1.79.76.31-.1-1.99.27.32-.03-1.99-.27.32.06-1.79-.76-1.95-2.08-.76-1.79.12.3-.27-1.99.02.32,9.49-7.23-.26-.05,1.79.76c-.68-.33-.4-.01.84.97,1,1.23,1.32,1.51.96.83l.76,1.79c-.07-.17-.11-.34-.12-.51l.27,1.99v-.26c-.09.66-.17,1.33-.26,1.99.02-.17.07-.34.15-.49l-.76,1.79-2.12,2.17-1.79.76c.16-.07.33-.11.5-.12l-1.99.27h.26c-.66-.08-1.33-.17-1.99-.26.18.02.35.06.51.13l-1.79-.76c1.11.62.47-.05-1.94-2l-.76-1.79.08.25,1.93-7.3,1.13-.85,1.79-.76c-.16.07-.32.12-.49.13l1.99-.27h-.26c.66.08,1.33.17,1.99.26-.18-.02-.35-.06-.51-.14l1.79.76c.8.52,1.46,1.19,1.98,1.98l.76,1.79-.06-.25-.76,5.78.15-.21-2.69,2.69.23-.12-1.79.76.27-.04h-3.99l.28.04-1.79-.76c-1.84-2.32-2.45-2.9-1.84-1.76l-.76-1.79c.34.82.65,1.64.83,2.51l-.27-1.99c.06.42.08.81.05,1.23l.27-1.99c-.06.34-.14.62-.26.94l.76-1.79c-.36.66-.15.42.64-.72,1.16-.77,1.4-.99.73-.66l1.79-.76-.31.07,1.99-.27-.31-.03,3.79,1.02,1.18.89,1.93,3.31-.07-.21.27,1.99v-.24c-.1.66-.18,1.33-.27,1.99.02-.17.07-.34.14-.5l-.76,1.79c-.36.6-.83,1.1-1.4,1.49-.64.44-.72.54-.26.3l-1.79.76c.18-.07.37-.12.57-.15l-1.99.27c.31-.03.58-.04.89-.02l-1.99-.27c.31.05.58.12.87.22l-1.79-.76c.75.33.85.74-.5-.56.83.81-1.05-1.66-.45-.59l-.76-1.79c.09.18.15.37.2.56l-.27-1.99.05.4.27-1.99-.07.39.76-1.79,2.08-2.16,1.79-.76-.29.05,1.99-.27h-.3c.66.08,1.33.17,1.99.26l-.29-.07,1.79.76c-1.42-.68,2.22,2.93,1.65,1.69-.12-.26-.26-.51-.38-.77l-6.48,11.29c.23-.02.45,0,.67.04l-1.99-.27c.22.05.43.12.64.22l-1.79-.76c.65.38.41.19-.71-.57-.76-1.11-.97-1.33-.64-.66l-.76-1.79.09.33,1.93-7.3,1.12-.81,1.79-.76c-.17.09-.34.14-.53.15l1.99-.27h-.28c.66.08,1.33.17,1.99.26l-.27-.07,1.79.76,1.07.86-1.52,11.78.29-.13-1.79.76c.2-.07.4-.13.6-.15l-1.99.27c.33-.03.61-.02.94.02l-1.99-.27c.21.04.41.09.61.17l-1.79-.76c.33.15,1.1.7.05-.11-.38-.22-.69-.52-.9-.91-.43-.62-.51-.7-.24-.24l-.76-5.78-.04.21,1.93-3.31,1.19-.92,1.79-.76-.22.04h3.99l-.22-.03,1.79.76,1.19.9,1.93,3.31-.05-.3v3.99l.09-.29-1.93,3.31-1.04.76-1.79.76.32-.05h-3.99l.31.08-1.79-.76-2.04-1.99-.76-1.79.09.32-.27-1.99v.4c.1-.66.19-1.33.28-1.99-.03.27-.1.53-.21.78l.76-1.79c-.3.53-.23.5.19-.1.35-.5.8-.9,1.34-1.2l1.79-.76-.33.12,1.99-.27c-.18.04-.37.04-.55,0l1.99.27-.25-.09,1.79.76c.61.34,1.11.8,1.5,1.36.43.63.53.71.31.25l.76,1.79-.08-.29.27,1.99c-.04-.2-.05-.4-.03-.59l-.27,1.99c.02-.2.07-.39.16-.57l-.76,1.79c-.89,1.01-1.07,1.24-.55.71-1.09.78-1.3.98-.64.62l-1.79.76c.45-.18.9-.3,1.38-.39l-1.99.27c.42-.05.81-.07,1.23-.02l-1.99-.27c.19.03.38.08.56.16l-1.79-.76c1.14.6.49-.06-1.96-2l-.76-1.79.05.26-.27-1.99-.03.3.27-1.99-.11.27.76-1.79c2.01-2.88,2.77-2.3,1.16-1.56l1.79-.76c-.22.09-.44.16-.68.19l1.99-.27h-.34c.66.09,1.33.18,1.99.27l-.32-.1,1.79.76-.25-.17,2.69,2.69-.18-.23.76,1.79c-.1-.18-.15-.38-.17-.59l.27,1.99v-.32c-.08.66-.17,1.33-.26,1.99l.07-.31-.76,1.79c.23-.46.16-.39-.22.2-.31.52-.74.93-1.28,1.24.27-.02.67-.35.92-.46l-1.79.76c.29-.1.56-.17.87-.22l-1.99.27c.19-.02.37-.02.56.01l-1.99-.27.25.07-1.79-.76-2.19-2.17-.76-1.79.04.31v-3.99l-.06.31.76-1.79c2.36-1.8,2.99-2.43,1.87-1.9l1.79-.76-.26.06,1.99-.27c-.18.02-.36.02-.54-.01l1.99.27-.27-.07,1.79.76c-.45-.22-.35-.11.29.32.58.39,1.05.89,1.42,1.5l.76,1.79-.08-.26.27,1.99-.02-.3-.27,1.99c.01-.2.07-.38.16-.56l-.76,1.79c-.47.76-1.09,1.39-1.84,1.88l-1.79.76c.18-.08.37-.13.57-.15l-1.99.27h.29c-.66-.08-1.33-.17-1.99-.25l.29.08-1.79-.76-1.98-2.04-.76-1.79.11.3-.27-1.99.02.32.27-1.99-.09.31.76-1.79.74-1.05,3.31-1.93-.3.11,1.99-.27h-.32c2.5,2.49,5,4.99,7.5,7.49v-.3c-.1.66-.19,1.33-.28,1.99.01-.2.07-.38.16-.56l-.76,1.79c-.47.76-1.08,1.39-1.84,1.87l-1.79.76c.18-.09.37-.15.57-.17l-1.99.27h.29c-.66-.1-1.33-.19-1.99-.28.2.01.39.07.56.17l-1.79-.76c-1.93-2.42-2.61-3.07-2.06-1.93l-.76-1.79c.06.16.09.33.1.5l-.27-1.99c.01.17,0,.34-.03.52l.27-1.99c-.03.17-.09.33-.16.48l.76-1.79c.51-.81,1.17-1.48,1.97-2.01l9.09,1.17c.8,1.24,1.04,1.54.72.89l.76,1.79-.07-.25.27,1.99c-.03-.17-.04-.35-.02-.52l-.27,1.99c.02-.18.06-.36.12-.53l-.76,1.79c.31-.66.06-.39-.76.81-1.22.81-1.5,1.04-.86.7l-1.79.76c.21-.09.43-.14.66-.16l-1.99.27c.23-.02.45-.01.68.03l-1.99-.27c.23.04.45.11.66.19l-1.79-.76c.3.14,1.18.76.14-.03-.37-.21-.66-.49-.86-.87-.42-.6-.49-.68-.22-.23l-.76-1.79c.09.19.16.39.21.6l-.27-1.99c.04.2.05.4.03.6l.27-1.99-.07.28.76-1.79,2.1-2.07,1.79-.76-.27.08,1.99-.27h-.28c.66.1,1.33.19,1.99.28-.2-.02-.39-.08-.57-.16l1.79.76c-.95-.53.91.82,1.13,1.1.81,1.04.21.16.07-.17l.76,1.79c-.12-.37-.21-.71-.27-1.09l.27,1.99c-.03-.39-.02-.72.03-1.1l-.27,1.99c.04-.24.11-.47.2-.7l-.76,1.79c.37-.69.16-.47-.62.66-1.17.81-1.44,1.03-.8.66l-1.79.76c.29-.12.54-.2.85-.26l-1.99.27c.19-.03.39-.03.59-.02l-1.99-.27c.3.04.54.11.82.22l-1.79-.76c-.78-.49-1.41-1.13-1.88-1.92l-.76-1.79c.08.16.13.33.15.51l-.27-1.99c.02.18.02.36-.01.54l.27-1.99c-.03.18-.08.36-.15.52l.76-1.79c-.35.65-.1.36.72-.85,1.23-.81,1.52-1.06.87-.76l1.79-.76-.25.06,1.99-.27h-.26c.66.1,1.33.18,1.99.27-.19-.02-.36-.07-.53-.16l1.79.76c1.9,2.36,2.55,2.97,1.96,1.84l.76,1.79c-.07-.18-.12-.37-.14-.57l.27,1.99v-.29c-.09.66-.18,1.33-.27,1.99.01-.2.05-.38.13-.56l-.76,1.79c-.35.57-.8,1.04-1.35,1.41-.62.42-.69.51-.22.27l-1.79.76c.2-.07.41-.12.63-.13l-1.99.27c.22-.02.43,0,.64.04l-1.99-.27.31.09-1.79-.76c.65.32.43.11-.65-.62-.75-1.09-.94-1.31-.57-.64l-.76-1.79c.14.36.22.66.28,1.04l-.27-1.99c.02.23.02.46-.01.69l.27-1.99c-.03.23-.1.45-.19.66l.76-1.79c-.4.7-.11.47.85-.7,1.18-.93,1.42-1.22.71-.88l1.79-.76-.32.06,1.99-.27-.37-.03,1.99.27-.36-.1,1.79.76c-.78-.33-1.54-1.22.03.26-.53-.54-.37-.28.49.75-.13-.19-.24-.38-.34-.59l.76,1.79c-.13-.33-.22-.62-.29-.97l.27,1.99c-.03-.21-.03-.42-.01-.63l-.27,1.99c.05-.33.12-.61.24-.92l-.76,1.79c.5-1.01-1.16,1.19-.56.61.48-.45-1.68,1.04-.62.6l-1.79.76.3-.08-1.99.27c.21-.04.41-.04.62,0l-1.99-.27c.21.03.41.1.59.19l-1.79-.76c.67.42.42.13-.74-.86-.98-1.17-1.27-1.42-.87-.75l-.76-1.79c.09.18.14.38.16.58l-.27-1.99v.3c.09-.66.18-1.33.27-1.99l-.06.3,7.23-5.51h-.33c.66.09,1.33.18,1.99.26l-.32-.07,1.79.76c-.98-.41.82.83,1.06,1.14.78,1.03.19.16.05-.14l.76,1.79c-.08-.21-.14-.42-.18-.64l.27,1.99c-.04-.34-.05-.62,0-.96l-.27,1.99.09-.29-.76,1.79-2.09,2.09-3.79,1.02.27-.03-1.99-.27.27.05-1.79-.76-2.1-2.21-.76-1.79.04.23v-3.99l-.07.24,1.93-3.31,1.14-.83,1.79-.76c-.18.1-.37.15-.57.17l1.99-.27h-.3c.66.09,1.33.18,1.99.27-.2-.02-.4-.06-.59-.14l1.79.76c-1.11-.61-.51.02,1.82,1.89l.76,1.79c-.09-.18-.13-.38-.14-.58l.27,1.99v-.3c-.08.66-.17,1.33-.26,1.99.03-.2.08-.4.17-.58l-.76,1.79c-.49.75-1.1,1.37-1.85,1.86,2.63-1.43,3.96-4.61,3.58-7.47-.18-1.35-.64-2.47-1.48-3.55-1.07-1.39-2.26-2.03-3.9-2.69l-.35-.14,1.79.76s-1.03-.51-1-.55c.06-.07,1.58,1.43.35.19-2.25-2.27-6.32-2.96-9.09-1.17-1.08.7-1.99,1.61-2.69,2.69-.95,1.47-1.37,4.11-.76,5.78.46,1.25.78,2.52.99,3.83l-.27-1.99c.24,1.76.24,3.51,0,5.27l.27-1.99-.07.44c-.27,1.73-.32,3.22.38,4.88.61,1.44,1.65,2.84,3.07,3.59,3.12,1.65,6.45,1.08,9.09-1.17,1.22-1.04,2.32-2.17,3.33-3.41l-11.78-1.52c.39.53.69,1.07.95,1.68l-.76-1.79c.23.62.38,1.22.46,1.87l-.27-1.99c.04.52.04,1.02,0,1.54l.27-1.99c-.05.39-.13.76-.22,1.14l13.71-1.79c-.31-.46-.56-.92-.78-1.42l.76,1.79c-.19-.52-.32-1.03-.4-1.58l.27,1.99c-.03-.37-.05-.69-.01-1.06l-.27,1.99.07-.31-.76,1.79-2.08,1.97-1.79.76.32-.09-1.99.27h.34c-.66-.09-1.33-.18-1.99-.27l.35.07-1.79-.76c1.15.55.6-.05-1.64-1.81.12.2.23.41.31.63l-.76-1.79c.23.63.42,1.26.54,1.92l-.27-1.99c.04.28.04.56,0,.84l.27-1.99-.1.41.76-1.79c-.58,1.12.03.53,1.84-1.76l1.79-.76-.29.11,1.99-.27-.3.04,1.99.27-.29-.04,1.79.76,1.97,2.01.76,1.79c-.2-.5-.33-1-.44-1.53l.27,1.99c-.05-.28-.07-.56-.04-.84l-.27,1.99.09-.41-.76,1.79c.56-1.14-.07-.53-1.89,1.81l-1.79.76.28-.08-1.99.27h.29c-.66-.09-1.33-.18-1.99-.27l.28.09-1.79-.76c-.1-.07-2.69-3.11-1.73-1.47.17.29.31.57.45.87l-.76-1.79c.1.24.18.49.22.74l-.27-1.99c.05.23.06.46.04.69l.27-1.99c-.02.21-.07.41-.15.6l.76-1.79c-.37.7-.07.45.91-.75,1.21-.95,1.46-1.26.77-.91l1.79-.76-.29.06,1.99-.27h-.33c.66.08,1.33.17,1.99.26l-.31-.09,1.79.76c.71.47,1.28,1.07,1.71,1.8-.13-.2-.23-.41-.31-.63l.76,1.79c-.12-.38-.2-.74-.26-1.13l.27,1.99c-.04-.55-.03-1.07.04-1.62l-.27,1.99c.11-.54.26-1.04.47-1.56l-.76,1.79c.11-.25.24-.49.39-.71l-11.78,1.52c.25.2,1.33,1.42.48.33s.05.26.19.56l-.76-1.79c.09.21.16.44.2.66l-.27-1.99c.04.23.04.45,0,.68l.27-1.99-.1.27.76-1.79c2.37-1.89,2.98-2.55,1.85-1.97l1.79-.76c-.19.07-.38.11-.58.13l1.99-.27h-.3c.66.09,1.33.18,1.99.27-.2-.01-.39-.05-.58-.12l1.79.76c-.67-.35-.47-.16.61.58-.38-.41-.34-.35.11.19.85,1.07.01-.17-.13-.48l.76,1.79c-.16-.42-.28-.83-.35-1.28l.27,1.99c-.03-.21-.03-.42-.01-.64l-.27,1.99c.02-.2.06-.4.13-.59l-.76,1.79c.58-1.11-.04-.51-1.87,1.81l-1.79.76.31-.1-1.99.27c.22-.05.44-.06.66-.03l-1.99-.27c.23.03.45.09.66.18l-1.79-.76c.99.5-.79-.74-1.03-1.05-.77-.99-.15-.07-.02.22l-.76-1.79c.25.65.48,1.32.58,2l-.27-1.99c.02.29.02.55-.02.84l.27-1.99-.07.25.76-1.79,2.25-2.19,1.79-.76-.24.06,1.99-.27-.3-.03,3.79,1.02c.56.35,1.03.79,1.39,1.33.45.62.51.67.18.13-.16-.38-.38-.75-.55-1.13l.76,1.79c-.36-.88-.65-1.77-.81-2.71l.27,1.99v-.31c-.09.66-.18,1.33-.27,1.99l.08-.29-.76,1.79.17-.23-2.69,2.69.24-.14-1.79.76.29-.06-1.99.27.3.02-1.99-.27.29.09-1.79-.76c-1.8-2.25-2.42-2.8-1.84-1.65l-.76-1.79c.09.23.16.46.22.7l11.02-8.47c.58.3,1.04.71,1.39,1.24.42.6.5.66.24.19l.76,1.79c-.09-.21-.15-.42-.19-.64l.27,1.99c-.04-.22-.05-.44-.03-.67l-.27,1.99c.02-.22.06-.44.13-.65l-12.54,3.31c-1.38-1.68-.71-.93-.42-.36l-.76-1.79c.23.55.37,1.08.45,1.66l-.27-1.99c.04.47.04.93,0,1.41l.27-1.99c-.1.72-.28,1.39-.55,2.06l.76-1.79c-.13.27-.25.53-.41.79-.66,1.11.32-.15.4-.44-.03.11-1.3,1.4-1.38,1.34-.05-.03,1.54-1.07.58-.49-.28.17-.55.35-.83.51-.62.36-1.27.67-1.93.96l1.79-.76c-.34.14-.63.26-.99.33l1.99-.27-.32-.04,3.79,1.02,2.06,2.02.76,1.79c-.12-.3-.19-.55-.23-.87l.27,1.99c-.02-.2-.02-.4,0-.6l-.27,1.99c.04-.31.11-.58.21-.88l-.76,1.79c.32-.74.75-.88-.55.49.8-.84-1.66,1.03-.57.48l-1.79.76c.18-.08.37-.14.57-.17l-1.99.27c.21-.04.42-.04.63-.02l-1.99-.27c.21.02.41.08.61.15l-1.79-.76c.32.14,1.12.71.04-.09-.39-.21-.69-.51-.91-.89-.43-.61-.51-.69-.24-.23l-.76-1.79c.13.31.2.56.25.89l-.27-1.99v.31c.09-.66.18-1.33.27-1.99-.01.21-.06.41-.13.61l.76-1.79c-.45.97.88-.88,1.19-1.11,1.07-.8.26-.23-.05-.09l1.79-.76c-.32.11-.61.18-.94.23l1.99-.27c-.22.02-.43.02-.65,0l1.99.27c-.37-.05-.69-.13-1.04-.25l1.79.76c-.23-.09-.46-.2-.67-.33-.64-.42-.44-.26.6.49-.19-.17-.37-.35-.54-.55.74,1.05.9,1.24.48.59l.76,1.79-.08-.37v3.99l.12-.34-1.93,3.31-1.02.76-1.79.76c.17-.08.34-.12.52-.13l-1.99.27h.27c-.66-.08-1.33-.17-1.99-.26.18.03.36.08.53.16l-1.79-.76c.63.36.36.14-.82-.67-.8-1.17-1.03-1.43-.69-.78l-.76-1.79c.07.18.12.37.14.56l-.27-1.99v.29c.09-.66.18-1.33.27-1.99-.02.2-.07.4-.15.58l.76-1.79c-.36.65-.14.39.65-.77,1.15-.8,1.4-1.02.75-.65l1.79-.76c-.31.13-.59.21-.91.28l1.99-.27c-.33.04-.63.05-.96.02l1.99.27c-.35-.06-.63-.14-.97-.27l1.79.76c-1.11-.64-.56-.07,1.64,1.71l.76,1.79-.09-.29.27,1.99v-.31c-.1.66-.19,1.33-.28,1.99l.06-.3-.76,1.79-2.12,2.04-1.79.76.24-.06-1.99.27.23.02-1.99-.27.21.09-1.79-.76-2.22-2.14-.76-1.79c.08.16.12.33.14.5l-.27-1.99v.26c.1-.66.19-1.33.28-1.99,0,.18-.05.34-.13.5l.76-1.79,1.99-2.08,1.79-.76c-.21.09-.43.15-.66.18l1.99-.27c-.24.03-.48.03-.72,0l1.99.27c-.37-.06-.7-.14-1.06-.25l1.79.76c-.74-.31-.95-.79.37.48-.89-.85.97,1.58.37.49l.76,1.79c-.09-.18-.14-.37-.17-.56l.27,1.99v-.28c-.1.66-.19,1.33-.28,1.99.01-.19.06-.37.15-.54l-.76,1.79-2.09,2.13-1.79.76.25-.07-1.99.27c.18-.03.35-.03.53,0l-1.99-.27c.18.03.36.09.52.17l-1.79-.76c-.61-.36-1.1-.82-1.47-1.4-.42-.64-.52-.74-.31-.29l-.76-1.79.06.27-.27-1.99v.33c.09-.66.18-1.33.27-1.99-.02.22-.07.42-.16.62l.76-1.79c-.37.65-.17.4.59-.74,1.11-.77,1.33-.99.66-.66l1.79-.76c-.21.08-.43.12-.65.14l1.99-.27c-.24.02-.48,0-.72-.04l1.99.27c-.24-.04-.47-.11-.7-.19l1.79.76s-.97-.53-.96-.53l.95.7c-.51-.53-.36-.34.46.57l1.02,3.79-.05-.4-.27,1.99.06-.23-.76,1.79-2.17,2.27-1.79.76.24-.05-1.99.27h.24c-.66-.09-1.33-.18-1.99-.27l.24.05-1.79-.76-2.15-2.15-.76-1.79.07.3-.27-1.99v.31c.08-.66.17-1.33.26-1.99l-.08.31.76-1.79c.5-.69,1.09-1.29,1.78-1.79l1.79-.76-.35.1,1.99-.27c-.24.04-.49.05-.74.02l1.99.27c-.25-.03-.49-.09-.72-.18l1.79.76c-.67-.33-.47-.13.61.62.73,1.11.92,1.34.58.68l.76,1.79-.08-.33.27,1.99v-.34c-.09.66-.18,1.33-.27,1.99l.06-.24-.76,1.79c-.52.81-1.18,1.48-1.98,2.01l-1.79.76.24-.08-1.99.27c.16-.04.31-.04.47-.01l-1.99-.27.21.07-1.79-.76.18.13-2.69-2.69.14.19,1.17-9.09,1.02-.82,1.79-.76c-.19.09-.38.15-.59.18l1.99-.27c-.21.03-.41.04-.62.02l1.99.27c-.21-.02-.41-.07-.6-.14l1.79.76c-.46-.24-.39-.15.24.27.56.5.67.55.33.15-1.1-1.41-3.61-2.2-5.3-2.2-1.84,0-4.04.82-5.3,2.2s-2.29,3.31-2.2,5.3c.1,2.12.9,3.64,2.2,5.3,1.51,1.94,4.45,3.09,6.86,3.1,2.75,0,4.93-1,7.01-2.75,2.33-1.96,2.97-6.58,1.17-9.09-1.29-1.8-2.66-3.14-4.8-3.77-1.43-.42-3.22-.49-4.67-.06-3,.89-5.45,3.15-6.24,6.23-.85,3.28.37,6.82,2.88,9.03s5.97,3.15,9.39,2.42c3.17-.68,5.79-3.46,6.58-6.55.95-3.72-.68-7.73-4.04-9.62s-7.47-1.19-10.2,1.4c-1.46,1.38-2.43,3.71-2.39,5.71.05,2.4.99,4.45,2.57,6.22,3.61,4.05,10.04,5.2,14.44,1.79,2.37-1.83,3.91-4.44,3.97-7.5.06-3.26-1.77-6.36-4.57-8s-6.23-1.71-8.99-.16c-3.17,1.79-4.81,5.31-4.33,8.86.72,5.37,5.8,9.11,11.09,9.05,3.26-.03,6.31-1.74,8.02-4.52,1.86-3.03,1.38-7.08-.73-9.81s-5.5-3.93-8.91-3.06c-4.15,1.06-6.52,5.45-5.98,9.49.81,6.04,7.78,9.59,13.34,7.47,2.48-.94,4.44-2.38,5.77-4.71,1.66-2.91,1.52-6.7-.28-9.51-1.38-2.16-3.43-3.66-5.9-4.34-4.37-1.19-9.2,1.44-10.52,5.77-1.74,5.7,3.41,11.35,8.74,12.63s11.32-1.74,12.78-7.23-2.26-11.23-7.65-12.36c-6.46-1.35-12.17,3.57-12.46,10.02-.15,3.35,1.52,6.83,4.45,8.54,3.44,2.01,6.83.91,10.08-.71,3.97-1.99,7.05-5.21,8.65-9.35.66-1.7.95-3.65.82-5.46-.23-3.19-1.38-5.66-3.4-8.13-1.65-2.01-4.92-2.58-7.3-1.93-2.52.69-4.54,2.72-5.24,5.24-.54,1.96-.53,4.01.08,5.95.8,2.53,2.39,4.23,4.5,5.75.97.7,2.62,1.02,3.79,1.02,1.67,0,3.24-.6,4.54-1.61,2.32-1.8,3.55-4.98,2.69-7.88-.52-1.77-1.35-3.63-2.75-4.89-2.25-2.03-5.31-2.96-8.3-2.16-2.7.72-5.17,3.02-5.84,5.79-.48,2-.28,4.02.33,5.97,1,3.18,2.6,6.29,5.56,8.03,2.57,1.51,5.78,1.28,8.3-.15s3.88-4.37,4.05-7.24c.19-3.16-1.28-6.66-3.33-9-2.9-3.31-8.12-4.25-11.94-2.01-7.13,4.19-5.06,15.18,1.65,18.65,4.9,2.54,11.93.41,13.36-5.35,1.01-4.06-.71-8.53-3.91-11.18-1.9-1.57-3.8-2.4-6.3-2.06-2.31.31-4.27,1.54-5.48,3.58-1.85,3.11-2.36,6.77-1.55,10.28.96,4.13,4.88,7.88,9.3,7.65,4.93-.25,8.84-4.23,8.95-9.2.08-3.74-2.12-7.88-5.25-9.91-2.28-1.47-5.21-1.51-7.65-.48s-4.3,3.14-5.15,5.74c-.61,1.87-.39,4.22.15,6.07.71,2.39,2.06,4.53,4.27,5.79,4.85,2.77,11.44-.06,12.9-5.44.86-3.19.14-7.1-1.71-9.85-1.72-2.57-4.64-4.49-7.85-4.39-3.04.1-6.06,1.62-7.52,4.39-1.99,3.76-1.3,8.63,1.06,12.09,1.73,2.54,4.34,4,7.47,3.58,2.88-.39,5.49-2.48,6.24-5.37,1.02-3.98.52-8.63-1.95-12.01-1.44-1.97-3.01-3.25-5.48-3.58-2.15-.29-4.84.26-6.3,2.06-1.01,1.24-2.11,2.38-3.33,3.41l12.54,7.3c.72-4.56.68-9.13-.93-13.53l-12.54,7.3c1.71,1.73,3.61,2.71,5.83,3.6l-1.79-13.71c-6.09,3.3-6.2,12.38-.28,15.91,2.57,1.53,5.7,1.63,8.41.48,4.09-1.73,6.12-6.41,4.37-10.55-1.34-3.17-4.53-5.18-7.97-5.1-4.65.11-7.9,3.96-8.2,8.39-.38,5.64,4.25,10.81,9.92,10.87,3.09.03,6.6-2.33,7.23-5.51.84-4.18-.53-7.96-4.11-10.38-3.1-2.1-6.96-1.95-10.16-.17-2.97,1.65-4.87,5.26-4.92,8.6-.04,3.12,1.27,6.11,3.52,8.26,2.56,2.44,6.33,3.92,9.84,2.91,4.08-1.17,6.83-5.15,6.85-9.34.01-3.5-1.8-7.18-4.88-8.98-3.26-1.91-7.05-1.9-10.31-.02-3.51,2.02-5.13,6.48-4.09,10.33s4.72,6.85,8.84,6.78c7.94-.13,11.91-10.4,6.31-15.96s-14.7-2.32-16.66,4.75,3.88,15.72,11.73,13.7c4.87-1.26,7.39-6.42,6.05-11.11-1.03-3.62-4.19-6.38-7.77-7.3-4.17-1.07-8.63.78-10.77,4.51s-1.55,8.39,1.48,11.27c2.51,2.38,6.07,2.77,9.09,1.17,5.96-3.16,6.06-12.28.39-15.75s-14.24.95-13.91,8.02c.19,4.15,3.28,7.36,7.5,7.5,5.25.17,9.15-4.69,8.48-9.7s-5.78-8.37-10.76-7.28c-3.74.82-6.44,4.04-6.94,7.75-.59,4.38,2.28,8.39,6.45,9.66,3.87,1.18,8.27-.58,10.28-4.08,2.7-4.7.24-10.73-4.89-12.29-6.96-2.12-15.06,4.74-13.04,12.01,1.3,4.69,6.34,7.28,10.93,5.89,3.93-1.19,7.13-4.45,7.31-8.69s-2.9-7.74-6.83-8.64c-2.96-.67-6.24-.14-8.85,1.41-2.98,1.78-5.16,5.21-4.88,8.75.34,4.34,3.23,8.22,7.72,8.83,3.91.53,7.74-1.53,9.51-5.09,2.15-4.33,1.31-9.78-3.09-12.38-5.75-3.4-13.39,1.36-12.49,8.07.4,2.95,2.12,5.28,4.86,6.44s5.77.71,8.07-1.07c2.78-2.15,3.87-5.87,2.49-9.14-.82-1.94-2.19-3.51-3.97-4.64-1.58-1-3.39-1.48-5.24-1.59-1.99-.12-3.69.5-5.46,1.31-4.32,1.98-4.84,8.75-1.52,11.78,2.33,2.12,5.31,3.07,8.43,2.3,3.36-.83,6.46-4.11,6.3-7.72-.24-5.34-4.92-9.62-10.24-9.54-2.66.04-5.13,1.41-6.48,3.71-1.46,2.5-1.14,5.06,0,7.57,1.66,3.65,5.48,5.97,9.49,5.43,5.31-.71,8.57-5.87,7.06-11.03-2.09-7.14-11.73-10.08-17.25-4.9-3.48,3.26-3.74,8.73-.51,12.25s9.38,2.86,12.49-.6c2.65-2.94,3.35-6.92,2.3-10.69s-3.14-6.98-7.04-8.05c-3.43-.94-7.38.73-9.12,3.82s-1.02,7.1,1.43,9.67c3.35,3.5,9.4,3.63,12.77.07,1.78-1.88,2.78-4.74,1.93-7.3-1.01-3.02-3.18-5.41-6.32-6.27s-6.55,0-8.74,2.29c-4.49,4.68-2.43,13.61,4.28,14.96,2.41.49,4.57.18,6.54-1.34,1.77-1.36,3.1-3.56,2.96-5.89-.25-4-2.5-7.2-6.39-8.45-3.13-1.01-6.84.25-9,2.61-4.56,4.99-2.44,13.63,4.27,15.45,3.15.86,6.78-.19,9-2.58,2.45-2.65,3.14-6.3,1.74-9.61-1.25-2.97-3.93-4.78-7.06-5.2-3.59-.48-6.71,1.2-8.68,4.18-1.53,2.3-1.18,5.25,0,7.57.25.48.49.97.74,1.45,4.32-2.52,8.63-5.05,12.95-7.57-1.94-3.7-6.26-5.11-10.15-4.22-1.57.36-2.94,1.45-3.9,2.69s-1.82,3-1.61,4.54c.27,1.99.51,3.43,1.39,5.25.55,1.14,1.35,2.14,2.2,3.09,2.62,2.94,7.97,2.87,10.61,0,2.91-3.17,2.75-7.43,0-10.61s-7.22-3.26-10.63-1.55c-3.1,1.55-5.03,4.9-4.96,8.33.16,7.51,8.45,11.58,15.05,9.47,5.37-1.72,6.92-7.73,4.26-12.31-2.39-4.12-7.99-5.47-12.07-3.17-2.98,1.68-4.78,5.01-4.76,8.41.02,3.68,2.29,7.09,5.5,8.81,2.45,1.31,5.27,1.66,8,1.42,2.88-.26,5.49-1.46,7-4.04s1.35-6.05-.23-8.57c-3.54-5.63-11.77-7.12-16.67-2.27-2.58,2.56-3.5,6.41-2.35,9.85s4.22,6.23,7.92,7.01c6.04,1.28,12.98-1.75,14.48-8.15.77-3.28-.02-7.19-2.51-9.6-2.63-2.55-6.21-3.57-9.76-2.49-3.2.98-6.03,3.73-6.9,7-.94,3.56.02,7.32,2.58,9.99,4.68,4.88,13.1,4.66,16.97-1.11s.36-13.68-6.14-15.04c-7.45-1.56-14.27,5.27-12.29,12.77,1.83,6.94,9.83,10.15,16.09,6.85,3.08-1.62,5.31-4.87,5.38-8.4.09-4.18-2.76-7.82-6.81-8.82-3.81-.94-8.02.74-10.06,4.11s-2.05,7.33-.19,10.63c2.14,3.79,6.58,6.03,10.89,4.86,4.72-1.29,7.79-6.26,6.51-11.03s-6.23-7.19-10.72-6.01c-5.39,1.41-7.79,7.66-5.1,12.44,3.8,6.73,15.35,7.12,19.24.26,4.59-8.09-6.48-18.66-14.3-13.33-3.48,2.37-4.66,6.44-2.69,10.26,2.21,4.29,7.7,6.46,12.27,5.05,4.99-1.54,7.96-6.53,7.27-11.62-.77-5.74-6.4-9.57-12.01-7.93s-8.34,7.9-6.13,13.13,7.54,7.36,12.71,6.15c5.44-1.27,10.24-6.66,8.88-12.44-1.27-5.4-6.96-9.08-12.4-7.83-5.84,1.34-8.99,8.32-6,13.55s10.14,5.61,14.17,1.55c2.24-2.26,2.98-5.39,2.32-8.45s-3.27-5.39-6.16-6.38c-4.97-1.7-10.57,1.35-11.89,6.42s1.92,10.73,7.17,12.07c5.71,1.46,12.52-2.79,12.48-8.98-.05-7.39-8.79-10.11-14.35-6.66s-5.82,12.4.24,15.46c3,1.51,6.62,1.33,9.44-.51,2.57-1.68,4.35-4.5,4.3-7.63-.08-5.33-5.32-8.89-10.34-7.53-2.55.69-5.06,2.45-6.36,4.77-1.67,2.98-1.82,6.62-.07,9.6,1.98,3.38,6.05,5.31,9.91,4.36,3.02-.75,5.46-3.05,6.31-6.08s.09-6.61-2.27-8.73c-1.58-1.43-3.54-2.36-5.71-2.36-2.28,0-4.28,1.13-5.92,2.61s-3.14,3.87-3.53,6.16c-.47,2.71-.1,5.27,1.93,7.3s4.61,2.45,7.3,1.93c4.32-.83,8.6-3.48,10.84-7.34,2.48-4.27,2.04-9.41.25-13.84s-4.32-7.98-8.2-10.71c-3.55-2.5-8.03-3.37-12.29-3.52-3.52-.12-7.43.04-10.82,1-4.91,1.39-8.83,4.84-10.26,9.81-1.16,4.01-.8,8.88-.04,12.94.86,4.54,3.83,8.62,7.88,10.84s8.94,3.05,13.52,3.54c5.45.59,10.31-1.43,14.96-4.06,3.42-1.93,4.86-6.89,2.69-10.26s-6.6-4.76-10.26-2.69h0Z"/>
  <path d="M325.63,340.91c.85-.52,1.72-.97,2.63-1.37l-1.79.76c3.61-1.49,7.49-2.02,11.34-2.56l-1.99.27c1.86-.25,3.71-.41,5.58-.17l-1.99-.27c1.19.19,2.32.53,3.44,1l-1.79-.76c.8.36,1.56.75,2.3,1.21.4.25.8.51,1.19.78.45.32,1.46,1.24-.21-.19,1.3,1.12,2.6,2.23,3.85,3.42,1.33,1.28,2.6,2.6,3.85,3.95,1.07,1.15-.95-1.42-.07-.12.23.34.46.67.68,1.01.5.81.93,1.65,1.32,2.52l-.76-1.79c.69,1.64,1.16,3.32,1.43,5.07l-.27-1.99c.23,1.76.25,3.51.05,5.27l.27-1.99c-.11.81-.27,1.6-.47,2.39-.96,3.8,1.23,8.31,5.24,9.23s8.2-1.17,9.23-5.24c1.22-4.82,1.2-10.06-.3-14.82s-4.5-9.09-8.2-12.74c-3.16-3.11-6.53-6.35-10.49-8.41-2.77-1.44-5.43-2.21-8.5-2.56-2.77-.32-5.57.2-8.31.6-5.17.74-10.31,1.77-14.83,4.56-3.34,2.06-4.92,6.8-2.69,10.26s6.69,4.89,10.26,2.69h0Z"/>
</svg>