<?xml version="1.0" encoding="UTF-8"?>
<svg id="Layer_1" data-name="Layer 1" xmlns="http://www.w3.org/2000/svg" viewBox="0 0 979.22 1036.9">
  <defs>
    <style>
      .cls-1 {
        fill: #170900;
      }
    </style>
  </defs>
  <path class="cls-1" d="M14.74,317.24c7.32-1.49,14.69-2.73,22.09-3.73l-1.99.27c9.82-1.31,19.69-2.19,29.59-2.63s19.48-.56,29.17.06c5.33.34,10.65.96,15.94,1.67l-1.99-.27c19.17,2.59,38.61,6.68,58.03,4.47,2.05-.23,3.79-.68,5.3-2.2,1.3-1.3,2.28-3.44,2.2-5.3s-.72-3.95-2.2-5.3c-1.37-1.26-3.37-2.42-5.3-2.2-12.01,1.36-24.09.25-36.02-1.35l1.99.27c-15.53-2.1-30.95-4.83-46.66-5.12-15.59-.28-31.19.54-46.66,2.45-9.21,1.14-18.37,2.58-27.47,4.43-3.85.78-6.43,5.55-5.24,9.23,1.32,4.08,5.1,6.08,9.23,5.24h0Z"/>
  <path class="cls-1" d="M169.9,311.31c8.12-5.06,16.61-9.5,25.41-13.24l-1.79.76c12.85-5.41,26.33-9.28,40.16-11.16l-1.99.27c11.5-1.53,23.16-1.67,34.66-.14l-1.99-.27c10.55,1.44,20.88,4.22,30.7,8.34l-1.79-.76c6.62,2.8,12.99,6.19,18.96,10.2,1.46.98,2.89,2,4.3,3.05.31.23.62.47.93.71.73.55-1.31-1.03-.59-.46.15.12.31.24.46.36.71.57,1.42,1.14,2.12,1.73,2.75,2.3,5.37,4.74,7.85,7.32,1.22,1.27,2.41,2.57,3.56,3.91.55.64,1.1,1.3,1.64,1.95.29.36.59.72.87,1.09.13.16.25.33.38.49.57.72-1.06-1.4-.29-.37,2.24,2.98,4.36,6.06,6.39,9.19,4.14,6.39,7.97,12.97,12.24,19.28s9.32,12.94,15.19,18.27c5.31,4.82,11.28,8.98,17.71,12.17,12.99,6.43,27.16,9.38,41.53,10.46s28.14.25,42.13-1.05c15.87-1.47,31.68-3.46,47.56-4.78,17.55-1.46,35.15-2.47,52.75-3.03s35.23-.67,52.84-.33,35.21,1.13,52.79,2.37c17.49,1.23,34.95,2.91,52.36,5.03,4.31.52,8.62,1.08,12.92,1.66l-1.99-.27c24.87,3.35,49.62,7.6,74.18,12.75,22.9,4.81,45.68,10.31,67.99,17.38,12.37,3.92,24.59,8.33,36.55,13.36l-1.79-.76c13.68,5.78,27.02,12.38,39.76,20.01,3.62,2.17,7.19,4.42,10.71,6.75,3.28,2.17,8.44.75,10.26-2.69,1.99-3.76.81-7.94-2.69-10.26-14.85-9.84-30.66-18.19-47-25.28-16.87-7.32-34.2-13.47-51.83-18.67s-35.04-9.39-52.77-13.21c-18.87-4.06-37.86-7.59-56.93-10.58-19.73-3.1-39.55-5.65-59.43-7.64s-38.63-3.32-58-4.16c-19.37-.84-38.76-1.14-58.14-.9s-38.76,1.03-58.1,2.37c-18.29,1.26-36.49,3.26-54.72,5.16-15.39,1.6-30.91,2.84-46.39,1.97-3.69-.21-7.37-.54-11.04-1.03l1.99.27c-8.68-1.17-17.23-3.22-25.33-6.59l1.79.76c-3.64-1.54-7.17-3.33-10.53-5.42-1.64-1.02-3.24-2.11-4.8-3.26-.2-.15-.39-.29-.58-.44-.93-.69.63.49.65.5-.41-.26-.78-.62-1.15-.92-.81-.67-1.61-1.35-2.39-2.05-3.29-2.95-6.2-6.23-8.97-9.67-.76-.94.36.48.41.54-.17-.21-.33-.44-.5-.65-.33-.44-.66-.88-.98-1.32-.69-.94-1.37-1.89-2.03-2.85-1.3-1.87-2.55-3.77-3.78-5.68-4.86-7.57-9.35-15.39-14.66-22.66s-11.44-14.06-18.5-19.83c-14.1-11.52-30.72-19.68-48.42-23.97-18.76-4.54-38.15-4.61-57.11-1.24-19.41,3.45-38.17,10.8-55.25,20.59-2.04,1.17-4.05,2.38-6.05,3.62-3.33,2.07-4.93,6.79-2.69,10.26s6.7,4.91,10.26,2.69h0Z"/>
  <path class="cls-1" d="M969.72,452.24c-4.13,1.71-8.45,2.79-12.87,3.4l1.99-.27c-10.85,1.42-21.89.2-32.68-1.24l1.99.27c-20.09-2.71-39.84-7.41-59.44-12.51-19.73-5.13-39.37-10.68-59.3-15.04-21-4.59-42.31-7.53-63.7-9.6-21.27-2.06-42.61-3.42-63.96-4.17-21.31-.75-42.64-.88-63.96-.37-1.32.03-2.65,0-3.97.1-3,.22-6.17,1.62-7.5,4.53-.86,1.88-1.33,3.71-.76,5.78.48,1.74,1.82,3.63,3.45,4.48,3.3,1.74,8.52,1.12,10.26-2.69l-2.01,1.95-1.79.76.34-.07-1.99.27c20.41-.56,40.83-.54,61.23.05,20.31.59,40.61,1.76,60.86,3.49,11.35.97,22.68,2.15,33.96,3.66l-1.99-.27c13.77,1.86,27.44,4.28,40.99,7.34,13.21,2.98,26.31,6.45,39.4,9.92,26.63,7.08,53.29,14.07,80.68,17.48,14.76,1.84,30.67,3.05,44.74-2.79,1.89-.78,3.41-1.61,4.48-3.45.94-1.61,1.34-3.98.76-5.78s-1.71-3.57-3.45-4.48-3.96-1.51-5.78-.76h0Z"/>
  <path class="cls-1" d="M921.27,469.16c.22.38.42.76.6,1.16l-.76-1.79c.33.79.55,1.59.69,2.43l-.27-1.99c.14,1.05.13,2.09,0,3.14l.27-1.99c-.18,1.18-.52,2.31-.98,3.41l.76-1.79c-.38.87-.83,1.7-1.35,2.49-.09.13-.32.64-.48.69.02,0,1.23-1.49.55-.72-.34.38-.67.76-1.03,1.13-.32.32-.65.63-1,.92-.45.39-1.23.74.59-.44-.19.12-.37.26-.55.39-.87.58-1.79,1.05-2.75,1.46l1.79-.76c-1.9.76-3.85,1.24-5.88,1.51l1.99-.27c-3.82.46-7.65.19-11.45-.31l1.99.27c-8.34-1.15-16.63-2.76-24.91-4.24s-16.73-3.03-25.09-4.59c-16.81-3.13-33.6-6.32-50.42-9.36-16.8-3.04-33.63-5.92-50.51-8.44s-34.9-4.85-52.44-6.46c-16.94-1.56-33.94-2.54-50.96-2.7-2.1-.02-4.2-.03-6.3-.02-3.92,0-7.68,3.44-7.5,7.5s3.3,7.51,7.5,7.5c24.04-.04,48.05,1.56,71.93,4.22,6.74.75,13.46,1.59,20.18,2.49l-1.99-.27c29.35,3.95,58.51,9.19,87.61,14.61,14.5,2.7,28.98,5.44,43.49,8.09,7.32,1.34,14.65,2.65,21.99,3.92s14.68,2.91,22.08,3.05c8.09.15,16.86-2.14,22.24-8.58s7.83-15.47,3.33-23.2c-1.97-3.39-6.86-4.88-10.26-2.69s-4.8,6.63-2.69,10.26h0Z"/>
  <path class="cls-1" d="M870.64,488.82c.3.28.57.58.85.88.85.9-1.12-1.73-.36-.45.38.63.73,1.24,1.02,1.92l-.76-1.79c.4,1,.65,2.02.8,3.08l-.27-1.99c.15,1.29.13,2.57-.04,3.86l.27-1.99c-.22,1.54-.64,3.02-1.22,4.46l.76-1.79c-.45,1.07-.98,2.1-1.6,3.08-.29.45-.61.87-.91,1.3,1.49-2.17.34-.47-.16.05-.36.38-.74.75-1.13,1.1-.19.17-.41.33-.6.51,1.59-1.51,1.08-.81.52-.42-1.12.78-2.33,1.39-3.57,1.94l1.79-.76c-2.44,1.03-4.98,1.67-7.6,2.03l1.99-.27c-5.38.68-10.8.22-16.16-.49l1.99.27c-20.11-2.71-40.1-6.62-59.84-11.29-19.85-4.7-39.49-10.3-58.83-16.79-10.9-3.66-21.71-7.61-32.4-11.82-1.7-.67-4.27-.13-5.78.76s-3.04,2.69-3.45,4.48c-.44,1.92-.34,4.07.76,5.78s2.57,2.69,4.48,3.45c28.58,11.26,57.93,20.56,87.78,27.79,14.85,3.6,29.82,6.68,44.89,9.25,7.89,1.35,15.83,2.7,23.8,3.54,7.27.76,15.09.71,21.96-2.06,3.88-1.57,7.48-3.58,10.31-6.74,2.67-2.98,4.6-6.3,5.89-10.08,2.48-7.31,1.1-15.94-4.59-21.39-2.84-2.71-7.83-3.03-10.61,0s-3.03,7.71,0,10.61h0Z"/>
  <path class="cls-1" d="M830.46,508.96c-.18.75-.41,1.47-.7,2.18l.76-1.79c-.23.54-.49,1.06-.78,1.57-.39.67-1.7,2.1.01.18-.79.89-1.58,1.72-2.47,2.51s1.33-.96.62-.46c-.23.16-.45.33-.67.48-.55.38-1.12.74-1.71,1.07-1.09.63-2.23,1.17-3.39,1.67l1.79-.76c-6.58,2.75-13.83,3.8-20.86,4.75l1.99-.27c-9.61,1.27-19.31,1.79-29,1.98-9.59.19-19.2.2-28.79,0-5.28-.11-10.56-.37-15.8-1.06l1.99.27c-6.26-.85-12.35-2.36-18.19-4.8l1.79.76c-10.14-4.3-19.1-10.76-28.24-16.81-4.56-3.02-9.2-5.96-14.06-8.49-5.83-3.03-11.97-5.52-18.17-7.69s-12.96-4.13-19.49-6c-3.77-1.08-8.33,1.32-9.23,5.24s1.2,8.07,5.24,9.23c9.49,2.73,19,5.48,28.12,9.31l-1.79-.76c11.58,4.92,21.67,12.17,32.16,19.01s22.41,12.99,35.34,15.09c13.94,2.26,28.22,1.87,42.3,1.78,14.49-.1,28.98-.77,43.29-3.15,12.74-2.12,28.91-6.63,32.38-21.06.91-3.81-1.2-8.31-5.24-9.23s-8.25,1.16-9.23,5.24h0Z"/>
  <path class="cls-1" d="M721.76,523.09c-1.19.57-2.39,1.12-3.6,1.63l1.79-.76c-7.69,3.21-15.82,5.11-24.06,6.23l1.99-.27c-7.4.98-14.86,1.35-22.32,1.49-3.69.07-7.39.08-11.08.08-3.97,0-7.95.02-11.9-.49l1.99.27c-2.76-.39-5.4-1.09-7.97-2.16l1.79.76c-5.94-2.56-11.27-6.38-17.02-9.33-6.09-3.13-12.41-5.82-18.81-8.25s-12.31-4.34-18.56-6.24c-3.05-.93-6.12-1.82-9.19-2.71s-6.72-2.37-10.09-2.39-6.67,1.66-8.35,4.66c-2.16,3.86-.84,8.8,3.02,11,2.56,1.46,6.23,1.59,8.76-.05,4.2-2.74,5.16-8.66,1.4-12.27-2.83-2.72-7.83-3.03-10.61,0s-3.03,7.71,0,10.61l-.98-1.29-.76-1.79.02.1v-3.99l-.03.09,1.93-3.31,1.35-1.04,1.79-.76c-.09.04-.18.06-.27.08l1.99-.27c-.17.02-.32.02-.5,0l1.99.27c-.11-.02-.21-.04-.32-.09l1.79.76,2.36,2.42.76,1.79-.04-.13.27,1.99v-.15c-.09.66-.18,1.33-.27,1.99l.05-.18-.76,1.79c-.52.78-1.18,1.42-1.96,1.94l-1.79.76c.17-.08.35-.13.54-.16l-1.99.27c.42-.05.81-.04,1.23.01l-1.99-.27c1.71.29,3.4.9,5.07,1.38,1.75.5,3.51,1,5.26,1.51,3.58,1.04,7.15,2.11,10.7,3.23,7.08,2.24,14.1,4.7,20.95,7.59l-1.79-.76c6.99,2.97,13.6,6.5,20.13,10.36,3.65,2.16,7.43,4.15,11.47,5.46s8.7,1.78,13.07,1.92c7.55.24,15.15.1,22.7-.17,7.89-.28,15.76-.97,23.54-2.31,8.64-1.49,16.98-4.11,24.89-7.92,3.54-1.71,4.77-7.04,2.69-10.26-2.34-3.64-6.47-4.52-10.26-2.69h0Z"/>
  <path class="cls-1" d="M639.89,531.22c-1.17.59-2.35,1.14-3.56,1.66l1.79-.76c-5.51,2.29-11.31,3.65-17.21,4.47l1.99-.27c-6.27.84-12.6,1.1-18.92,1.22-6.71.13-13.48.35-20.15-.54l1.99.27c-4.04-.57-7.94-1.63-11.71-3.2l1.79.76c-7.43-3.18-13.99-7.97-20.55-12.62-7.06-5.01-14.21-9.65-22.36-12.71l-1.99,14.73c.99.07,1.99.14,2.98.21,3.92.28,7.67-3.65,7.5-7.5-.19-4.3-3.3-7.2-7.5-7.5-.99-.07-1.99-.14-2.98-.21-3.72-.26-6.9,3.06-7.37,6.5-.52,3.89,1.83,6.9,5.37,8.23.72.27,1.43.55,2.14.85l-1.79-.76c13.34,5.73,23.68,16.47,36.74,22.71,3.76,1.8,7.69,3.36,11.77,4.27,4.83,1.07,9.82,1.49,14.76,1.59,8.39.16,16.89.01,25.25-.73,10.3-.92,20.3-2.99,29.57-7.71,3.5-1.78,4.8-6.99,2.69-10.26-2.31-3.58-6.51-4.6-10.26-2.69h0Z"/>
  <path class="cls-1" d="M580.58,538.46l-13.76,3.62c-4.51,1.19-9.01,2.52-13.63,3.18l1.99-.27c-2.68.34-5.34.39-8.02.04l1.99.27c-3.01-.43-5.92-1.29-8.73-2.44l1.79.76c-3.91-1.65-7.57-3.81-11.08-6.17-1.77-1.19-3.51-2.43-5.23-3.69-.8-.58-1.59-1.17-2.39-1.76-.4-.3-.8-.6-1.2-.9-.65-.48.73.57.67.52-.29-.2-.56-.44-.84-.67-.83-.67-1.64-1.37-2.41-2.11-.36-.34-.71-.7-1.04-1.06-.14-.16-.29-.31-.43-.47-.12-.14-1.02-1.26-.23-.23s-.25-.38-.42-.63c-.28-.41-.54-.84-.8-1.27-.59-.98-1.12-2-1.64-3.01-2.12-4.15-4.22-8.13-7.43-11.59-3.77-4.07-8.58-6.94-13.77-8.78-3.7-1.31-8.37,1.49-9.23,5.24-.96,4.2,1.27,7.82,5.24,9.23.5.18.99.36,1.47.56l-1.79-.76c1.45.62,2.85,1.35,4.18,2.22.33.22.65.45.98.67,1.23.84-1.39-1.18-.27-.21.7.6,1.39,1.2,2.04,1.86.51.52.99,1.05,1.46,1.61.42.51.59,1.2-.32-.43.19.34.47.65.68.97,1.04,1.55,1.9,3.2,2.74,4.86,1.8,3.56,3.62,6.9,6.21,9.96s5.78,5.3,8.9,7.61c5.55,4.11,11.22,8.25,17.58,11.04,3.52,1.55,7.06,2.88,10.88,3.47,4.73.73,9.11.6,13.84-.2,4.29-.73,8.49-1.98,12.69-3.08l13.29-3.49c3.79-1,6.48-5.4,5.24-9.23s-5.16-6.31-9.23-5.24h0Z"/>
  <path class="cls-1" d="M7.51,317.11c11.28-.2,22.53.74,33.71,2.23l-1.99-.27c13.89,1.87,27.66,4.57,41.47,6.91,11.1,1.88,22.34,3.05,33.38,5.28,5.94,1.2,11.81,2.77,17.42,5.1l-1.79-.76c3.2,1.35,6.3,2.94,9.2,4.85.72.47,1.42.96,2.11,1.47,1.36,1-1.27-1.03-.2-.16.34.27.67.54,1.01.82,1.4,1.17,2.71,2.43,3.96,3.76,2.7,2.86,7.92,2.92,10.61,0s2.88-7.55,0-10.61c-12.79-13.57-31.26-18.12-49.05-20.78-9.39-1.41-18.78-2.74-28.13-4.38-10.95-1.92-21.88-3.96-32.89-5.54-12.86-1.84-25.8-3.16-38.81-2.93-3.92.07-7.68,3.4-7.5,7.5s3.3,7.58,7.5,7.5h0Z"/>
  <path class="cls-1" d="M149.62,354.6c13.01,19.98,26.56,40,43.76,56.66,4.05,3.92,8.39,7.51,12.52,11.34,2.08,1.93,4.11,3.93,5.95,6.08.41.48.81.98,1.22,1.47.64.79-1.15-1.56-.27-.34.17.23.34.46.5.69.85,1.2,1.63,2.44,2.36,3.72,2.73,4.76,4.85,9.86,8.17,14.27,1.96,2.59,4.06,4.91,6.59,6.95,2.39,1.93,4.88,3.72,7.4,5.47,1.22.85,2.44,1.7,3.63,2.59.43.32,1.44,1.3-.23-.19.3.27.63.5.94.76.52.43,1.03.87,1.52,1.32,1.13,1.03,2.13,2.14,3.14,3.29s-1.03-1.45-.13-.18c.25.35.5.69.74,1.04.44.64.87,1.3,1.27,1.96,3.33,5.44,5.72,11.48,8.2,17.34l-.76-1.79c8.39,19.9,15.62,40.29,24.73,59.89,8.88,19.12,19.91,37.07,34.35,52.51,13.76,14.71,30.07,27.08,47.42,37.25,18.69,10.96,38.81,19.39,59.34,26.23,21.66,7.22,43.87,12.64,66.13,17.65,2.76.62,5.53,1.24,8.3,1.85,3.82.85,8.3-1.15,9.23-5.24.86-3.8-1.14-8.32-5.24-9.23-26.57-5.88-53.14-12.1-78.88-21.01-7.27-2.52-14.47-5.26-21.56-8.25l1.79.76c-10.13-4.29-20.03-9.11-29.57-14.58-4.62-2.65-9.16-5.45-13.59-8.41-2.27-1.52-4.51-3.07-6.72-4.67-.99-.72-1.98-1.45-2.96-2.18-.54-.41-1.09-.82-1.63-1.23-.96-.73.48.38.55.42-.38-.29-.75-.59-1.13-.88-8.37-6.59-16.23-13.85-23.34-21.78-1.76-1.97-3.48-3.98-5.15-6.04-.39-.47-.77-.95-1.15-1.43-.35-.44-1.83-2.38-.33-.41-.82-1.08-1.65-2.17-2.45-3.27-3.36-4.61-6.47-9.4-9.36-14.31-6.5-11.04-11.91-22.67-16.89-34.46l.76,1.79c-5.69-13.49-10.82-27.2-16.41-40.73-2.96-7.16-5.8-14.54-9.54-21.33-1.94-3.52-4.3-6.9-7.1-9.78s-5.98-5.15-9.19-7.4c-1.38-.97-2.78-1.93-4.15-2.92-.33-.24-.65-.48-.98-.72-.16-.12-.32-.24-.48-.36-.65-.47.81.6.72.56-.71-.34-1.42-1.15-2.01-1.67-1.27-1.12-2.43-2.33-3.52-3.62-.85-1,.91,1.28.16.2-.24-.34-.48-.67-.71-1.02-.5-.74-.98-1.51-1.43-2.28-1.8-3.06-3.3-6.29-5.02-9.39-1.94-3.52-4.3-6.78-6.94-9.81-4.75-5.45-10.5-9.9-15.78-14.81s-10.48-10.44-15.26-16.08c-1.24-1.47-2.47-2.95-3.68-4.45-.56-.69-1.11-1.39-1.66-2.08-.28-.35-.55-.7-.82-1.05-.14-.18-.27-.35-.41-.53-.61-.79.17.23.36.46-2.31-2.89-4.47-5.93-6.63-8.94-4.37-6.1-8.56-12.33-12.68-18.6-1.02-1.55-2.03-3.1-3.04-4.66-2.14-3.28-6.74-4.96-10.26-2.69-3.28,2.11-4.98,6.75-2.69,10.26h0Z"/>
  <path class="cls-1" d="M455.95,673.86c.19.93.36,1.87.49,2.81l-.27-1.99c1.19,9.01-.21,18.44,2.7,27.2,2.72,8.18,8.52,15.98,17.34,17.97,3.82.86,8.3-1.16,9.23-5.24.87-3.81-1.15-8.3-5.24-9.23-.77-.17-1.52-.4-2.25-.7l1.79.76c-.51-.22-1-.46-1.48-.73-.16-.09-1.38-.7-1.38-.9,0-.03,1.5,1.26.74.56-.2-.19-.42-.36-.62-.55-.41-.38-.8-.79-1.16-1.21-.18-.2-.35-.48-.54-.65.08.07,1.11,1.51.56.7-.33-.48-.65-.95-.94-1.44-.6-1-1.12-2.05-1.58-3.13l.76,1.79c-1.02-2.47-1.66-5.03-2.02-7.68l.27,1.99c-1.01-8.1-.24-16.27-1.92-24.31-.8-3.85-5.54-6.43-9.23-5.24-4.07,1.32-6.1,5.1-5.24,9.23h0Z"/>
  <path class="cls-1" d="M448.38,873.52c5.39-26.79,11.73-53.38,19.01-79.72s15.5-52.41,24.64-78.17c5.15-14.52,10.6-28.94,16.33-43.24.68-1.69.12-4.28-.76-5.78s-2.69-3.04-4.48-3.45c-1.92-.44-4.07-.34-5.78.76s-2.68,2.57-3.45,4.48c-10.16,25.36-19.43,51.09-27.76,77.11-8.33,26.02-15.74,52.34-22.2,78.89-3.64,14.97-6.98,30.02-10.02,45.13-.4,1.99-.3,3.98.76,5.78.91,1.56,2.69,3.04,4.48,3.45,3.73.85,8.4-1.13,9.23-5.24h0Z"/>
  <path class="cls-1" d="M449.92,873.57c11.77-17.2,20.82-35.99,28.72-55.22,7.86-19.11,14.46-38.72,21.23-58.23,2.07-5.96,4.14-11.91,6.2-17.87.97-2.8,1.59-5.74-.04-8.49-1.93-3.27-5.74-5.14-9.51-4.12s-5.98,4.32-6.06,8.02c-.08,3.46,2.62,7.43,6.17,7.99,2.06.33,3.91.34,5.78-.76,1.56-.91,3.04-2.69,3.45-4.48.44-1.92.34-4.07-.76-5.78-.99-1.54-2.6-3.15-4.48-3.45l-.22-.04,1.79.76,1.2.89,1.93,3.31c-.08-.14-.12-.28-.13-.44l.27,1.99v-.23c-.07.66-.16,1.33-.25,1.99l.07-.22-.76,1.79.13-.18-2.69,2.69.19-.13-1.79.76.29-.05h-3.99l.28.06-1.79-.76-2.08-2.05-.76-1.79.06.3v-3.99c-.2,1.36-.9,2.76-1.35,4.06-.52,1.49-1.03,2.98-1.55,4.47-1.01,2.9-2.01,5.8-3.02,8.7-1.95,5.6-3.89,11.21-5.84,16.81-3.59,10.33-7.22,20.66-11.1,30.89-2.21,5.81-4.5,11.59-6.91,17.32l.76-1.79c-7.31,17.31-15.79,34.17-26.42,49.7-2.22,3.25-.72,8.46,2.69,10.26,3.81,2.01,7.89.77,10.26-2.69h0Z"/>
  <path class="cls-1" d="M457.74,925.05c-2.39-18.49-2.31-37.25.17-55.72l-.27,1.99c2.12-15.57,5.93-30.88,11.4-45.61.64-1.73.15-4.24-.76-5.78s-2.69-3.04-4.48-3.45c-4.25-.97-7.76,1.29-9.23,5.24-9.54,25.7-14.13,53.37-13.53,80.77.16,7.54.74,15.07,1.7,22.56.27,2.07.66,3.77,2.2,5.3,1.3,1.3,3.44,2.28,5.3,2.2s3.95-.72,5.3-2.2c1.24-1.36,2.44-3.39,2.2-5.3h0Z"/>
  <path class="cls-1" d="M458.51,929.12c8.96-18.7,17.37-37.66,25.29-56.82,7.73-18.71,14.95-37.63,21.63-56.74,3.77-10.79,7.38-21.64,10.81-32.55,1.18-3.74-1.39-8.35-5.24-9.23-4.08-.93-7.96,1.23-9.23,5.24-8.06,25.59-17.06,50.89-26.98,75.83-2.82,7.08-5.71,14.13-8.67,21.16l.76-1.79c-6.74,15.94-13.85,31.73-21.33,47.34-.88,1.85-1.32,3.74-.76,5.78.48,1.74,1.82,3.63,3.45,4.48,3.35,1.77,8.45,1.09,10.26-2.69h0Z"/>
  <path class="cls-1" d="M479.85,963.39c-.83-3.77-1.49-7.58-2.01-11.4l.27,1.99c-1.98-14.99-1.56-30.17.45-45.13l-.27,1.99c2.27-16.72,6.45-33.11,11.55-49.17,1.46-4.6,3-9.18,4.6-13.74,1.3-3.71-1.47-8.37-5.24-9.23-4.19-.95-7.84,1.27-9.23,5.24-5.31,15.18-10.02,30.6-13.3,46.36s-5.34,32.56-4.78,48.98c.32,9.43,1.47,18.87,3.49,28.09.84,3.84,5.51,6.44,9.23,5.24,4.04-1.31,6.14-5.11,5.24-9.23h0Z"/>
  <path class="cls-1" d="M468.57,963.17c2.07,4.27,7.33,5.68,11.64,4.63s6.81-4.88,8.19-8.77c1.92-5.41,3.32-11.07,4.95-16.58,3.35-11.31,6.69-22.62,10.02-33.94,6.61-22.47,13.18-44.96,19.7-67.46,3.7-12.77,7.39-25.54,11.06-38.31,1.08-3.77-1.32-8.33-5.24-9.23s-8.07,1.2-9.23,5.24c-5.9,20.52-11.83,41.03-17.81,61.52-5.95,20.42-11.93,40.82-17.95,61.22-1.69,5.74-3.39,11.47-5.09,17.21-.85,2.87-1.7,5.73-2.55,8.6s-1.5,5.6-2.53,8.28l.76-1.79c-.1.24-.2.47-.32.7-.15.29-.82,1.22-.02.19.97-1.25-.73.44.59-.57.99-.76.28-.26-.03-.12l1.79-.76c-.29.1-.56.16-.87.2l1.99-.27c-.31.02-.57,0-.88-.03l1.99.27c-.19-.03-.37-.08-.55-.15l1.79.76c-.66-.33-.38-.08.82.74.81,1.21,1.05,1.49.71.83-1.72-3.54-7.04-4.77-10.26-2.69-3.63,2.34-4.53,6.48-2.69,10.26h0Z"/>
  <path class="cls-1" d="M483.73,947.58c5.18,3.75,10.62,7.01,16.65,9.22,6,2.2,13.05,2.84,19.07.38,6.47-2.64,11.18-7.61,14.22-13.85,2.83-5.82,4.81-12.08,6.79-18.22,8.21-25.48,13.24-51.98,15.19-78.67,1.08-14.81,1.15-29.69.21-44.51-.25-3.91-3.27-7.69-7.5-7.5-3.85.17-7.76,3.31-7.5,7.5,1.05,16.61.83,33.3-.65,49.88-.43,4.75-.96,9.49-1.59,14.21l.27-1.99c-2.58,19.21-6.83,38.19-12.75,56.65-1.56,4.85-3.13,9.74-5.09,14.45l.76-1.79c-.54,1.28-1.12,2.55-1.78,3.77-.33.61-.67,1.2-1.03,1.78-.26.42-1.07,1.21-1.15,1.68.05-.29,1.21-1.51.37-.51-.2.23-.4.46-.61.69-.5.54-1.04,1.02-1.59,1.51-.9.81,1.24-.87.5-.39-.26.17-.51.35-.77.51-.67.42-1.36.77-2.08,1.09l1.79-.76c-1.3.54-2.63.92-4.02,1.13l1.99-.27c-1.77.23-3.53.2-5.3-.03l1.99.27c-2.52-.37-4.94-1.12-7.3-2.09l1.79.76c-4.77-2.02-9.14-4.83-13.33-7.87-1.49-1.08-4.08-1.22-5.78-.76s-3.63,1.82-4.48,3.45c-.92,1.74-1.38,3.85-.76,5.78s1.78,3.28,3.45,4.48h0Z"/>
  <path class="cls-1" d="M462.38,791.09c-1.58-18.01-3.07-36.11-2.22-54.2.24-5.02.67-10.03,1.32-15.02l-.27,1.99c1.49-11.08,4.18-21.98,8.52-32.29l-.76,1.79c.17-.41.35-.82.53-1.23.84-1.92,1.34-3.67.76-5.78-.48-1.74-1.82-3.63-3.45-4.48-1.74-.92-3.85-1.38-5.78-.76-1.73.56-3.72,1.7-4.48,3.45-2.92,6.68-5.34,13.51-7.07,20.6s-2.83,14.3-3.57,21.54c-1.4,13.66-1.16,27.44-.34,41.13.47,7.76,1.12,15.51,1.8,23.26.18,2.02.72,3.82,2.2,5.3,1.3,1.3,3.44,2.28,5.3,2.2,3.77-.17,7.87-3.31,7.5-7.5h0Z"/>
  <path class="cls-1" d="M483.77,576.68c8.25,14.59,19,27.89,31.61,38.95,2.43,2.13,6.18,3.05,9.09,1.17,1.08-.7,1.99-1.61,2.69-2.69,1.16-1.8,1.03-3.78.76-5.78-.67-4.8-1.33-9.61-2-14.41l-14.46,3.99c6.46,16.82,12.88,33.65,18.7,50.7,5.77,16.93,10.96,34.07,14.93,51.52,2.23,9.8,4.06,19.68,5.4,29.64l-.27-1.99c1.5,11.27,2.36,22.62,2.4,33.99.04,12.07-.96,24.1-1.57,36.14s-.53,23.88.7,35.81,3.33,24.54,5.43,36.74c2.28,13.32,4.4,26.65,6.21,40.04l-.27-1.99c3.14,23.41,5.47,46.93,6.94,70.51.42,6.71.77,13.43,1.06,20.15.17,3.91,3.33,7.69,7.5,7.5,3.92-.18,7.68-3.3,7.5-7.5-.87-20.49-2.36-40.95-4.49-61.34-2.19-20.98-5.03-41.89-8.5-62.69-1.89-11.31-3.96-22.6-5.51-33.97l.27,1.99c-1.12-8.37-1.96-16.78-2.19-25.23-.23-8.57.17-17.15.67-25.71s1.09-17.13,1.23-25.71c.13-8.13-.16-16.26-.82-24.36-1.36-16.65-4.17-33.18-8.02-49.43-3.77-15.88-8.51-31.52-13.75-46.98s-11.03-30.83-16.89-46.12c-.73-1.9-1.46-3.81-2.19-5.71s-1.66-3.43-3.45-4.48c-1.61-.94-3.98-1.34-5.78-.76s-3.57,1.71-4.48,3.45c-1.01,1.91-1.05,3.66-.76,5.78.67,4.8,1.33,9.61,2,14.41,4.18-2.43,8.36-4.86,12.54-7.3-6.02-5.28-11.61-11.05-16.67-17.26-.59-.73-1.17-1.46-1.76-2.2-.48-.62-.36-.45.38.49-.18-.23-.35-.46-.53-.69-.26-.34-.52-.69-.78-1.04-1.21-1.62-2.38-3.26-3.52-4.93-2.28-3.34-4.4-6.77-6.39-10.29s-6.89-4.86-10.26-2.69-4.76,6.61-2.69,10.26h0Z"/>
  <path class="cls-1" d="M554.41,555.47c.99,2.19,1.96,4.39,2.9,6.61l-.76-1.79c8.52,20.24,14.47,41.48,18.43,63.07,1.13,6.14,2.09,12.31,2.92,18.49l-.27-1.99c3.09,23.15,4.24,46.52,4.27,69.86.03,24.9-1.21,49.78-2.57,74.63-1.39,25.52-2.92,51.05-3.36,76.61-.22,12.72-.18,25.45.28,38.17.46,12.57,1.41,25.12,2.41,37.66,1.98,24.87,4.06,49.91,1.84,74.83-.27,3.06-.61,6.1-1.02,9.15l.27-1.99c-.39,2.89-.85,5.77-1.37,8.63h14.46c-3.03-16.43-6.71-32.74-11.03-48.88-1.02-3.79-5.39-6.48-9.23-5.24s-6.33,5.17-5.24,9.23c4.33,16.14,8.01,32.45,11.03,48.88.57,3.08,4.17,5.64,7.23,5.51,1.33-.06,2.61-.4,3.79-1.02,1.48-.78,3.14-2.8,3.45-4.48,5.91-32.49,3.13-65.35.55-98.02-1.28-16.19-2.27-32.38-2.49-48.62-.22-16.36.16-32.73.82-49.08,1.32-32.75,3.74-65.44,4.74-98.21.92-30.16.56-60.43-2.93-90.43-3.5-30.02-9.87-59.77-21.31-87.82-1.55-3.8-3.16-7.57-4.86-11.31-.73-1.61-2.85-3-4.48-3.45-1.8-.49-4.19-.27-5.78.76s-3.01,2.57-3.45,4.48c-.47,2.08-.12,3.85.76,5.78h0Z"/>
  <path class="cls-1" d="M383.32,358.77c1.28-2.61,1.64-5.46.07-8.09-1.4-2.35-4.16-3.96-6.92-3.87-3.79.13-7.8,2.52-8.66,6.45-1.26,5.81,3.35,10.56,9.02,10.67,3.14.06,5.91-1.61,8.54-3.08,7.64-4.27,15.26-8.57,22.79-13.03,15.49-9.18,30.58-19.12,44.39-30.72,6.65-5.59,12.96-11.59,18.74-18.07,6.33-7.1,11.91-14.78,17.05-22.77,2.62-4.07,5.19-8.18,7.92-12.18.64-.94,1.29-1.86,1.95-2.78.35-.49.71-.98,1.07-1.46.18-.24.36-.48.54-.73.16-.22,1-1.3.24-.32s.32-.4.54-.67c.38-.47.76-.94,1.15-1.41.78-.93,1.59-1.85,2.4-2.76,6.54-7.22,14.08-13.44,21.61-19.58,3.63-2.97,7.29-5.9,10.97-8.81,1.84-1.45,3.68-2.9,5.53-4.34.87-.68,1.73-1.35,2.6-2.02.76-.59-1.23.95-.47.37.23-.18.46-.36.7-.54.52-.4,1.04-.8,1.57-1.2,7.38-5.65,14.83-11.2,22.36-16.65,15.11-10.92,30.53-21.42,46.21-31.53s31.62-19.81,47.78-29.14,32.57-18.32,49.14-26.95c16.6-8.64,33.37-16.95,50.29-24.94s34.04-15.69,51.24-23.11c4.19-1.8,8.38-3.59,12.58-5.36l-1.79.76c15.92-6.71,31.94-13.21,48.03-19.5s32.24-12.37,48.46-18.29c4.48-1.63,8.97-3.25,13.46-4.86,3.72-1.33,7.37-2.78,11.31-3.31l-1.99.27c1.99-.25,3.99-.31,5.97-.05l-1.99-.27c1.08.16,2.12.41,3.13.82l-1.79-.76c.38.17.76.35,1.12.56.17.1.33.24.51.33.45.24-1.43-1.37-.86-.65.24.31,1.17,1.35.21.13s-.04.1.14.51l-.76-1.79c.23.58.39,1.17.48,1.79l-.27-1.99c.07.71.06,1.38-.03,2.09l.27-1.99c-.15.84-.4,1.63-.72,2.43l.76-1.79c-.64,1.43-1.46,2.75-2.36,4.04-.38.54-.76,1.08-1.16,1.61-.14.19-.96,1.26-.13.18s-.23.27-.4.48c-1.79,2.18-3.72,4.24-5.77,6.17-1,.95-2.03,1.86-3.09,2.75-.5.42-1.01.84-1.52,1.25-.31.25-.61.51-.93.74l.89-.69c-.21.16-.42.32-.63.48-2.33,1.76-4.75,3.4-7.23,4.95-10.25,6.43-21.39,11.37-32.41,16.31-7.24,3.24-14.52,6.4-21.83,9.48l1.79-.76c-21.64,9.12-43.53,17.63-65.47,25.98-6.2,2.36-12.41,4.72-18.62,7.07-1.87.71-3.44,1.66-4.48,3.45-.94,1.61-1.34,3.98-.76,5.78,1.16,3.57,5.3,6.73,9.23,5.24,30.74-11.65,61.47-23.33,91.7-36.28,13.74-5.88,27.64-11.75,40.79-18.88s24.17-15.38,32.53-27.09c2.61-3.66,4.86-7.94,4.63-12.57-.22-4.61-2.42-8.47-6.13-11.15-5.27-3.8-12.57-3.51-18.63-2.34-2.91.56-5.66,1.65-8.45,2.64-3.45,1.24-6.91,2.48-10.35,3.73-6.9,2.5-13.79,5.04-20.67,7.6-28.02,10.45-55.83,21.47-83.37,33.13s-53.86,23.56-80.27,36.47c-26.21,12.81-52.05,26.41-77.36,40.91-25.39,14.54-50.26,30-74.45,46.47-24.61,16.75-48.5,34.57-71.53,53.44-5.89,4.83-11.75,9.74-17.09,15.19-5.65,5.77-10.51,12.24-14.96,18.98-4.15,6.28-8.02,12.75-12.43,18.85-.48.66-.97,1.32-1.46,1.98-.25.33-.49.65-.74.98-.92,1.22,1.12-1.42.17-.22-1.1,1.39-2.2,2.77-3.34,4.12-2.18,2.6-4.45,5.12-6.8,7.57-4.69,4.91-9.68,9.52-14.88,13.89-1.25,1.05-2.52,2.09-3.79,3.11-.64.51-1.28,1.02-1.92,1.53-.32.25-.65.5-.97.76-.61.48-.43.33.55-.42-.22.17-.43.33-.65.5-2.72,2.08-5.49,4.1-8.28,6.07-11.28,7.94-23.09,15.08-35.05,21.95-2.87,1.65-5.75,3.28-8.63,4.9s-5.55,3.4-8.48,4.68l1.79-.76c-.44.17-.87.3-1.34.38l1.99-.27c-.21.03-.43.04-.64.02l1.99.27c-.2-.01-.4-.06-.59-.13l1.79.76c-1.14-.61-.52.05,1.87,1.97l.76,1.79-.05-.16.27,1.99v-.15c-.1.66-.19,1.33-.28,1.99l.03-.15-.76,1.79c.62-1.31-3.64,2.83-1.96,2.04l-1.79.76c.17-.06.33-.11.51-.14l-1.99.27c.1-.01.2-.02.3,0l-1.99-.27.13.03-1.79-.76-2.47-2.48-1.02-3.79v.12c.1-.66.18-1.33.27-1.99l-.04.14.76-1.79-.08.17c-.9,1.83-1.31,3.76-.76,5.78.48,1.74,1.82,3.63,3.45,4.48,3.37,1.78,8.42,1.07,10.26-2.69h0Z"/>
  <path class="cls-1" d="M946.18,41.03c1.86-.69,3.77-1.19,5.74-1.47l-1.99.27c1.82-.23,3.63-.25,5.45-.03l-1.99-.27c1.38.2,2.71.54,4.01,1.05l-1.79-.76c.82.35,1.61.74,2.36,1.23.68.45.81.99-.39-.33.27.3.63.55.91.83.18.18.8.66.84.91l-.73-.96c.14.19.28.38.41.58.46.68.84,1.4,1.17,2.15l-.76-1.79c.4.97.68,1.95.84,2.98l-.27-1.99c.11.92.12,1.81,0,2.73l.27-1.99c-.13.84-.35,1.61-.66,2.4l.76-1.79c-.26.58-.54,1.14-.89,1.68-.14.21-.91,1.24-.07.17s.02-.06-.14.12c-.87.97-1.87,1.78-2.86,2.63,1.92-1.64.1-.1-.36.23-.56.4-1.13.79-1.7,1.19-1.18.82-2.37,1.63-3.57,2.42-4.78,3.18-9.67,6.19-14.65,9.05-9.83,5.65-19.98,10.72-30.29,15.43-5.89,2.7-11.84,5.28-17.81,7.8l1.79-.76c-23.5,9.91-47.42,18.84-70.6,29.5-6.42,2.95-12.77,6.04-19.03,9.32-3.48,1.82-4.81,6.97-2.69,10.26,2.29,3.55,6.54,4.64,10.26,2.69,12.28-6.42,24.92-12.11,37.68-17.5l-1.79.76c22.96-9.68,46.3-18.43,68.98-28.76,11.03-5.03,21.89-10.45,32.38-16.55,5.27-3.07,10.45-6.31,15.49-9.74,5.78-3.94,11.89-8.13,13.96-15.22,2.4-8.2-1.96-16.52-8.61-21.2s-16.24-4.47-23.62-1.74c-1.87.69-3.45,1.68-4.48,3.45-.94,1.61-1.34,3.98-.76,5.78,1.16,3.6,5.29,6.7,9.23,5.24h0Z"/>
  <path class="cls-1" d="M948.12,80.79c4.12.49,8.23.99,12.35,1.48l-5.3-2.2c.89.9-.97-1.56-.45-.53l-.76-1.79c.11.28.17.52.22.82l-.27-1.99c.02.3,0,.57-.03.87l.27-1.99c-.08.42-.2.8-.36,1.19l.76-1.79c-.17.36-.35.71-.56,1.04-.81,1.28,1-1.07.2-.23-.25.27-.5.54-.76.8-.18.17-.36.33-.54.49-.78.72.61-.55.69-.51-.2-.11-2.22,1.54-2.54,1.76-1.03.71-2.06,1.42-3.09,2.13-3.84,2.65-7.68,5.3-11.52,7.94-7.61,5.25-15.23,10.5-22.84,15.75-15,10.34-29.84,20.95-45.08,30.94-8.19,5.37-16.66,10.24-25.69,14.07l1.79-.76c-9.44,3.97-19.22,7.02-28.9,10.33s-19.19,6.8-28.67,10.53c-19.4,7.64-38.48,16.13-57.1,25.51-10.27,5.18-20.41,10.62-30.4,16.32-3.41,1.95-4.87,6.88-2.69,10.26s6.61,4.77,10.26,2.69c17.89-10.21,36.24-19.59,55-28.09,5.31-2.41,10.65-4.74,16.02-7.01l-1.79.76c14.18-5.97,28.56-11.46,43.13-16.44s30.04-9.79,43.9-17.48c13.62-7.56,26.24-16.94,39.05-25.77,13.45-9.27,26.89-18.54,40.34-27.81,3.7-2.55,7.41-5.11,11.11-7.66,1.92-1.32,3.84-2.65,5.76-3.97s3.88-2.66,5.4-4.45c1.63-1.93,3.06-4.04,3.59-6.56.79-3.7-.18-7.25-2.84-9.97s-7.25-2.43-10.74-2.85l-6.92-.83c-1.77-.21-4.1.99-5.3,2.2-1.3,1.3-2.28,3.44-2.2,5.3s.72,3.95,2.2,5.3c1.56,1.43,3.21,1.95,5.3,2.2h0Z"/>
  <path class="cls-1" d="M908.87,127.94c1.9-1.29,3.81-2.54,5.92-3.47l-1.79.76c1.04-.43,2.1-.75,3.21-.94l-1.99.27c.8-.11,1.58-.15,2.38-.08l-1.99-.27c.72.1,1.39.27,2.06.53l-1.79-.76c.44.19.85.43,1.27.65,1.1.57-1.33-1.24-.39-.32.25.24.48.51.72.75-1.5-1.44-.65-.88-.27-.1l-.76-1.79c.22.52.36,1.02.44,1.58l-.27-1.99c.02.34.02.65,0,.99l.27-1.99c-.08.51-.21.98-.4,1.46l.76-1.79c-.45.96-1.06,1.79-1.7,2.63-1.08,1.41.99-1.27-.1.12-.38.49-.77.98-1.16,1.47-1.33,1.67-2.7,3.32-4.08,4.95-2.81,3.3-5.73,6.52-8.74,9.64-5.97,6.2-12.31,12.04-18.93,17.54-1.64,1.37-3.3,2.72-4.98,4.05-.43.34-.87.68-1.3,1.03-.27.21-1.56,1.21-.55.43,1.09-.84-.52.39-.72.55-.49.38-.99.75-1.49,1.13-3.43,2.58-6.92,5.08-10.46,7.51-7.16,4.92-14.52,9.54-22.02,13.92-15.58,9.09-31.77,17.1-48.18,24.58-17.92,8.17-36.12,15.73-54.22,23.49-18.16,7.79-36.24,15.79-53.83,24.79-2.17,1.11-4.34,2.24-6.49,3.38-3.47,1.84-4.82,6.95-2.69,10.26,2.28,3.53,6.55,4.66,10.26,2.69,19.62-10.4,39.93-19.42,60.33-28.17,20.27-8.69,40.66-17.14,60.65-26.46,18.05-8.42,35.77-17.59,52.63-28.21,16.77-10.56,32.8-22.56,47.06-36.35,6.98-6.75,13.54-13.96,19.52-21.61,2.06-2.63,4.53-5.33,5.25-8.71.92-4.29-.35-8.18-3.11-11.49-4.31-5.17-11.94-6.29-17.99-3.9-2.86,1.13-5.38,2.58-7.91,4.3-1.63,1.11-2.91,2.54-3.45,4.48-.49,1.8-.27,4.19.76,5.78,2.08,3.22,6.79,5.05,10.26,2.69h0Z"/>
  <path class="cls-1" d="M835.91,205.34c-1.51,1.98-.83,1.05-.41.62.23-.24,1.3-1.09.11-.16s-.23.21.06.04.58-.31.88-.44l-1.79.76c.8-.33,1.61-.54,2.47-.67l-1.99.27c.98-.12,1.94-.11,2.92,0l-1.99-.27c1.2.16,2.34.48,3.46.95l-1.79-.76c.6.27,1.18.56,1.73.91.61.39,1.27,1.21-.42-.39.22.21.46.38.67.59s.41.43.62.64c.86.88-1.06-1.56-.43-.58.44.68.82,1.37,1.15,2.11l-.76-1.79c.47,1.16.78,2.35.96,3.58l-.27-1.99c.16,1.38.15,2.74,0,4.12l.27-1.99c-.24,1.79-.72,3.5-1.4,5.17l.76-1.79c-.38.89-.81,1.76-1.3,2.6-.23.39-.47.77-.72,1.15-.14.21-.3.42-.44.63-.78,1.17.93-1.1.35-.45-1.42,1.59-2.88,3.04-4.51,4.43-.92.78.49-.36.55-.42-.2.17-.44.33-.66.49-.39.28-.78.56-1.17.83-.91.62-1.83,1.22-2.77,1.79-1.83,1.11-3.7,2.14-5.58,3.16-8.43,4.56-16.88,9.08-25.34,13.57-17.03,9.04-34.17,17.91-51.58,26.19-9.81,4.67-19.71,9.15-29.72,13.37l1.79-.76c-18.14,7.64-36.65,14.43-55.56,19.9-3.77,1.09-6.5,5.34-5.24,9.23s5.19,6.4,9.23,5.24c16.61-4.8,32.9-10.61,48.91-17.13,16.48-6.72,32.68-14.12,48.66-21.96,15.57-7.65,30.94-15.69,46.24-23.86,7.47-3.98,14.97-7.91,22.37-12.02s14.78-9.2,18.71-16.82c4.37-8.48,4.81-19.3-1.97-26.7-5.57-6.07-15.47-7.89-22.71-3.9-2.24,1.23-3.75,2.96-5.26,4.95-1.1,1.44-1.21,4.13-.76,5.78.48,1.74,1.82,3.63,3.45,4.48,1.74.92,3.85,1.38,5.78.76s3.23-1.8,4.48-3.45h0Z"/>
  <path class="cls-1" d="M745.72,286.06c1.24-.3,2.48-.54,3.74-.71l-1.99.27c2.02-.26,4.04-.34,6.06-.08l-1.99-.27c1.07.16,2.11.42,3.11.84l-1.79-.76c.34.15.67.32.99.51.12.07.32.28.46.3-.2-.04-1.56-1.4-.78-.57.12.13.25.28.38.39.48.39-.94-1.43-.66-.86.19.39.45.74.63,1.13l-.76-1.79c.26.63.43,1.26.53,1.93l-.27-1.99c.09.87.07,1.7-.03,2.57l.27-1.99c-.34,2.3-1.15,4.51-2.04,6.66l.76-1.79c-.98,2.29-2.13,4.49-3.46,6.6-.64,1.03-1.32,2.03-2.04,3.01-.15.21-.3.41-.46.62-.7.95.44-.56.47-.6-.4.57-.88,1.11-1.33,1.65-3.22,3.85-6.88,7.31-10.71,10.54-.91.76-1.83,1.52-2.76,2.26-.52.41-1.04.82-1.56,1.23-.37.29-1.11.83.58-.45-.32.24-.63.48-.95.72-1.99,1.51-4.01,2.99-6.04,4.45-4.7,3.39-9.41,6.78-14.26,9.93-5.38,3.5-10.98,6.62-16.9,9.12l1.79-.76c-22.88,9.56-48.2,10.51-71.36,19.17-6.92,2.59-13.64,5.72-19.78,9.84-3.25,2.18-4.98,6.71-2.69,10.26,2.09,3.24,6.78,5.03,10.26,2.69,4.4-2.95,9.08-5.41,13.95-7.48l-1.79.76c23.94-10.06,50.65-10.6,74.66-20.47,7.18-2.95,13.91-6.55,20.39-10.82,5.83-3.84,11.51-7.93,17.12-12.08,10.76-7.97,21.52-16.82,27.98-28.81,4.19-7.77,8.33-19.25.56-26.32-6.07-5.52-14.83-5.1-22.29-3.31-3.82.92-6.46,5.46-5.24,9.23,1.29,3.97,5.14,6.22,9.23,5.24h0Z"/>
  <path class="cls-1" d="M247.73,339.49c-2.66,1.02-5.39,1.81-8.22,2.21l1.99-.27c-2.09.27-4.17.32-6.27.05l1.99.27c-1.51-.23-2.97-.62-4.38-1.2l1.79.76c-.76-.34-1.45-.73-2.15-1.16-1.04-.63,1.6,1.38.24.18-.28-.25-.56-.52-.82-.79s-.49-.58-.75-.86c1.59,1.69.69.91.32.33-.44-.68-.81-1.4-1.13-2.15l.76,1.79c-.4-.99-.68-2-.85-3.05l.27,1.99c-.12-.93-.13-1.84-.03-2.77l-.27,1.99c.12-.81.32-1.59.63-2.35l-.76,1.79c.21-.48.47-.91.74-1.36.57-.97-1.08,1.22-.46.6.2-.21.39-.43.6-.63.17-.16.35-.29.51-.45-1.43,1.39-1.1.83-.55.48s1.09-.62,1.66-.87l-1.79.76c1.31-.54,2.67-.86,4.07-1.06l-1.99.27c2.72-.33,5.44-.17,8.15.18l-1.99-.27c1.71.25,3.37.61,4.98,1.27l-1.79-.76c.69.31,1.33.68,1.97,1.09,1.01.66-1.15-1-.51-.39.26.25.54.49.8.75.2.21.38.49.61.68-1.21-.98-.81-1.11-.3-.35.4.61.74,1.26,1.04,1.92l-.76-1.79c.42,1.02.72,2.06.88,3.14l-.27-1.99c.12.99.12,1.97.01,2.96l.27-1.99c-.16,1.12-.46,2.19-.88,3.24l.76-1.79c-.23.52-.48,1.02-.76,1.5-.16.27-.34.52-.51.79-.65,1.03.98-1.11.36-.49-.39.4-.79.8-1.19,1.19-.77.75.53-.54.64-.48-.02,0-.9.58-.95.61-3.37,2.01-4.9,6.84-2.69,10.26s6.65,4.84,10.26,2.69c7.85-4.67,12.09-14.96,8.53-23.63-1.79-4.37-4.73-8.31-9.02-10.53s-8.71-2.8-13.27-2.99c-4.23-.17-8.35.54-12.22,2.25-4.17,1.85-7.18,5.48-8.74,9.69-2.65,7.18.77,16.18,6.6,20.78,4.34,3.43,9.52,5.09,15.05,5.13,4.69.04,9.43-1.04,13.79-2.72,1.88-.72,3.43-1.66,4.48-3.45.94-1.61,1.34-3.98.76-5.78-1.15-3.56-5.3-6.74-9.23-5.24h0Z"/>
  <path class="cls-1" d="M236.41,325.76c.5-.1,1.01-.19,1.51-.26l-1.99.27c2.3-.3,4.59-.3,6.89,0l-1.99-.27c2.29.34,4.51.95,6.65,1.85l-1.79-.76c1.41.62,2.77,1.33,4.05,2.18.32.21.63.44.94.66,1.19.84-1.41-1.18-.31-.23.58.51,1.15,1.01,1.7,1.56.47.48,1.24,1.11,1.54,1.72l-.7-.91c.15.2.31.41.45.62.22.31.44.63.65.95.83,1.29,1.53,2.66,2.13,4.08l-.76-1.79c.82,2.03,1.39,4.12,1.72,6.29l-.27-1.99c.31,2.3.32,4.59.02,6.89l.27-1.99c-.06.38-.12.76-.19,1.14-.37,2.02-.32,3.95.76,5.78.91,1.56,2.69,3.04,4.48,3.45,3.67.84,8.48-1.11,9.23-5.24,1.5-8.3.18-17-4.44-24.17s-11.69-12.23-19.87-14.11c-4.89-1.13-9.74-1.14-14.66-.16-3.85.77-6.42,5.56-5.24,9.23,1.33,4.1,5.1,6.06,9.23,5.24h0Z"/>
  <path class="cls-1" d="M143.5,335.66l-.08.06,3.31-1.93-.08.02h3.99l-.07-.02,1.79.76-.07-.05,2.69,2.69s-.08-.1-.1-.17l.76,1.79-.03-.1.27,1.99c-.02-.07-.02-.14,0-.22l-.27,1.99.03-.1-.76,1.79.05-.09-1.17,1.52.07-.07-3.31,1.93.1-.04-1.99.27h.18c-.66-.1-1.33-.19-1.99-.28l.17.04-1.79-.76c.12.05.22.11.31.2l-1.52-1.17c.1.09.19.19.27.3l-1.17-1.52c.7,1.03,1.26,2.18,1.87,3.26.67,1.17,1.33,2.35,2,3.52,1.31,2.31,2.62,4.62,3.93,6.93.92,1.63,2.69,2.95,4.48,3.45s4.19.27,5.78-.76,3.01-2.57,3.45-4.48.27-3.98-.76-5.78c-2.19-3.85-4.37-7.7-6.56-11.54-.75-1.32-1.45-2.78-2.55-3.84s-2.42-1.86-3.94-2.31c-2.54-.75-5.76.05-7.58,1.98-2.49,2.63-3.11,6.57-1.24,9.76,1.02,1.74,2.7,3.04,4.64,3.58,1.34.37,2.72.37,4.06,0,1.61-.44,2.16-.99,3.43-2,1.4-1.12,2.2-3.59,2.2-5.3,0-1.84-.82-4.04-2.2-5.3s-3.31-2.29-5.3-2.2l-1.99.27c-1.27.36-2.37,1-3.31,1.93h0Z"/>
  <path class="cls-1" d="M228.85,340.78l.35.35c.68.73,1.48,1.25,2.41,1.55.89.47,1.86.68,2.89.65,1.03.04,2-.18,2.89-.65.93-.3,1.73-.82,2.41-1.55l1.17-1.52c.68-1.17,1.02-2.43,1.02-3.79l-.27-1.99c-.36-1.27-1-2.37-1.93-3.31l-.35-.35c-.68-.73-1.48-1.25-2.41-1.55-.89-.47-1.86-.68-2.89-.65-1.03-.04-2,.18-2.89.65-.93.3-1.73.82-2.41,1.55l-1.17,1.52c-.68,1.17-1.02,2.43-1.02,3.79l.27,1.99c.36,1.27,1,2.37,1.93,3.31h0Z"/>
  <path class="cls-1" d="M229.08,331.46l-.21.16,3.31-1.93c-.15.08-.31.13-.48.13l1.99-.27-.26-.02,1.99.27-.25-.07,1.79.76c-1.14-.56-.51.12,1.89,2.03l.76,1.79c-.09-.15-.13-.31-.13-.48l.27,1.99.03-.26-5.51,7.23.27-.09-1.99.27c.19-.04.38-.04.57,0l-1.99-.27.28.08-1.79-.76c.69.36.43.05-.77-.92-.97-1.21-1.27-1.47-.91-.79l-.76-1.79.07.28-.27-1.99v.32c.09-.66.18-1.33.27-1.99l-.07.31.76-1.79c-.35.7-.06.47.88-.71,1.18-.95,1.42-1.23.72-.86l1.79-.76-.31.08,1.99-.27h-.32c.66.1,1.33.19,1.99.28-.22-.02-.42-.08-.61-.18l1.79.76c1.84,2.27,2.45,2.85,1.84,1.74l.76,1.79-.1-.31.27,1.99c-.05-.21-.05-.43-.02-.64l-7.5,7.5h.18c-1.77-.74-3.54-1.47-5.3-2.2l.12.1-1.93-3.31.07.17-.27-1.99v.2c.1-.66.19-1.33.28-1.99l-.05.2.76-1.79-.11.16,2.69-2.69-.18.09,3.79-1.02h-.35c1.26.33,2.52.67,3.79,1.01.52.33.94.75,1.27,1.25.41.59.48.66.23.21l.76,1.79c-.09-.18-.14-.37-.15-.57l.27,1.99.02-.26-1.02,3.79.11-.21-2.69,2.69.21-.15-3.79,1.02.4-.02-1.99-.27.24.09-3.31-1.93c-.79-1.28-1.03-1.59-.72-.93l-.76-1.79.06.26-.27-1.99v.26c.09-.66.18-1.33.27-1.99l-.06.25.76-1.79,2.14-2.07,1.79-.76c-.18.09-.37.15-.57.17l1.99-.27h-.3c.66.09,1.33.18,1.99.27-.2-.01-.4-.06-.58-.15l1.79.76c.54.32.99.73,1.34,1.25.41.59.49.65.23.16l.76,1.79c-.09-.2-.14-.4-.16-.61l.27,1.99v-.29c-.08.66-.17,1.33-.26,1.99.02-.19.07-.38.15-.56l-.76,1.79-2.19,2.16-1.79.76.22-.03h-3.99l.24.07-3.31-1.93-.83-1.1-.76-1.79.05.29-.27-1.99-.02.32.27-1.99c-.03.21-.08.42-.16.62l3.45-4.48-.19.13,1.79-.76-.23.04h3.99l-.23-.05,1.79.76,1.16.87,1.93,3.31-.05-.23v3.99l.06-.23-1.93,3.31-1.15.89-1.79.76.24-.04h-3.99l.23.05-1.79-.76.19.14-2.69-2.69.1.21-1.02-3.79v.22c.09-.66.18-1.33.27-1.99l-.09.21,1.93-3.31,1.15-.83,1.79-.76-.24.1,1.99-.27-.25.03,1.99.27-.25-.05,1.79.76c1.79,2.27,2.4,2.83,1.83,1.68l.76,1.79c-.11-.32-.19-.62-.24-.95l.27,1.99c-.02-.19-.02-.38,0-.57l-.27,1.99c.04-.29.1-.52.2-.79l-.76,1.79-2.23,2.19-1.79.76.21-.06-1.99.27h.24c-.66-.08-1.33-.17-1.99-.26l.28.1-3.31-1.93c-.76-1.21-.98-1.48-.64-.79l-.76-1.79c.07.2.13.41.17.63l-.27-1.99.02.26.27-1.99c0,.18-.05.34-.14.5l1.93-3.31-.15.14,5.3-2.2h-.21c1.77.74,3.54,1.47,5.3,2.2.72,1.16.91,1.38.55.66l.76,1.79-.09-.37.27,1.99v-.38c-.1.66-.19,1.33-.28,1.99l.08-.37-.76,1.79-2.05,1.99-1.79.76.3-.11-1.99.27.31-.02-1.99-.27.31.07-1.79-.76-1.12-.81-1.93-3.31c.09.16.14.34.14.52l-.27-1.99-.03.26,1.02-3.79.87-1.11,11.78,1.52-.15-.23.76,1.79c-.08-.17-.13-.34-.14-.53l.27,1.99v-.28c-.09.66-.18,1.33-.27,1.99.02-.19.06-.37.13-.54l-.76,1.79c.61-1.12-.05-.49-1.97,1.88l-1.79.76.26-.1-8.47-3.45c.16.2.28.43.37.67l-.76-1.79c.09.24.14.49.16.75l-.27-1.99v.38c.09-.66.18-1.33.26-1.99l-.06.38,9.23-5.24-.31-.08,1.79.76,1.98,2.06.76,1.79c-.11-.19-.16-.39-.17-.61l.27,1.99.04-.32-1.02,3.79c-.53.75-1.18,1.39-1.93,1.92l-1.79.76.27-.07-1.99.27h.28c-.66-.1-1.33-.19-1.99-.28l.27.06-1.79-.76-2.12-2.12-.76-1.79.07.27-.27-1.99v.28c.09-.66.18-1.33.27-1.99l-.06.27.76-1.79,2.16-2.09,10.26,2.69-.16-.21.76,1.79-.08-.25.27,1.99v-.27c-.1.66-.19,1.33-.28,1.99l.05-.27-.76,1.79-2.19,2.08-1.79.76.26-.08-1.99.27h.27c-.66-.08-1.33-.16-1.99-.25l.25.1-1.79-.76-2.19-2.07-.76-1.79.05.26-.27-1.99-.02.26,1.02-3.79-.11.25,11.78-1.52c.7,1.03.86,1.21.49.54l.76,1.79-.11-.38.27,1.99v-.32c-.09.66-.18,1.33-.27,1.99l.08-.31-.76,1.79-.8,1.03-3.31,1.93.28-.12-1.99.27h.26c-1.26-.33-2.52-.67-3.79-1.02l-2.15-2.17-1.02-3.79.02.24,1.02-3.79-.1.22,13.71,1.79c-.07-.22-.12-.45-.15-.68l.27,1.99-.02-.34-.27,1.99.05-.33-.76,1.79-2.18,2.1-1.79.76.24-.05-1.99.27.24.02-1.99-.27.21.08-3.31-1.93.15.14-1.93-3.31.07.21,12.54-7.3.83,1.02,1.02,3.79-.02-.31-.27,1.99.1-.29-14.46-3.99c-1.22,4.06-.62,8.26,1.22,12.01s5.25,6.12,8.95,7.48c4.27,1.57,9.55.96,12.76-2.44,2.85-3.01,4.56-7.6,4.05-11.75l-7.5,7.5h.32c-.66-.09-1.33-.17-1.99-.26.2.02.39.08.57.17l-1.79-.76-1.02-.82c.36.39.3.3-.17-.26-.81-1-.23-.19-.08.13l-.76-1.79c.6,1.5.87,3.16,1.11,4.76l-.27-1.99c.06.48.12.96.17,1.44l14.73-1.99c-1.62-4.04-3.39-8-5.46-11.83l-10.26,10.26c.62.44.41.28-.62-.49.19.16.38.33.56.5.36.34.65.77,1.01,1.1-.78-1.03-.95-1.24-.5-.62.14.21.27.42.4.63.25.43.47.88.68,1.34l-.76-1.79c.44,1.05.74,2.11.91,3.23l-.27-1.99c.12.98.15,1.95.03,2.93l.27-1.99c-.06.33-.14.62-.25.93l.76-1.79c-.6,1.13.04.53,1.93-1.79l1.79-.76c-.18.09-.38.14-.58.15l1.99-.27-.29-.03,1.99.27-.27-.09,1.79.76c-.63-.36-.37-.15.78.63.76,1.06.99,1.34.67.85-.19-.36-.38-.7-.55-1.07l.76,1.79c-.1-.23-.17-.47-.21-.71l.27,1.99v-.37c-.09.66-.18,1.33-.27,1.99l.08-.29-.76,1.79-2.06,2.12-3.79,1.02h.28c-1.26-.34-2.52-.68-3.79-1.03-1.79-2.22-2.37-2.78-1.74-1.69l-.76-1.79c.1.21.16.42.2.65l-.27-1.99.02.33.27-1.99c0,.22-.06.43-.16.63l.76-1.79,2.13-2.16,1.79-.76c-.16.08-.33.12-.5.13l1.99-.27h-.25c.66.08,1.33.17,1.99.26l-.24-.07,1.79.76,1.14.86,1.93,3.31-.09-.23.27,1.99v-.24c-.09.66-.18,1.33-.27,1.99l.08-.23-.76,1.79-2.16,2.19-1.79.76.22-.05h-3.99l.21.04-1.79-.76.19.14-2.69-2.69.16.3-.76-1.79.07.34-.27-1.99c.02.22.02.44-.02.65l.27-1.99-.08.31.76-1.79,2.13-2,1.79-.76-.25.1,1.99-.27c-.18.05-.35.05-.53,0l3.79,1.02,2.15,2.15,1.02,3.79v-.28c-.09.66-.18,1.33-.27,1.99l.09-.28-.76,1.79.17-.24-2.69,2.69.23-.18-1.79.76.28-.08-1.99.27.29.03-3.79-1.02-2.04-2.13-.76-1.79.1.28-.27-1.99v.3c.1-.66.19-1.33.28-1.99l-.08.29.76-1.79,2.09-2.05,1.79-.76c-.18.1-.37.15-.57.16l1.99-.27-.27-.02,1.99.27-.25-.09,3.31,1.93.84,1.1,1.02,3.79v-.28c-.08.66-.17,1.33-.26,1.99l.11-.27-1.93,3.31-1.07.76-1.79.76.29-.09-1.99.27h.28c-.66-.08-1.33-.17-1.99-.26l.26.08-1.79-.76c-1.87-2.39-2.53-3.01-1.98-1.87l-.76-1.79.06.27-.27-1.99v.27c.09-.66.18-1.33.27-1.99l-.07.26.76-1.79,2.15-2.18,1.79-.76-.24.05,1.99-.27h-.25c.66.08,1.33.17,1.99.26-.17-.02-.33-.07-.48-.15l1.79.76,2.18,2.18.76,1.79-.07-.23.27,1.99v-.25c-.09.66-.18,1.33-.27,1.99l.07-.22-.76,1.79-2.21,2.27-1.79.76.22-.06-1.99.27c.15-.03.3-.03.46,0l-1.99-.27.22.06-1.79-.76-2.22-2.28-.76-1.79.06.22-.27-1.99v.25c.09-.66.18-1.33.27-1.99l-.07.22.76-1.79c2.46-1.94,3.12-2.63,1.96-2.08l1.79-.76-.25.07,1.99-.27c-.17.03-.35.04-.53.01l1.99.27-.25-.06,1.79.76c-1.06-.52-.49.1,1.71,1.85-.13-.2-.24-.41-.33-.63l.76,1.79c-.17-.43-.31-.87-.43-1.31l.27,1.99-.03-.29-.27,1.99.04-.27-.76,1.79.15-.22-2.69,2.69.24-.12-3.79,1.02.27.02-3.79-1.02-2.03-2.1-.76-1.79c.11.23.17.47.18.72l-.27-1.99-.03.37.27-1.99-.11.35.76-1.79,1.99-2.05,1.79-.76-.3.06,1.99-.27h-.3c.66.08,1.33.17,1.99.26l-.28-.09,1.79.76-.24-.18,2.69,2.69-.14-.22.76,1.79-.07-.25.27,1.99v-.26c-.08.66-.17,1.33-.26,1.99l.07-.25-.76,1.79-.85,1.14-3.31,1.93.24-.08-1.99.27.34.03-3.79-1.02-1.95-1.98-.76-1.79.09.27-.27-1.99c.04.19.05.38.02.57l.27-1.99c-.03.19-.08.38-.16.56l.76-1.79c.51-.77,1.15-1.4,1.93-1.89l1.79-.76-.26.09,1.99-.27-.28.02,1.99.27-.31-.05,1.79.76c.71.51,1.31,1.13,1.8,1.85l.76,1.79-.09-.3.27,1.99-.02-.31-.27,1.99.06-.31-.76,1.79c.56-1.14-.09-.51-1.95,1.89l-1.79.76c.17-.08.35-.13.54-.15l-1.99.27h.28c-.66-.09-1.33-.18-1.99-.27l.27.05-1.79-.76c1.12.51.51-.11-1.83-1.88l-.76-1.79.09.3-.27-1.99c.04.21.05.42.01.63l.27-1.99-.09.3.76-1.79,2.06-2,1.79-.76-.3.09,1.99-.27h-.25c.66.07,1.33.16,1.99.25l-.23-.1,3.31,1.93c.79,1.27,1.03,1.57.72.91l.76,1.79-.05-.26.27,1.99v-.26c-.08.66-.17,1.33-.26,1.99l.08-.24-.76,1.79.15-.21-2.69,2.69.21-.16-1.79.76.24-.09-1.99.27c.17-.04.34-.04.52,0l-1.99-.27.25.08-1.79-.76-2.1-2.18-.76-1.79c.09.17.14.34.14.54l-.27-1.99-.03.29.27-1.99-.1.28.76-1.79c2.34-1.85,2.95-2.48,1.83-1.89l1.79-.76-.29.07,1.99-.27h-.34c.66.09,1.33.18,1.99.27l-.33-.07,1.79.76c-.72-.35-.5-.06.66.86.94,1.16,1.21,1.39.82.68l.76,1.79-.08-.31.27,1.99v-.32c-.1.66-.19,1.33-.28,1.99l.07-.3-.76,1.79.15-.25-2.69,2.69.24-.17-1.79.76.27-.05h-3.99l.26.07-1.79-.76-1.11-.79-1.93-3.31.11.27-.27-1.99.02.28.27-1.99-.09.32.76-1.79c2.25-1.77,2.8-2.38,1.65-1.83l1.79-.76-.33.09,1.99-.27c-.23.04-.46.05-.69.03l1.99.27c-.23-.03-.44-.09-.65-.2l1.79.76,2.06,2.03.76,1.79-.1-.28.27,1.99c-.05-.19-.05-.38-.01-.58l-.27,1.99.09-.27-.76,1.79-.81,1.12-3.31,1.93.23-.09-1.99.27c.17-.04.34-.04.51,0l-1.99-.27.24.08-1.79-.76-1.15-.86-1.93-3.31.09.23-.27-1.99v.33c.1-.66.19-1.33.27-1.99l-.09.32.76-1.79c-.38.69-.1.45.86-.74,1.18-.94,1.41-1.24.71-.9l1.79-.76-.3.06,1.99-.27h-.31c.66.09,1.33.18,1.99.26l-.3-.08,1.79.76c1.91,2.46,2.59,3.11,2.04,1.97l.76,1.79-.06-.24.27,1.99v-.25c-.1.66-.19,1.33-.28,1.99,0-.16.04-.32.12-.46l-.76,1.79-.85,1.17-3.31,1.93.23-.08-1.99.27h.23c-.66-.09-1.33-.18-1.99-.27l.23.07-1.79-.76c-1.89-2.47-2.58-3.14-2.06-1.99l-1.02-3.79.03.22.27-1.99-.05.21.76-1.79-.13.2,2.69-2.69-.3.2,1.79-.76c-.21.09-.43.14-.66.16l1.99-.27c-.21.02-.42,0-.63-.03l1.99.27-.3-.08,1.79.76c-1.15-.54-.55.11,1.8,1.94l.76,1.79-.07-.26.27,1.99v-.27c-.08.66-.17,1.33-.26,1.99l.07-.26-.76,1.79-2.18,2.1-1.79.76.23-.09-1.99.27h.24c-.66-.1-1.33-.19-1.99-.27l.24.09-1.79-13.71-.35.18,1.79-.76c-.24.11-.49.18-.75.22l1.99-.27c-.26.04-.52.05-.78.02l1.99.27c-.26-.03-.51-.09-.76-.19l1.79.76,1.09.87,1.93,3.31-.08-.24v3.99l.04-.26-.76,1.79-.82,1.1-3.31,1.93.26-.1-1.99.27h.45c-.66-.09-1.33-.18-1.99-.27l.44.13-1.79-.76.43.19,1.79-13.71c-.2.09-.4.16-.61.19l1.99-.27c-.34.04-.62.04-.96,0l1.99.27c-.21-.04-.42-.1-.62-.19l1.79.76c-1.07-.54,1.3,1.29.5.4l-3.31,12.54c.2-.08.41-.13.63-.14l-1.99.27h.32c-.66-.08-1.33-.17-1.99-.26.22.02.43.07.63.15l-1.79-.76c.47.25.4.17-.21-.25-.55-.49-.66-.53-.31-.13v-10.61l1.03-.8,1.79-.76c-.19.09-.39.14-.6.14l1.99-.27-.31-.02,1.99.27-.3-.08,1.79.76-.28-.14-3.79,13.98c.28,0,.57.03.85.07l-1.99-.27c.57.1,1.09.26,1.63.47l-1.79-.76c.26.11.51.25.75.4-.68-.45-1.24-1-1.7-1.67l-1.02-3.79v.32c.35-1.26.69-2.52,1.03-3.79l2.18-2.16,1.79-.76-.27.07,1.99-.27c-.2.03-.4.03-.59,0l1.99.27c-.21-.01-.41-.06-.6-.15l1.79.76-.28-.19,2.69,2.69-.15-.24.76,5.78.05-.26-3.45,4.48.2-.14-1.79.76c.22-.06.44-.1.66-.12l-1.99.27c.28-.04.55-.04.83-.02l-1.99-.27c.27.02.53.1.78.22l-1.79-.76-2.11-2.02-.76-1.79.08.28-.27-1.99v.28c.1-.66.19-1.33.28-1.99l-.07.27.76-1.79-.16.23,2.69-2.69-.26.18,1.79-.76-.3.08,1.99-.27h-.32c.66.09,1.33.18,1.99.27-.35-.06-.64-.15-.98-.28l1.79,13.71c.17-.14.36-.25.57-.32l-1.79.76.32-.08-1.99.27c.22-.04.44-.04.65,0l-1.99-.27c.22.03.43.1.62.19l-1.79-.76-1-.78-1.17-9.09,2.15-2.06,1.79-.76c-.17.09-.35.14-.54.16l1.99-.27-.28-.02,1.99.27-.26-.09,1.79.76-.23-.16,2.69,2.69-.15-.2.76,1.79-.09-.23.27,1.99c-.04-.17-.04-.33,0-.5l-.27,1.99.08-.24-.76,1.79-2.19,2.18-1.79.76.24-.06-1.99.27.24.02-3.79-1.02c-1.9-2.49-2.58-3.16-2.04-2.01l-.76-1.79.05.24-.27-1.99v.24c.08-.66.16-1.33.25-1.99l-.08.22,1.93-3.31-.16.19,7.3-1.93c-1.81-.72-3.81-.51-5.71-.64l1.99.27c-.44-.06-.79-.15-1.2-.32l1.79.76c.68.44,1.25,1,1.69,1.68l.76,1.79-.11-.33.27,1.99-.03-.34-.27,1.99.06-.34-.76,1.79c-.55.8-1.22,1.47-2.02,2l-1.79.76.24-.07-1.99.27c.16-.03.32-.04.48,0l-1.99-.27.22.07-1.79-.76.19.13-2.69-2.69.15.19-.76-1.79.1.28-.27-1.99v.3c.09-.66.18-1.33.26-1.99l-.09.29.76-1.79,2.05-2.03,1.79-.76-.35.12,1.99-.27c-.24.05-.49.06-.73.03l1.99.27c-.38-.06-.7-.14-1.06-.27l1.79.76c-1.14-.6-.59.02,1.65,1.85l.76,1.79-.1-.29.27,1.99v-.32c-.09.66-.18,1.33-.27,1.99l.07-.22-.76,1.79-2.21,2.28-1.79.76.22-.06-1.99.27c.16-.03.31-.02.47,0l-1.99-.27.23.06-1.79-.76c1.15.55.47-.14-2.03-2.08l-.76-1.79.06.31-.27-1.99v.31c.08-.66.17-1.33.26-1.99l-.08.3.76-1.79c-.38.69-.09.44.86-.73,1.17-.95,1.4-1.24.7-.88l1.79-.76-.31.08,1.99-.27c-.27.04-.54.04-.81-.01l1.99.27c-.27-.05-.53-.14-.78-.25l1.79.76c-.25-.12-.5-.26-.72-.42.73.41,1.32.98,1.76,1.7l.76,1.79-.11-.28.27,1.99-.03-.28-.27,1.99.05-.26-.76,1.79.16-.23-2.69,2.69.24-.16-1.79.76.26-.04h-3.99l.27.06-1.79-.76c-.56-.33-1.01-.77-1.35-1.31-.41-.59-.47-.66-.19-.2l4.48-11.02c-.31.13-.58.2-.9.27l1.99-.27c-.33.03-.62.03-.94,0l1.99.27c-.32-.06-.61-.14-.91-.25l1.79.76c-.32-.15-1.11-.71-.05.1.53.45.67.54.4.28-.4-.43-.17-.13.7.89l-1.17,9.09c-1.17.77-1.42.98-.76.64l-1.79.76c.19-.08.4-.12.61-.14l-1.99.27h.31c-.66-.09-1.33-.18-1.99-.27.21.01.41.06.6.13l-1.79-.76.28.14,1.79-13.71c-.19.08-.38.14-.58.17l1.99-.27c-.31.04-.58.05-.9.03l1.99.27c-.31-.05-.58-.12-.88-.23l1.79.76c-.19-.08-.37-.17-.55-.27,1.04.87,1.35,1.11.92.71-.34-.35,1.06,1.83.41.41l.76,1.79c-.08-.19-.13-.38-.16-.58l-3.45,8.47.23-.13-1.79.76.26-.04-1.99.27.27.04-3.79-1.02-1.08-.88,5.3-12.8-.31-.03,1.99.27-.3-.09,1.79.76c-1.12-.59-.53.03,1.77,1.87l.76,1.79-.11-.29-1.93,7.3-1.02.84-1.79.76.29-.08c2.26-.58,3.97-2.24,4.86-4.34.98-2.33.67-4.43-.38-6.67-.21-.45-.42-.9-.63-1.35l-12.95,7.57c2.16,2.8,4.57,5.3,7.8,6.9s6.45,2.27,10.14,2.53l-1.99-.27c.2.02.4.07.59.15l-1.79-.76-2.16-2.19-1.02-3.79v.25c.33-1.26.67-2.52,1.01-3.79.31-.58.73-1.05,1.26-1.42.56-.42.6-.47.12-.15-.35.16-.68.37-1.04.52-1.54.69-3.08,2.88-3.45,4.48-.44,1.91-.35,4.09.76,5.78,1.19,1.82,2.25,2.83,4.03,4.06l7.57-12.95c-.27-.15-.54-.3-.81-.45-3.42-1.92-8.35-.94-10.26,2.69s-.97,8.22,2.69,10.26c.27.15.54.3.81.45,3.42,1.92,8.35.94,10.26-2.69,2.02-3.82.77-7.88-2.69-10.26.92.78,1.18.97.77.57-.4-.42-.2-.16.58.75l-2.69,10.26c4.32-1.92,7.44-6.52,5.43-11.27-1.03-2.44-2.97-4.15-5.54-4.89-1.38-.4-2.83-.34-4.25-.5l1.99.27c-1.27-.18-2.48-.51-3.68-.98l1.79.76c-.21-.09-3.05-1.61-2.99-1.68.05-.05,1.43,1.21.62.46-.19-.17-.38-.34-.57-.51-.45-.43-1.86-2.15-.35-.19-1.25-1.62-2.42-2.88-4.48-3.45-1.8-.49-4.19-.27-5.78.76-3.67,2.37-4.48,6.45-2.69,10.26.21.45.42.9.63,1.35l4.48-11.02c-1.69.44-2.8,1.25-4.1,2.33-1.85,1.54-2.81,5.04-1.93,7.3s1.91,3.98,3.94,5.27c1.61,1.02,3.05,1.31,4.93,1.46,2.93.24,5.79-2.08,6.85-4.61,1.14-2.7.63-6.11-1.55-8.19-2.84-2.71-6.86-3.2-10.29-1.33-3.03,1.65-4.14,5.28-3.45,8.47,1.25,5.73,8.08,9.7,13.66,7.69,2.87-1.03,4.95-3.12,5.37-6.24.38-2.8-.92-6.13-3.58-7.47-3.94-1.98-8.42-1.6-11.64,1.57-2.3,2.27-2.92,6.3-1.17,9.09,1.46,2.33,3.6,4.14,6.27,4.92,2.04.6,4.59.75,6.6-.07,2.26-.92,3.89-2.03,4.86-4.34.92-2.19.84-4.59-.38-6.67-.94-1.61-2.24-2.93-3.84-3.87-2.99-1.77-7.47-1.31-9.87,1.3-1.97,2.15-2.96,5.19-2.11,8.07.73,2.46,2.27,4.19,4.32,5.63,3.78,2.66,9.05,2.4,12.45-.76,4.1-3.82,3.65-10.84-1.18-13.83-4.09-2.53-9.43-1.24-12,2.78-1.45,2.27-1.41,5.19-.4,7.6,1.1,2.6,3.3,4.27,5.9,5.18,4.86,1.71,10.45-.78,12.01-5.78,1.67-5.35-2.62-10.84-8.14-10.76-2.9.04-5.97,1.68-7.4,4.27-1.55,2.79-1.45,6.01-.01,8.81,1.15,2.24,3.48,3.92,5.86,4.61,1.75.51,3.54.37,5.32.49l-1.99-.27c.44.06.79.15,1.2.31,2.26.9,5.75-.09,7.3-1.93,1.77-2.11,2.68-4.2,2.32-6.95-.27-2.01-1.07-3.72-2.54-5.14-3.85-3.7-10.25-2.71-12.92,1.86-2.33,3.98-1.05,9.38,3.01,11.7s9.86.93,11.88-3.37c1.37-2.9,1.44-6.75-1.17-9.09-3.18-2.85-8.01-3.92-11.77-1.35-2.53,1.73-4,4.34-3.58,7.47s2.51,5.13,5.37,6.24c3.17,1.23,6.7.34,9.15-1.91,2.88-2.64,3-7.19,1.18-10.41-1.68-2.96-5.22-4.52-8.52-4.32-1.71.11-3.16.43-4.64,1.28-2.71,1.56-4.04,4.71-3.64,7.73.57,4.22,4.41,7.03,8.55,7.09,3.6.05,6.7-1.93,8.08-5.22,1.73-4.09-.34-8.33-3.89-10.59-2.16-1.37-4.66-1.96-7.19-2.08-3.15-.14-6.53,2.42-7.23,5.51s.42,6.93,3.45,8.47c3.82,1.95,7.92,1.5,11.06-1.45,1.32-1.23,2.28-3.49,2.2-5.3-.09-2.12-.9-3.65-2.2-5.3-2.19-2.81-6.59-3.75-9.87-2.74-2.52.78-4.53,2.66-5.24,5.24s.12,5.26,1.93,7.3c2.43,2.74,7.03,4.06,10.5,2.7,2.86-1.11,4.94-3.04,5.37-6.24.36-2.72-.89-6.24-3.58-7.47-2.97-1.36-6.15-1.97-9.15-.22s-4.9,5.81-3.8,9.27c1.94,6.09,8.98,7.4,14.12,4.67,2.64-1.4,3.96-4.64,3.58-7.47-.42-3.1-2.5-5.19-5.37-6.24s-6.15.1-8.21,2.09c-2.19,2.11-3.13,5.61-2.25,8.52,1.72,5.62,8.67,8.03,13.65,5.08,2.92-1.73,4.32-4.92,3.88-8.21s-2.84-5.97-6-6.93c-6.28-1.91-12.12,4.43-10.28,10.55s9,8.12,13.89,4.34c2.18-1.69,3.53-4.18,3.61-6.97.11-3.68-2.46-7.07-5.97-8.11-2.86-.84-6.11-.12-8.28,1.95s-2.89,4.71-2.51,7.54c.41,3.03,2.39,5.61,5.2,6.8s5.61,1.02,8.34-.3c5.96-2.88,6.49-11.77.6-15.07-3.08-1.72-7.39-1.35-9.85,1.33s-3.03,6.17-1.67,9.38c2.17,5.14,8.49,7.48,13.33,4.41,5.44-3.45,5.57-11.88-.25-15.05-2.65-1.44-5.94-1.5-8.58.01-2.93,1.68-4.47,5.06-4.03,8.34.4,2.99,2.14,5.53,4.98,6.72,3.17,1.34,6.73.69,9.24-1.71,4.29-4.08,3.14-11.61-2.03-14.34s-11.52.12-12.91,5.69c-1.59,6.4,4.68,12.62,11.07,10.62,5.49-1.72,8.12-8.38,5.2-13.37-1.74-2.97-5.06-4.62-8.46-4.16s-6.02,2.84-6.86,6.09c-.92,3.57.58,7.21,3.65,9.2,2.61,1.69,6.32,1.71,8.98.08,5.62-3.45,5.6-12.1-.15-15.42-3.43-1.98-7.9-1.16-10.32,1.96-1.76,2.27-2.21,5.19-1.33,7.94.62,1.93,1.49,3.74,2.97,5.16,2.25,2.17,5.56,3.07,8.6,2.29,5.81-1.5,8.49-8.51,4.77-13.32s-11.15-4.18-14.1.96c-3.24,5.65,1.26,12.63,7.58,12.64s10.72-7.32,7.27-12.88c-1.59-2.57-4.28-4.26-7.33-4.36-3.7-.12-7.19,2.48-8.25,5.99-.88,2.89-.11,6.19,2.14,8.26,2.61,2.4,6.1,2.84,9.29,1.5,2.82-1.19,4.75-3.75,5.15-6.78.45-3.37-1.16-6.72-4.08-8.49-2.65-1.61-6.05-1.5-8.64.11-3.69,2.28-5.06,7.25-2.95,11.07,3.19,5.77,11.56,5.46,14.77-.11,1.41-2.45,1.57-5.55.48-8.13-1.58-3.74-5.42-5.79-9.42-4.82-2.84.69-5.14,3.03-5.99,5.78-1.09,3.5.51,7.47,3.63,9.35,5.03,3.04,11.41.04,12.92-5.42.68-2.44.14-5.24-1.21-7.36-1.94-3.03-5.8-5.18-9.44-4-2.84.92-5.24,3.13-5.95,6.1-.65,2.67.04,5.29,1.35,7.64,2.52,4.55,8.07,6.8,12.81,4.16,6.78-3.78,5.38-13.77,2.17-19.42-1.57-2.76-3.75-4.86-6.32-6.67s-6.99-1.12-9.09,1.17c-2.31,2.52-2.81,6.05-1.17,9.09,1.46,2.71,2.8,5.49,4,8.33l-.76-1.79c.24.57.47,1.14.7,1.71.72,1.8,1.64,3.53,3.45,4.48,1.51.8,3.08,1.12,4.78.89,3.38-.45,6.87-3.65,6.5-7.37-.27-2.71-.56-5.62-1.54-8.2-1.6-4.18-4.79-7.37-9.54-7.42-1.83-.02-4.05.83-5.3,2.2s-2.44,3.38-2.2,5.3c.1.82.1,1.61-.01,2.44l.27-1.99c-.12.68-.31,1.32-.56,1.96l.76-1.79c-.2.44-.45.83-.68,1.25-.32.48-.13.24.57-.72-.55.54-.34.39.63-.44l1.79-.76c-.26.13-.53.22-.82.27l1.99-.27c-.67.08-1.31.06-1.97-.02l1.99.27c-.74-.12-1.43-.32-2.13-.6l1.79.76c-.45-.21-.87-.46-1.3-.7-1.16-.65,1.4,1.29.23.13s.77,1.42.11.22c-.25-.46-.51-.89-.71-1.37l.76,1.79c-.23-.61-.4-1.22-.51-1.87l.27,1.99c-.1-.78-.12-1.54-.04-2.32l-.27,1.99c.08-.52.18-1.01.34-1.51,1.13-3.76-1.35-8.34-5.24-9.23-4.19-.95-7.83,1.27-9.23,5.24-1.02,2.9.04,6.29,2.18,8.39,2.29,2.24,6.29,2.98,9.09,1.17s4.47-5.22,3.45-8.47c-1.57-4.98-7.25-7.51-11.92-4.89-3.75,2.11-4.87,6.43-3.83,10.4.75,2.88,3.35,4.99,6.24,5.37,2.7.36,6.26-.89,7.47-3.58.68-1.51,1.14-2.55,1.1-4.25-.04-2.08-.87-4.04-2.31-5.53-2.14-2.21-5.34-3-8.26-2.11-3.52,1.07-5.9,4.39-5.96,8.04-.05,2.77,1.23,4.98,2.99,6.98,1.55,1.77,4.08,2.36,6.3,2.06,2.09-.28,4.58-1.5,5.48-3.58.64-1.5,1.17-2.61,1.15-4.29-.02-1.47-.44-3.03-1.19-4.29-1.53-2.56-4.37-4.24-7.37-4.2s-5.77,1.77-7.23,4.4c-1.39,2.49-1.59,6.19.2,8.57,1.16,1.55,2.48,2.99,4.48,3.45s4.06.33,5.78-.76c3.38-2.14,4.97-5.99,3.96-9.9-1.15-4.43-6.02-6.96-10.34-5.86-3.66.94-6.73,4.49-6.58,8.39s2.74,7.58,6.69,8.55c1.84.45,4.14.3,5.78-.76,1.54-.99,3.14-2.6,3.45-4.48.45-2.79.37-5.51-1.22-7.95-.9-1.39-2.05-2.42-3.59-3.07-1.43-.6-3.38-.95-4.88-.38-2.88,1.1-5.37,3.04-6.22,6.14-.67,2.44-.47,5.18.91,7.35,2.64,4.17,8.17,4.89,11.78,1.52,3.38-3.15,3.28-8.82.03-12.02-3.94-3.87-10.59-2.8-13.41,1.85-2.21,3.64-1.37,8.48,1.67,11.35,4.49,4.26,11.52,1.82,13.03-3.96,1.16-4.44-1.54-9.52-5.95-10.84s-9.35,1.37-10.52,5.94c-.71,2.78-.34,5.65,1.03,8.16,2.32,4.26,7.85,5.65,11.93,3.14,5.05-3.1,5.28-10.64.14-13.79-4.55-2.79-10.74-.35-12.09,4.85s2.7,10.07,7.87,10.07c5.56,0,9.26-5.7,7.78-10.89s-7.46-7.57-12.01-4.82c-3.53,2.13-4.86,6.51-3.75,10.34s4.83,6.88,8.94,6.95c4.76.08,8.91-3.74,8.98-8.55s-3.85-8.81-8.65-8.67c-3.5.1-6.62,2.46-7.55,5.86-.64,2.31-.17,4.85,1.03,6.89s3.22,3.76,5.53,4.39c3.43.94,7.16-.48,9-3.52,3.05-5.04-.43-12.35-6.7-12.11-4.28.17-7.19,3.31-7.5,7.5s2.71,7.96,6.47,9.14,7.58-.12,9.92-3.15,2.61-7.03.6-10.3-6.52-5.2-10.31-3.91c-1.58.54-2.87,1.35-3.9,2.69-1.1,1.43-1.39,2.75-1.61,4.54-.39,3.08,1.92,6.41,4.5,7.82,1.67.92,3.54,1.28,5.42,1.03,2.01-.27,3.35-1.07,5-2.36,1.41-1.1,2.2-3.61,2.2-5.3,0-1.84-.82-4.04-2.2-5.3s-3.31-2.29-5.3-2.2c-2.12.09-3.65.9-5.3,2.2h0Z"/>
  <path class="cls-1" d="M236.97,335.23c3.92,0,7.68-3.45,7.5-7.5s-3.3-7.5-7.5-7.5c-3.92,0-7.68,3.45-7.5,7.5s3.3,7.5,7.5,7.5h0Z"/>
  <path class="cls-1" d="M254.96,328.49c-.77-1.38-1.79-2.72-2.96-3.78s-2.44-2.04-3.86-2.68c-1.01-.45-2.06-.94-3.14-1.21-1.14-.29-2.36-.42-3.53-.53-1.68-.16-3.34.08-5,.35-1.47.24-2.97.85-4.24,1.59-1.79,1.03-3.42,2.62-4.43,4.42-1.92,3.4-1.97,7.24-1.24,10.98.1.51.24,1,.42,1.48.37.99.76,2.07,1.35,2.96s1.22,1.77,2.01,2.45c1.38,1.18,2.6,1.88,4.33,2.47s4.2.17,5.78-.76,3.04-2.69,3.45-4.48c.44-1.92.34-4.07-.76-5.78s-2.56-2.78-4.48-3.45c-.13-.04-.25-.09-.37-.14l1.79.76c-.23-.12-.44-.25-.65-.4l1.52,1.17c-.25-.21-.47-.44-.67-.69l1.17,1.52c-.28-.39-.5-.79-.69-1.22l.76,1.79c-.31-.78-.5-1.59-.62-2.43l.27,1.99c-.1-.85-.13-1.68-.02-2.53l-.27,1.99c.08-.53.22-1.02.42-1.51l-.76,1.79c.16-.34.35-.66.58-.96l-1.17,1.52c.23-.28.47-.52.75-.75l-1.52,1.17c.4-.3.82-.54,1.29-.75l-1.79.76c.68-.27,1.38-.44,2.11-.55l-1.99.27c.98-.12,1.96-.11,2.94,0l-1.99-.27c.86.12,1.69.32,2.5.64l-1.79-.76c.73.31,1.39.7,2.02,1.18l-1.52-1.17c.55.44,1.03.93,1.47,1.47l-1.17-1.52c.28.37.53.76.76,1.16.91,1.63,2.7,2.96,4.48,3.45s4.19.27,5.78-.76,3.01-2.57,3.45-4.48.26-3.97-.76-5.78h0Z"/>
  <path class="cls-1" d="M171.59,309.77c-.03-.43-.01-.85.04-1.27l-.27,1.99c.08-.59.24-1.17.47-1.72l-.76,1.79c.23-.55.53-1.06.9-1.54l-1.17,1.52c.26-.34.56-.64.88-.92.73-.68,1.25-1.48,1.55-2.41.47-.89.68-1.86.65-2.89.04-1.03-.18-2-.65-2.89-.3-.93-.82-1.73-1.55-2.41l-1.52-1.17c-1.17-.68-2.43-1.02-3.79-1.02l-1.99.27c-1.27.36-2.37,1-3.31,1.93-.85.74-1.53,1.72-2.18,2.61-.51.7-.81,1.47-1.15,2.26s-.66,1.53-.81,2.36c-.15.88-.29,1.78-.35,2.67-.02.28-.02.57,0,.85-.04,1.03.18,2,.65,2.89.3.93.82,1.73,1.55,2.41.68.73,1.48,1.25,2.41,1.55.89.47,1.86.68,2.89.65l1.99-.27c1.27-.36,2.37-1,3.31-1.93l1.17-1.52c.68-1.17,1.02-2.43,1.02-3.79h0Z"/>
</svg>